<svg xmlns="http://www.w3.org/2000/svg" xmlns:xlink="http://www.w3.org/1999/xlink" viewBox="0 0 1920 1080"><defs><style>.cls-1,.cls-102,.cls-103,.cls-37,.cls-52,.cls-87,.cls-88,.cls-89,.cls-90{fill:none;}.cls-2{isolation:isolate;}.cls-3{fill:url(#linear-gradient);}.cls-109,.cls-4{fill:#0f4b6a;}.cls-5{fill:#026a9e;}.cls-38,.cls-6{opacity:0.19;}.cls-38,.cls-54,.cls-6,.cls-63{mix-blend-mode:multiply;}.cls-104,.cls-7{fill:#d37809;}.cls-114,.cls-8{fill:#703e03;}.cls-9,.cls-94{fill:#ba5007;}.cls-10{fill:#edd285;}.cls-11{fill:#f4d684;}.cls-105,.cls-12{fill:#f9960d;}.cls-13{clip-path:url(#clip-path);}.cls-14{opacity:0.22;}.cls-15{fill:#fbf9eb;}.cls-16{fill:#cbaa7f;}.cls-101,.cls-17{fill:#ffcf4d;}.cls-18,.cls-97{fill:#ffe590;}.cls-19{fill:#867151;}.cls-20{fill:#d8b57f;}.cls-21{fill:#c3a473;}.cls-22{clip-path:url(#clip-path-2);}.cls-23{fill:#ce947b;}.cls-24{clip-path:url(#clip-path-3);}.cls-25{clip-path:url(#clip-path-4);}.cls-26{clip-path:url(#clip-path-5);}.cls-27{fill:#ceae80;}.cls-28{clip-path:url(#clip-path-6);}.cls-29{clip-path:url(#clip-path-7);}.cls-30{clip-path:url(#clip-path-8);}.cls-31{clip-path:url(#clip-path-9);}.cls-32{fill:#34c187;}.cls-33{fill:#1fcfff;}.cls-34{fill:#34d197;}.cls-35{fill:#02996a;}.cls-36{fill:#0e766d;}.cls-103,.cls-37{stroke:#000;}.cls-37,.cls-87,.cls-88,.cls-89,.cls-90{stroke-miterlimit:10;}.cls-37{stroke-width:0.42px;}.cls-39{fill:#999591;}.cls-40{fill:#aba7a2;}.cls-41{fill:#cfccc5;}.cls-42{fill:#87560c;}.cls-43{fill:#cfcbc5;}.cls-44{fill:#f4f4f4;}.cls-45{fill:#3a3f41;}.cls-46{fill:#919596;}.cls-47{fill:#ffa200;}.cls-48{fill:#7f807d;}.cls-108,.cls-49{fill:#292929;}.cls-50{fill:#a3a3a3;}.cls-51{fill:#9b9b9b;}.cls-52{stroke:#d1d1d1;stroke-width:1.41px;}.cls-102,.cls-103,.cls-52{stroke-linecap:round;stroke-linejoin:round;}.cls-53{fill:url(#linear-gradient-2);}.cls-54{opacity:0.1;}.cls-55{fill:#bcbdbe;}.cls-56{fill:#d1d1d1;}.cls-57{fill:gray;}.cls-58{fill:#a7a7a8;}.cls-59{clip-path:url(#clip-path-10);}.cls-60{clip-path:url(#clip-path-11);}.cls-61{clip-path:url(#clip-path-12);}.cls-62{clip-path:url(#clip-path-13);}.cls-63{fill:#acacac;}.cls-64{fill:#f2e6aa;}.cls-65,.cls-99{fill:#fff6bf;}.cls-66{fill:#82806f;}.cls-67{fill:#a5a498;}.cls-68{clip-path:url(#clip-path-14);}.cls-69{clip-path:url(#clip-path-15);}.cls-70{fill:#0b455b;}.cls-71{fill:#d6d6d1;}.cls-72{fill:url(#Áåçûìÿííûé_ãðàäèåíò_24);}.cls-73,.cls-91,.cls-92,.cls-93{fill:#fff;}.cls-74{fill:url(#Áåçûìÿííûé_ãðàäèåíò_21);}.cls-75{fill:#bdb5ac;}.cls-76{fill:#f7f7cf;}.cls-77{fill:#d268cc;}.cls-78{fill:#919191;}.cls-79{fill:#cecece;}.cls-80{fill:#b2b2b1;}.cls-81,.cls-84{opacity:0.25;}.cls-82{fill:#1a9cf1;}.cls-83{fill:#0d7fc6;}.cls-85{fill:#026a9d;}.cls-86{fill:#274459;}.cls-87,.cls-88,.cls-89,.cls-90{stroke:#fff;}.cls-87{stroke-width:3px;}.cls-88{stroke-width:0.41px;}.cls-89{stroke-width:1.66px;}.cls-90{stroke-width:1.79px;}.cls-91{font-size:29.57px;}.cls-91,.cls-92{font-family:OpenSans-SemiBold, Open Sans;font-weight:600;}.cls-92{font-size:29.79px;}.cls-93{font-size:37.93px;}.cls-93,.cls-94{font-family:OpenSans-Bold, Open Sans;font-weight:700;}.cls-94{font-size:46px;}.cls-95{fill:#a59828;}.cls-100,.cls-101,.cls-104,.cls-105,.cls-106,.cls-107,.cls-108,.cls-109,.cls-110,.cls-111,.cls-112,.cls-113,.cls-114,.cls-95,.cls-96,.cls-97,.cls-98,.cls-99{fill-rule:evenodd;}.cls-96{fill:#c9be91;}.cls-98{fill:#e8ce82;}.cls-100{fill:#e2d59c;}.cls-102{stroke:#a7a9ac;stroke-width:2.09px;}.cls-103{stroke-width:4.19px;}.cls-106{fill:#d99e72;}.cls-107{fill:#979796;}.cls-110{fill:#085788;}.cls-111{fill:#314a8d;}.cls-112{fill:#ecc19a;}.cls-113{fill:#262424;}.cls-115{fill:#0d3659;}.cls-116{fill:#0072bf;}.cls-117{clip-path:url(#clip-path-16);}.cls-118{fill:#f9d9a6;}.cls-119{fill:#193070;}.cls-120{fill:#0f1542;}</style><linearGradient id="linear-gradient" x1="949.51" y1="-162.96" x2="967.89" y2="1068.7" gradientUnits="userSpaceOnUse"><stop offset="0" stop-color="#ffce4d"/><stop offset="0.31" stop-color="#fcb835"/><stop offset="0.75" stop-color="#f99f18"/><stop offset="1" stop-color="#f8950d"/></linearGradient><clipPath id="clip-path"><polygon class="cls-1" points="1286.83 748.06 751.75 1057.83 320.69 808.96 855.78 499.19 1286.83 748.06"/></clipPath><clipPath id="clip-path-2"><polygon class="cls-1" points="692.28 659 649.61 634.2 646.21 636.17 688.88 660.96 692.28 659"/></clipPath><clipPath id="clip-path-3"><polygon class="cls-1" points="692.3 664.85 692.29 658.9 688.86 660.88 688.88 666.82 692.3 664.85"/></clipPath><clipPath id="clip-path-4"><polygon class="cls-1" points="604.17 660.09 561.5 635.29 558.1 637.26 600.77 662.05 604.17 660.09"/></clipPath><clipPath id="clip-path-5"><polygon class="cls-1" points="604.19 665.93 604.17 659.99 600.75 661.96 600.77 667.91 604.19 665.93"/></clipPath><clipPath id="clip-path-6"><polygon class="cls-1" points="647.2 684.96 604.53 660.16 601.13 662.13 643.8 686.92 647.2 684.96"/></clipPath><clipPath id="clip-path-7"><polygon class="cls-1" points="647.22 690.81 647.21 684.86 643.78 686.84 643.8 692.78 647.22 690.81"/></clipPath><clipPath id="clip-path-8"><polygon class="cls-1" points="658.79 618.81 616.13 594.01 612.72 595.98 655.39 620.77 658.79 618.81"/></clipPath><clipPath id="clip-path-9"><polygon class="cls-1" points="658.82 624.65 658.8 618.71 655.38 620.68 655.39 626.63 658.82 624.65"/></clipPath><linearGradient id="linear-gradient-2" x1="-563.56" y1="659.16" x2="-501.49" y2="659.16" gradientTransform="translate(1547.38)" gradientUnits="userSpaceOnUse"><stop offset="0" stop-color="gray"/><stop offset="0.4" stop-color="#999"/><stop offset="1" stop-color="#4d4d4d"/></linearGradient><clipPath id="clip-path-10"><polygon class="cls-1" points="529.84 667.3 487.17 642.51 483.77 644.47 526.43 669.27 529.84 667.3"/></clipPath><clipPath id="clip-path-11"><polygon class="cls-1" points="529.86 673.15 529.84 667.2 526.42 669.18 526.44 675.13 529.86 673.15"/></clipPath><clipPath id="clip-path-12"><polygon class="cls-1" points="513.36 622.3 470.69 597.5 467.28 599.46 509.95 624.26 513.36 622.3"/></clipPath><clipPath id="clip-path-13"><polygon class="cls-1" points="513.38 628.14 513.36 622.2 509.94 624.17 509.95 630.12 513.38 628.14"/></clipPath><clipPath id="clip-path-14"><polygon class="cls-1" points="602.63 689.54 645.3 664.74 648.7 666.71 606.03 691.5 602.63 689.54"/></clipPath><clipPath id="clip-path-15"><polygon class="cls-1" points="602.61 695.39 602.62 689.44 606.05 691.41 606.03 697.36 602.61 695.39"/></clipPath><linearGradient id="Áåçûìÿííûé_ãðàäèåíò_24" x1="546.03" y1="762.38" x2="564.33" y2="762.38" gradientTransform="translate(-23.5)" gradientUnits="userSpaceOnUse"><stop offset="0.05" stop-color="#d9d2c9"/><stop offset="0.77" stop-color="#fffdf8"/></linearGradient><linearGradient id="Áåçûìÿííûé_ãðàäèåíò_21" x1="538.99" y1="751.27" x2="555.09" y2="751.27" gradientTransform="translate(-23.5)" gradientUnits="userSpaceOnUse"><stop offset="0.23" stop-color="#fffdf8"/><stop offset="0.95" stop-color="#d9d2c9"/></linearGradient><clipPath id="clip-path-16"><rect class="cls-1" x="1940" width="1920" height="1080"/></clipPath></defs><g class="cls-2"><g id="_151-Feet_and_Inches_Calculator" data-name="151-Feet and Inches Calculator"><rect class="cls-3" width="1920" height="1080"/><polygon class="cls-4" points="632.2 511.54 632.25 528.17 1167.31 837.07 1167.26 820.44 632.2 511.54"/><polygon class="cls-4" points="1167.28 821.31 1167.33 837.95 1598.39 589.07 1598.34 572.44 1167.28 821.31"/><polygon class="cls-5" points="632.2 511.54 1167.28 821.31 1598.34 572.44 1063.26 262.67 632.2 511.54"/><polygon class="cls-6" points="1084.37 477.22 398.37 873.28 -2.95 641.58 683.05 245.52 1084.37 477.22"/><path class="cls-6" d="M1920,542.7V963.17l-92,53.11a77.32,77.32,0,0,1-77.29,0l-807.1-466,494.76-285.66Z"/><g class="cls-2"><polygon class="cls-7" points="1291.81 271.2 1290.4 766.51 859.35 517.64 860.75 22.33 1291.81 271.2"/><polygon class="cls-8" points="1306.18 262.84 1304.89 719.21 1290.51 726.78 1291.8 271.2 1306.18 262.84"/><polygon class="cls-9" points="860.75 22.33 875.13 13.98 1306.18 262.85 1291.81 271.2 860.75 22.33"/></g><polygon class="cls-10" points="1304.78 758.16 1290.6 767.49 859.35 517.65 859.47 475.43 1290.51 726.78 1290.4 766.51 1304.78 758.16"/><polygon class="cls-11" points="1304.89 719.21 1304.78 758.16 1290.6 767.49 1290.51 726.78 1304.89 719.21"/><polygon class="cls-7" points="323.05 317.9 308.67 326.26 202.56 265 217.38 256.89 323.05 317.9"/><g class="cls-2"><polygon class="cls-9" points="323.1 333.25 202.54 265.01 203.95 760.32 324.51 828.56 323.1 333.25"/><polygon class="cls-7" points="875.13 13.98 860.75 5.62 308.72 324.89 323.1 333.25 875.13 13.98"/><polygon class="cls-12" points="323.05 333.25 324.46 828.56 859.35 517.64 860.75 22.33 323.05 333.25"/></g><polygon class="cls-4" points="1290.65 750.86 1290.6 767.49 755.54 1076.38 755.59 1059.75 1290.65 750.86"/><polygon class="cls-4" points="755.56 1060.63 755.52 1077.26 324.46 828.39 324.51 811.76 755.56 1060.63"/><polygon class="cls-5" points="1290.65 750.86 755.56 1060.63 324.51 811.76 859.59 501.99 1290.65 750.86"/><g class="cls-13"><g class="cls-14"><rect class="cls-11" x="526.56" y="683.21" width="1.57" height="519.66" transform="translate(-553.03 928.21) rotate(-60)"/><rect class="cls-11" x="576.93" y="654.13" width="1.57" height="519.66" transform="translate(-502.66 957.29) rotate(-60)"/><rect class="cls-11" x="627.3" y="625.05" width="1.57" height="519.66" transform="translate(-452.29 986.37) rotate(-60)"/><rect class="cls-11" x="677.66" y="595.97" width="1.57" height="519.66" transform="translate(-401.92 1015.45) rotate(-60)"/><rect class="cls-11" x="728.03" y="566.89" width="1.57" height="519.66" transform="translate(-351.55 1044.53) rotate(-60)"/><rect class="cls-11" x="778.4" y="537.81" width="1.57" height="519.66" transform="translate(-301.18 1073.61) rotate(-60)"/><rect class="cls-11" x="828.77" y="508.73" width="1.57" height="519.66" transform="translate(-250.81 1102.69) rotate(-60)"/><rect class="cls-11" x="879.14" y="479.65" width="1.57" height="519.66" transform="translate(-200.44 1131.77) rotate(-60)"/><rect class="cls-11" x="929.51" y="450.56" width="1.57" height="519.66" transform="translate(-150.07 1160.85) rotate(-60)"/><rect class="cls-11" x="979.88" y="421.48" width="1.57" height="519.66" transform="translate(-99.7 1189.94) rotate(-60)"/><rect class="cls-11" x="1030.25" y="392.4" width="1.57" height="519.66" transform="translate(-49.34 1219.02) rotate(-60)"/><rect class="cls-11" x="1080.62" y="363.32" width="1.57" height="519.66" transform="translate(1.03 1248.1) rotate(-60)"/></g><g class="cls-14"><rect class="cls-11" x="259.47" y="652.4" width="639.77" height="1.57" transform="translate(-249.02 377.33) rotate(-30.01)"/><rect class="cls-11" x="309.47" y="681.27" width="639.77" height="1.57" transform="translate(-256.76 406.21) rotate(-30.01)"/><rect class="cls-11" x="359.47" y="710.14" width="639.77" height="1.57" transform="translate(-264.49 435.09) rotate(-30.01)"/><rect class="cls-11" x="409.48" y="739.01" width="639.77" height="1.57" transform="translate(-272.23 463.97) rotate(-30.01)"/><rect class="cls-11" x="459.48" y="767.88" width="639.77" height="1.57" transform="translate(-279.96 492.85) rotate(-30.01)"/><rect class="cls-11" x="509.49" y="796.75" width="639.77" height="1.57" transform="translate(-287.7 521.73) rotate(-30.01)"/><rect class="cls-11" x="559.49" y="825.62" width="639.77" height="1.57" transform="translate(-295.44 550.61) rotate(-30.01)"/><rect class="cls-11" x="609.5" y="854.49" width="639.77" height="1.57" transform="translate(-303.17 579.49) rotate(-30.01)"/><rect class="cls-11" x="659.5" y="883.36" width="639.77" height="1.57" transform="translate(-310.91 608.37) rotate(-30.01)"/><rect class="cls-11" x="709.5" y="912.23" width="639.77" height="1.57" transform="translate(-318.64 637.25) rotate(-30.01)"/></g></g><polygon class="cls-8" points="1148.69 255.03 1148.69 496.51 1002.45 412.11 1002.45 170.62 1148.69 255.03"/><polygon class="cls-15" points="1090.7 433 1148.7 466.49 1148.7 343.16 1090.7 309.68 1090.7 433"/><polygon class="cls-16" points="1096.36 312.94 1096.36 429.89 1148.7 460.11 1148.7 466.49 1090.7 433 1090.7 309.68 1096.36 312.94"/><polygon class="cls-15" points="1090.7 300.08 1148.7 333.57 1148.7 255.03 1090.7 221.54 1090.7 300.08"/><polygon class="cls-16" points="1096.36 224.81 1096.36 296.96 1148.7 327.18 1148.7 333.57 1090.7 300.08 1090.7 221.54 1096.36 224.81"/><polygon class="cls-15" points="1027.3 396.4 1085.3 429.89 1085.3 306.56 1027.3 273.07 1027.3 396.4"/><polygon class="cls-16" points="1032.96 276.34 1032.96 393.29 1085.3 423.5 1085.3 429.89 1027.3 396.4 1027.3 273.07 1032.96 276.34"/><polygon class="cls-15" points="1027.3 263.48 1085.3 296.96 1085.3 218.42 1027.3 184.94 1027.3 263.48"/><polygon class="cls-16" points="1032.96 188.21 1032.96 260.36 1085.3 290.58 1085.3 296.96 1027.3 263.48 1027.3 184.94 1032.96 188.21"/><polygon class="cls-8" points="1022.16 182 1022.16 400.73 1002.45 412.11 1002.45 170.62 1022.16 182"/><polygon class="cls-17" points="1022.16 400.73 1148.69 473.75 1148.69 496.51 1002.45 412.11 1022.16 400.73"/><polygon class="cls-8" points="1147.15 477.44 1130.74 486.15 1147.17 477.43 1089.17 443.94 1072.73 452.67 1067.33 449.55 1083.77 440.83 1025.77 407.34 1009.32 416.07 1002.45 412.11 1022.16 400.73 1148.69 473.75 1148.69 496.51 1130.74 486.15 1147.15 477.44"/><polygon class="cls-8" points="1002.45 412.11 1148.69 496.51 1148.69 505.81 1002.45 421.4 1002.45 412.11"/><polygon class="cls-18" points="203.95 760.32 324.46 828.37 324.46 828.39 203.95 760.32"/><polygon class="cls-18" points="859.59 501.99 324.5 811.76 324.5 787.68 859.47 475.43 859.59 501.99"/><polygon class="cls-11" points="324.5 787.68 324.5 811.76 324.46 828.37 203.95 760.32 203.83 718 324.5 787.68"/><polygon class="cls-12" points="324.5 811.76 324.5 828.39 324.46 828.37 324.5 811.76"/><path class="cls-6" d="M486.61,713.11l142-88.75V576.44l-15.91,9.12V549l-46.22,27.4v35.88L534,631.11l-47.34-28.45V567.33l-60.61,35V634l-29.38,14.93a23.45,23.45,0,0,0-12.84,20.92V777.52l91.22,52,146.44-85.86-39-21.15L426.42,754l3.25-91.16Z"/><g class="cls-2"><polygon class="cls-19" points="666.59 722.94 710.9 697.19 711.04 647.98 666.73 673.73 666.59 722.94"/><polygon class="cls-20" points="666.73 673.73 711.04 647.98 668.24 623.27 623.93 649.02 666.73 673.73"/><polygon class="cls-21" points="623.93 649.02 623.79 698.23 666.59 722.94 666.73 673.73 623.93 649.02"/></g><g class="cls-2"><g class="cls-22"><polyline class="cls-23" points="646.21 636.17 649.61 634.2 692.28 659 688.88 660.96 646.21 636.17"/></g></g><g class="cls-2"><g class="cls-24"><polyline class="cls-23" points="688.86 660.88 692.29 658.9 692.3 664.85 688.88 666.82 688.86 660.88"/></g></g><g class="cls-2"><polygon class="cls-19" points="578.48 724.03 622.78 698.28 622.92 649.07 578.62 674.82 578.48 724.03"/><polygon class="cls-20" points="578.62 674.82 622.92 649.07 580.12 624.36 535.82 650.11 578.62 674.82"/><polygon class="cls-21" points="535.82 650.11 535.68 699.32 578.48 724.03 578.62 674.82 535.82 650.11"/></g><g class="cls-2"><g class="cls-25"><polyline class="cls-23" points="558.1 637.26 561.5 635.29 604.17 660.09 600.77 662.05 558.1 637.26"/></g></g><g class="cls-2"><g class="cls-26"><polyline class="cls-23" points="600.75 661.96 604.17 659.99 604.19 665.93 600.77 667.91 600.75 661.96"/></g></g><g class="cls-2"><polygon class="cls-19" points="621.51 748.9 665.82 723.15 665.96 673.94 621.65 699.69 621.51 748.9"/><polygon class="cls-20" points="621.65 699.69 665.96 673.94 623.16 649.23 578.85 674.98 621.65 699.69"/><polygon class="cls-27" points="578.85 674.98 578.71 724.19 621.51 748.9 621.65 699.69 578.85 674.98"/></g><g class="cls-2"><g class="cls-28"><polyline class="cls-23" points="601.13 662.13 604.53 660.16 647.2 684.96 643.8 686.92 601.13 662.13"/></g></g><g class="cls-2"><g class="cls-29"><polyline class="cls-23" points="643.78 686.84 647.21 684.86 647.22 690.81 643.8 692.78 643.78 686.84"/></g></g><g class="cls-2"><polygon class="cls-19" points="633.1 682.75 677.41 657 677.55 607.79 633.24 633.54 633.1 682.75"/><polygon class="cls-20" points="633.24 633.54 677.55 607.79 634.75 583.08 590.44 608.83 633.24 633.54"/><polygon class="cls-21" points="590.44 608.83 590.3 658.03 633.1 682.75 633.24 633.54 590.44 608.83"/></g><g class="cls-2"><g class="cls-30"><polyline class="cls-23" points="612.72 595.98 616.13 594.01 658.79 618.81 655.39 620.77 612.72 595.98"/></g></g><g class="cls-2"><g class="cls-31"><polyline class="cls-23" points="655.38 620.68 658.8 618.71 658.82 624.65 655.39 626.63 655.38 620.68"/></g></g><polygon class="cls-17" points="324.5 811.76 350.89 795.97 782.34 1045.08 755.56 1060.63 324.5 811.76"/><path class="cls-8" d="M480.83,792.64v32.13c0,1.75-2.67,3.17-6,3.17s-6-1.42-6-3.17V792.64Z"/><path class="cls-8" d="M415.5,752.38v34.28c0,1.75-2.67,3.17-6,3.17s-6-1.42-6-3.17V752.38Z"/><path class="cls-8" d="M585.22,735V765c0,1.75-2.67,3.17-6,3.17s-6-1.42-6-3.17V735Z"/><path class="cls-32" d="M405.06,658.25l81.72-46.91a4.92,4.92,0,0,1,3.7-.7l.12-.14a11.68,11.68,0,0,1,7.75,2.58,30.85,30.85,0,0,1,6.31,7.09L493.83,629v44.84c0,5.17-3.18,11.24-7.05,13.48l-81.72,46.91c-3.87,2.24-7.05-.16-7.05-5.33v-57.2C398,666.55,401.19,660.49,405.06,658.25Z"/><path class="cls-33" d="M409.79,726.64a11.64,11.64,0,0,0,5.33,6.25c6.85,4,10.05,3.05,10.05,3.05l.83-13.51-12.13-3.19Z"/><path class="cls-34" d="M416.5,741.19l81.71-46.91c3.88-2.24,7.05-8.3,7.05-13.47v-57.2c0-5.17-3.17-7.57-7.05-5.33L416.5,665.2c-3.88,2.23-7.05,8.3-7.05,13.47v57.19C409.45,741,412.62,743.43,416.5,741.19Z"/><path class="cls-35" d="M503.19,632.45a28.9,28.9,0,0,1,6-6.71,11,11,0,0,1,7.33-2.44l.12.13a4.67,4.67,0,0,1,3.5.66L587,662.71c3.67,2.12,6.67,7.86,6.67,12.75v54.1a7.91,7.91,0,0,1-.75,3.57l0,0a11.06,11.06,0,0,1-5,5.92c-6.47,3.75-9.5,2.89-9.5,2.89l-.78-12.79L520.1,696c-3.67-2.11-6.67-7.85-6.67-12.74V640.82Z"/><path class="cls-32" d="M576.18,741.17l-66.9-38.62c-3.67-2.11-6.67-7.85-6.67-12.74V635.7c0-4.89,3-7.16,6.67-5l66.9,38.62c3.66,2.12,6.67,7.85,6.67,12.75v54.1C582.85,741,579.84,743.29,576.18,741.17Z"/><path class="cls-34" d="M417.92,742.71l71.32-45.63c3.73-2.15,10.3-1.88,14.6.61l49.83,28.76,21.93-10.53c4.41,4.32,3.9,12.06,3.9,19.11s-2.17,8.83-5.7,10.87L499,789.54c-3.73,2.15-10.3,1.88-14.6-.61L419,751.14C414.66,748.65,414.19,744.86,417.92,742.71Z"/><path class="cls-36" d="M573.8,721.73,499,765.37c-3.73,2.15-10.3,1.88-14.6-.6L419,727c-4.31-2.48-4.78-6.28-1.05-8.43l74.76-43.64c3.73-2.15,10.3-1.88,14.6.61l65.47,37.79C577.06,715.79,577.53,719.58,573.8,721.73Z"/><path class="cls-35" d="M398.76,693.62a29.19,29.19,0,0,1,6-6.71,11.07,11.07,0,0,1,7.34-2.44l.11.14a4.64,4.64,0,0,1,3.51.65l66.89,38.63c3.67,2.11,6.67,7.85,6.67,12.74v54.11a8,8,0,0,1-.75,3.56l0,0a11.06,11.06,0,0,1-5.05,5.91C477,804,474,803.14,474,803.14l-.78-12.79h0l-57.49-33.19C412,755,409,749.3,409,744.41V702Z"/><path class="cls-34" d="M471.75,802.35l-66.89-38.62c-3.67-2.12-6.67-7.86-6.67-12.75V696.87c0-4.89,3-7.16,6.67-5l66.89,38.62c3.67,2.12,6.67,7.86,6.67,12.75v54.1C478.42,802.2,475.42,804.47,471.75,802.35Z"/><line class="cls-37" x1="355.62" y1="803.21" x2="341.07" y2="811.61"/><line class="cls-37" x1="357.83" y1="804.48" x2="349.56" y2="809.26"/><line class="cls-37" x1="360.04" y1="805.76" x2="351.77" y2="810.53"/><line class="cls-37" x1="362.25" y1="807.03" x2="353.97" y2="811.81"/><line class="cls-37" x1="364.46" y1="808.31" x2="356.18" y2="813.08"/><line class="cls-37" x1="366.67" y1="809.58" x2="358.39" y2="814.36"/><line class="cls-37" x1="368.88" y1="810.86" x2="360.6" y2="815.64"/><line class="cls-37" x1="371.09" y1="812.13" x2="362.81" y2="816.91"/><line class="cls-37" x1="388.71" y1="822.4" x2="380.44" y2="827.17"/><line class="cls-37" x1="386.5" y1="821.12" x2="378.23" y2="825.9"/><line class="cls-37" x1="384.29" y1="819.85" x2="376.02" y2="824.62"/><line class="cls-37" x1="382.08" y1="818.57" x2="373.81" y2="823.35"/><line class="cls-37" x1="379.87" y1="817.29" x2="371.6" y2="822.07"/><line class="cls-37" x1="377.67" y1="816.02" x2="369.39" y2="820.8"/><line class="cls-37" x1="375.46" y1="814.74" x2="367.18" y2="819.52"/><line class="cls-37" x1="373.3" y1="813.41" x2="363.03" y2="819.34"/><line class="cls-37" x1="391" y1="823.63" x2="376.44" y2="832.03"/><line class="cls-37" x1="393.21" y1="824.9" x2="384.93" y2="829.68"/><line class="cls-37" x1="395.41" y1="826.18" x2="387.14" y2="830.96"/><line class="cls-37" x1="397.62" y1="827.46" x2="389.35" y2="832.23"/><line class="cls-37" x1="399.83" y1="828.73" x2="391.56" y2="833.51"/><line class="cls-37" x1="402.04" y1="830.01" x2="393.77" y2="834.78"/><line class="cls-37" x1="404.25" y1="831.28" x2="395.98" y2="836.06"/><line class="cls-37" x1="406.46" y1="832.56" x2="398.19" y2="837.34"/><line class="cls-37" x1="424.09" y1="842.82" x2="415.81" y2="847.6"/><line class="cls-37" x1="421.88" y1="841.54" x2="413.6" y2="846.32"/><line class="cls-37" x1="419.67" y1="840.27" x2="411.39" y2="845.05"/><line class="cls-37" x1="417.46" y1="838.99" x2="409.18" y2="843.77"/><line class="cls-37" x1="415.25" y1="837.72" x2="406.97" y2="842.49"/><line class="cls-37" x1="413.04" y1="836.44" x2="404.76" y2="841.22"/><line class="cls-37" x1="410.83" y1="835.17" x2="402.56" y2="839.94"/><line class="cls-37" x1="408.67" y1="833.83" x2="398.4" y2="839.76"/><line class="cls-37" x1="426.37" y1="844.05" x2="411.81" y2="852.46"/><line class="cls-37" x1="428.58" y1="845.33" x2="420.3" y2="850.11"/><line class="cls-37" x1="430.79" y1="846.6" x2="422.51" y2="851.38"/><line class="cls-37" x1="433" y1="847.88" x2="424.72" y2="852.66"/><line class="cls-37" x1="435.21" y1="849.15" x2="426.93" y2="853.93"/><line class="cls-37" x1="437.42" y1="850.43" x2="429.14" y2="855.21"/><line class="cls-37" x1="439.63" y1="851.71" x2="431.35" y2="856.48"/><line class="cls-37" x1="441.84" y1="852.98" x2="433.56" y2="857.76"/><line class="cls-37" x1="459.46" y1="863.24" x2="451.19" y2="868.02"/><line class="cls-37" x1="457.25" y1="861.97" x2="448.98" y2="866.75"/><line class="cls-37" x1="455.04" y1="860.69" x2="446.77" y2="865.47"/><line class="cls-37" x1="452.83" y1="859.42" x2="444.56" y2="864.19"/><line class="cls-37" x1="450.62" y1="858.14" x2="442.35" y2="862.92"/><line class="cls-37" x1="448.41" y1="856.87" x2="440.14" y2="861.64"/><line class="cls-37" x1="446.2" y1="855.59" x2="437.93" y2="860.37"/><line class="cls-37" x1="444.04" y1="854.26" x2="433.78" y2="860.19"/><line class="cls-37" x1="461.74" y1="864.48" x2="447.19" y2="872.88"/><line class="cls-37" x1="463.95" y1="865.75" x2="455.68" y2="870.53"/><line class="cls-37" x1="466.16" y1="867.03" x2="457.89" y2="871.8"/><line class="cls-37" x1="468.37" y1="868.3" x2="460.1" y2="873.08"/><line class="cls-37" x1="470.58" y1="869.58" x2="462.31" y2="874.36"/><line class="cls-37" x1="472.79" y1="870.85" x2="464.52" y2="875.63"/><line class="cls-37" x1="475" y1="872.13" x2="466.73" y2="876.91"/><line class="cls-37" x1="477.21" y1="873.4" x2="468.94" y2="878.18"/><line class="cls-37" x1="494.83" y1="883.67" x2="486.56" y2="888.44"/><line class="cls-37" x1="492.63" y1="882.39" x2="484.35" y2="887.17"/><line class="cls-37" x1="490.42" y1="881.12" x2="482.14" y2="885.89"/><line class="cls-37" x1="488.21" y1="879.84" x2="479.93" y2="884.62"/><line class="cls-37" x1="486" y1="878.56" x2="477.72" y2="883.34"/><line class="cls-37" x1="483.79" y1="877.29" x2="475.51" y2="882.07"/><line class="cls-37" x1="481.58" y1="876.01" x2="473.3" y2="880.79"/><line class="cls-37" x1="479.42" y1="874.68" x2="469.15" y2="880.61"/><line class="cls-37" x1="497.12" y1="884.9" x2="482.56" y2="893.3"/><line class="cls-37" x1="499.33" y1="886.17" x2="491.05" y2="890.95"/><line class="cls-37" x1="501.54" y1="887.45" x2="493.26" y2="892.23"/><line class="cls-37" x1="503.75" y1="888.73" x2="495.47" y2="893.5"/><line class="cls-37" x1="505.96" y1="890" x2="497.68" y2="894.78"/><line class="cls-37" x1="508.17" y1="891.28" x2="499.89" y2="896.05"/><line class="cls-37" x1="510.37" y1="892.55" x2="502.1" y2="897.33"/><line class="cls-37" x1="512.58" y1="893.83" x2="504.31" y2="898.61"/><line class="cls-37" x1="530.21" y1="904.09" x2="521.93" y2="908.87"/><line class="cls-37" x1="528" y1="902.81" x2="519.73" y2="907.59"/><line class="cls-37" x1="525.79" y1="901.54" x2="517.52" y2="906.32"/><line class="cls-37" x1="523.58" y1="900.26" x2="515.31" y2="905.04"/><line class="cls-37" x1="521.37" y1="898.99" x2="513.1" y2="903.77"/><line class="cls-37" x1="519.16" y1="897.71" x2="510.89" y2="902.49"/><line class="cls-37" x1="516.95" y1="896.44" x2="508.68" y2="901.21"/><line class="cls-37" x1="514.79" y1="895.1" x2="504.52" y2="901.03"/><line class="cls-37" x1="532.49" y1="905.32" x2="517.94" y2="913.73"/><line class="cls-37" x1="534.7" y1="906.6" x2="526.43" y2="911.38"/><line class="cls-37" x1="536.91" y1="907.87" x2="528.64" y2="912.65"/><line class="cls-37" x1="539.12" y1="909.15" x2="530.85" y2="913.93"/><line class="cls-37" x1="541.33" y1="910.42" x2="533.06" y2="915.2"/><line class="cls-37" x1="543.54" y1="911.7" x2="535.27" y2="916.48"/><line class="cls-37" x1="545.75" y1="912.98" x2="537.47" y2="917.75"/><line class="cls-37" x1="547.96" y1="914.25" x2="539.68" y2="919.03"/><line class="cls-37" x1="565.58" y1="924.51" x2="557.31" y2="929.29"/><line class="cls-37" x1="563.37" y1="923.24" x2="555.1" y2="928.02"/><line class="cls-37" x1="561.16" y1="921.96" x2="552.89" y2="926.74"/><line class="cls-37" x1="558.96" y1="920.69" x2="550.68" y2="925.46"/><line class="cls-37" x1="556.75" y1="919.41" x2="548.47" y2="924.19"/><line class="cls-37" x1="554.54" y1="918.14" x2="546.26" y2="922.91"/><line class="cls-37" x1="552.33" y1="916.86" x2="544.05" y2="921.64"/><line class="cls-37" x1="550.17" y1="915.53" x2="539.9" y2="921.46"/><line class="cls-37" x1="567.87" y1="925.75" x2="553.31" y2="934.15"/><line class="cls-37" x1="570.08" y1="927.02" x2="561.8" y2="931.8"/><line class="cls-37" x1="572.29" y1="928.3" x2="564.01" y2="933.07"/><line class="cls-37" x1="574.5" y1="929.57" x2="566.22" y2="934.35"/><line class="cls-37" x1="576.71" y1="930.85" x2="568.43" y2="935.63"/><line class="cls-37" x1="578.91" y1="932.12" x2="570.64" y2="936.9"/><line class="cls-37" x1="581.12" y1="933.4" x2="572.85" y2="938.18"/><line class="cls-37" x1="583.33" y1="934.67" x2="575.06" y2="939.45"/><line class="cls-37" x1="600.96" y1="944.94" x2="592.68" y2="949.71"/><line class="cls-37" x1="598.75" y1="943.66" x2="590.47" y2="948.44"/><line class="cls-37" x1="596.54" y1="942.39" x2="588.26" y2="947.16"/><line class="cls-37" x1="594.33" y1="941.11" x2="586.06" y2="945.89"/><line class="cls-37" x1="592.12" y1="939.83" x2="583.85" y2="944.61"/><line class="cls-37" x1="589.91" y1="938.56" x2="581.64" y2="943.34"/><line class="cls-37" x1="587.7" y1="937.28" x2="579.43" y2="942.06"/><line class="cls-37" x1="585.54" y1="935.95" x2="575.27" y2="941.88"/><line class="cls-37" x1="603.24" y1="946.17" x2="588.69" y2="954.57"/><line class="cls-37" x1="605.45" y1="947.44" x2="597.18" y2="952.22"/><line class="cls-37" x1="607.66" y1="948.72" x2="599.39" y2="953.5"/><line class="cls-37" x1="609.87" y1="950" x2="601.6" y2="954.77"/><line class="cls-37" x1="612.08" y1="951.27" x2="603.8" y2="956.05"/><line class="cls-37" x1="614.29" y1="952.55" x2="606.01" y2="957.32"/><line class="cls-37" x1="616.5" y1="953.82" x2="608.22" y2="958.6"/><line class="cls-37" x1="618.71" y1="955.1" x2="610.43" y2="959.88"/><line class="cls-37" x1="636.33" y1="965.36" x2="628.06" y2="970.14"/><line class="cls-37" x1="634.12" y1="964.08" x2="625.85" y2="968.86"/><line class="cls-37" x1="631.91" y1="962.81" x2="623.64" y2="967.59"/><line class="cls-37" x1="629.7" y1="961.53" x2="621.43" y2="966.31"/><line class="cls-37" x1="627.5" y1="960.26" x2="619.22" y2="965.04"/><line class="cls-37" x1="625.29" y1="958.98" x2="617.01" y2="963.76"/><line class="cls-37" x1="623.08" y1="957.71" x2="614.8" y2="962.48"/><line class="cls-37" x1="620.92" y1="956.37" x2="610.65" y2="962.3"/><line class="cls-37" x1="638.62" y1="966.59" x2="624.06" y2="975"/><line class="cls-37" x1="640.83" y1="967.87" x2="632.55" y2="972.65"/><line class="cls-37" x1="643.04" y1="969.14" x2="634.76" y2="973.92"/><line class="cls-37" x1="645.24" y1="970.42" x2="636.97" y2="975.2"/><line class="cls-37" x1="647.45" y1="971.69" x2="639.18" y2="976.47"/><line class="cls-37" x1="649.66" y1="972.97" x2="641.39" y2="977.75"/><line class="cls-37" x1="651.87" y1="974.25" x2="643.6" y2="979.02"/><line class="cls-37" x1="654.08" y1="975.52" x2="645.81" y2="980.3"/><line class="cls-37" x1="671.71" y1="985.78" x2="663.43" y2="990.56"/><line class="cls-37" x1="669.5" y1="984.51" x2="661.22" y2="989.29"/><line class="cls-37" x1="667.29" y1="983.23" x2="659.01" y2="988.01"/><line class="cls-37" x1="665.08" y1="981.96" x2="656.8" y2="986.73"/><line class="cls-37" x1="662.87" y1="980.68" x2="654.59" y2="985.46"/><line class="cls-37" x1="660.66" y1="979.41" x2="652.39" y2="984.18"/><line class="cls-37" x1="658.45" y1="978.13" x2="650.18" y2="982.91"/><line class="cls-37" x1="656.29" y1="976.8" x2="646.02" y2="982.73"/><line class="cls-37" x1="673.99" y1="987.02" x2="659.44" y2="995.42"/><line class="cls-37" x1="676.2" y1="988.29" x2="667.93" y2="993.07"/><line class="cls-37" x1="678.41" y1="989.57" x2="670.13" y2="994.34"/><line class="cls-37" x1="680.62" y1="990.84" x2="672.34" y2="995.62"/><line class="cls-37" x1="682.83" y1="992.12" x2="674.55" y2="996.9"/><line class="cls-37" x1="685.04" y1="993.39" x2="676.76" y2="998.17"/><line class="cls-37" x1="687.25" y1="994.67" x2="678.97" y2="999.45"/><line class="cls-37" x1="689.46" y1="995.94" x2="681.18" y2="1000.72"/><line class="cls-37" x1="707.08" y1="1006.21" x2="698.81" y2="1010.98"/><line class="cls-37" x1="704.87" y1="1004.93" x2="696.6" y2="1009.71"/><line class="cls-37" x1="702.66" y1="1003.66" x2="694.39" y2="1008.43"/><line class="cls-37" x1="700.45" y1="1002.38" x2="692.18" y2="1007.16"/><line class="cls-37" x1="698.24" y1="1001.1" x2="689.97" y2="1005.88"/><line class="cls-37" x1="696.03" y1="999.83" x2="687.76" y2="1004.61"/><line class="cls-37" x1="693.83" y1="998.55" x2="685.55" y2="1003.33"/><line class="cls-37" x1="691.67" y1="997.22" x2="681.4" y2="1003.15"/><line class="cls-37" x1="709.37" y1="1007.44" x2="694.81" y2="1015.84"/><line class="cls-37" x1="711.57" y1="1008.71" x2="703.3" y2="1013.49"/><line class="cls-37" x1="713.78" y1="1009.99" x2="705.51" y2="1014.77"/><line class="cls-37" x1="715.99" y1="1011.27" x2="707.72" y2="1016.04"/><line class="cls-37" x1="718.2" y1="1012.54" x2="709.93" y2="1017.32"/><line class="cls-37" x1="720.41" y1="1013.82" x2="712.14" y2="1018.59"/><line class="cls-37" x1="722.62" y1="1015.09" x2="714.35" y2="1019.87"/><line class="cls-37" x1="724.83" y1="1016.37" x2="716.56" y2="1021.15"/><line class="cls-37" x1="742.46" y1="1026.63" x2="734.18" y2="1031.41"/><line class="cls-37" x1="740.25" y1="1025.35" x2="731.97" y2="1030.13"/><line class="cls-37" x1="738.04" y1="1024.08" x2="729.76" y2="1028.86"/><line class="cls-37" x1="735.83" y1="1022.8" x2="727.55" y2="1027.58"/><line class="cls-37" x1="733.62" y1="1021.53" x2="725.34" y2="1026.31"/><line class="cls-37" x1="731.41" y1="1020.25" x2="723.13" y2="1025.03"/><line class="cls-37" x1="729.2" y1="1018.98" x2="720.92" y2="1023.75"/><line class="cls-37" x1="727.04" y1="1017.64" x2="716.77" y2="1023.57"/><line class="cls-37" x1="744.74" y1="1027.86" x2="730.18" y2="1036.27"/><line class="cls-37" x1="746.95" y1="1029.14" x2="738.67" y2="1033.92"/><line class="cls-37" x1="749.16" y1="1030.41" x2="740.88" y2="1035.19"/><line class="cls-37" x1="751.37" y1="1031.69" x2="743.09" y2="1036.47"/><line class="cls-37" x1="753.58" y1="1032.96" x2="745.3" y2="1037.74"/><line class="cls-37" x1="755.79" y1="1034.24" x2="747.51" y2="1039.02"/><line class="cls-37" x1="758" y1="1035.52" x2="749.72" y2="1040.29"/><line class="cls-37" x1="760.2" y1="1036.79" x2="751.93" y2="1041.57"/><line class="cls-37" x1="777.83" y1="1047.05" x2="769.56" y2="1051.83"/><line class="cls-37" x1="775.62" y1="1045.78" x2="767.35" y2="1050.56"/><line class="cls-37" x1="773.41" y1="1044.5" x2="765.14" y2="1049.28"/><line class="cls-37" x1="771.2" y1="1043.23" x2="762.93" y2="1048"/><line class="cls-37" x1="768.99" y1="1041.95" x2="760.72" y2="1046.73"/><line class="cls-37" x1="766.78" y1="1040.68" x2="758.51" y2="1045.45"/><line class="cls-37" x1="764.57" y1="1039.4" x2="756.3" y2="1044.18"/><line class="cls-37" x1="762.41" y1="1038.07" x2="752.15" y2="1044"/><line class="cls-37" x1="780.11" y1="1048.29" x2="765.56" y2="1056.69"/><polygon class="cls-17" points="1290.65 750.86 1262.21 734.44 725.74 1043.41 755.56 1060.63 1290.65 750.86"/><line class="cls-37" x1="1264.2" y1="738.28" x2="1278.75" y2="746.68"/><line class="cls-37" x1="1261.99" y1="739.55" x2="1270.26" y2="744.33"/><line class="cls-37" x1="1259.78" y1="740.83" x2="1268.05" y2="745.61"/><line class="cls-37" x1="1257.57" y1="742.1" x2="1265.84" y2="746.88"/><line class="cls-37" x1="1255.36" y1="743.38" x2="1263.63" y2="748.16"/><line class="cls-37" x1="1253.15" y1="744.66" x2="1261.42" y2="749.43"/><line class="cls-37" x1="1250.94" y1="745.93" x2="1259.21" y2="750.71"/><line class="cls-37" x1="1248.73" y1="747.21" x2="1257.01" y2="751.98"/><line class="cls-37" x1="1231.11" y1="757.47" x2="1239.38" y2="762.25"/><line class="cls-37" x1="1233.32" y1="756.19" x2="1241.59" y2="760.97"/><line class="cls-37" x1="1235.52" y1="754.92" x2="1243.8" y2="759.69"/><line class="cls-37" x1="1237.73" y1="753.64" x2="1246.01" y2="758.42"/><line class="cls-37" x1="1239.94" y1="752.37" x2="1248.22" y2="757.14"/><line class="cls-37" x1="1242.15" y1="751.09" x2="1250.43" y2="755.87"/><line class="cls-37" x1="1244.36" y1="749.82" x2="1252.64" y2="754.59"/><line class="cls-37" x1="1246.52" y1="748.48" x2="1256.79" y2="754.41"/><line class="cls-37" x1="1228.82" y1="758.7" x2="1243.38" y2="767.1"/><line class="cls-37" x1="1226.61" y1="759.98" x2="1234.89" y2="764.75"/><line class="cls-37" x1="1224.4" y1="761.25" x2="1232.68" y2="766.03"/><line class="cls-37" x1="1222.19" y1="762.53" x2="1230.47" y2="767.31"/><line class="cls-37" x1="1219.98" y1="763.8" x2="1228.26" y2="768.58"/><line class="cls-37" x1="1217.78" y1="765.08" x2="1226.05" y2="769.86"/><line class="cls-37" x1="1215.57" y1="766.35" x2="1223.84" y2="771.13"/><line class="cls-37" x1="1213.36" y1="767.63" x2="1221.63" y2="772.41"/><line class="cls-37" x1="1195.73" y1="777.89" x2="1204.01" y2="782.67"/><line class="cls-37" x1="1197.94" y1="776.62" x2="1206.22" y2="781.39"/><line class="cls-37" x1="1200.15" y1="775.34" x2="1208.42" y2="780.12"/><line class="cls-37" x1="1202.36" y1="774.07" x2="1210.63" y2="778.84"/><line class="cls-37" x1="1204.57" y1="772.79" x2="1212.84" y2="777.57"/><line class="cls-37" x1="1206.78" y1="771.51" x2="1215.05" y2="776.29"/><line class="cls-37" x1="1208.99" y1="770.24" x2="1217.26" y2="775.02"/><line class="cls-37" x1="1211.15" y1="768.91" x2="1221.42" y2="774.83"/><line class="cls-37" x1="1193.45" y1="779.12" x2="1208" y2="787.53"/><line class="cls-37" x1="1191.24" y1="780.4" x2="1199.51" y2="785.18"/><line class="cls-37" x1="1189.03" y1="781.68" x2="1197.3" y2="786.45"/><line class="cls-37" x1="1186.82" y1="782.95" x2="1195.09" y2="787.73"/><line class="cls-37" x1="1184.61" y1="784.23" x2="1192.88" y2="789"/><line class="cls-37" x1="1182.4" y1="785.5" x2="1190.68" y2="790.28"/><line class="cls-37" x1="1180.19" y1="786.78" x2="1188.47" y2="791.56"/><line class="cls-37" x1="1177.98" y1="788.05" x2="1186.26" y2="792.83"/><line class="cls-37" x1="1160.36" y1="798.32" x2="1168.63" y2="803.09"/><line class="cls-37" x1="1162.57" y1="797.04" x2="1170.84" y2="801.82"/><line class="cls-37" x1="1164.78" y1="795.76" x2="1173.05" y2="800.54"/><line class="cls-37" x1="1166.99" y1="794.49" x2="1175.26" y2="799.27"/><line class="cls-37" x1="1169.19" y1="793.21" x2="1177.47" y2="797.99"/><line class="cls-37" x1="1171.4" y1="791.94" x2="1179.68" y2="796.72"/><line class="cls-37" x1="1173.61" y1="790.66" x2="1181.89" y2="795.44"/><line class="cls-37" x1="1175.77" y1="789.33" x2="1186.04" y2="795.26"/><line class="cls-37" x1="1158.07" y1="799.55" x2="1172.63" y2="807.95"/><line class="cls-37" x1="1155.86" y1="800.82" x2="1164.14" y2="805.6"/><line class="cls-37" x1="1153.65" y1="802.1" x2="1161.93" y2="806.88"/><line class="cls-37" x1="1151.44" y1="803.37" x2="1159.72" y2="808.15"/><line class="cls-37" x1="1149.24" y1="804.65" x2="1157.51" y2="809.43"/><line class="cls-37" x1="1147.03" y1="805.93" x2="1155.3" y2="810.7"/><line class="cls-37" x1="1144.82" y1="807.2" x2="1153.09" y2="811.98"/><line class="cls-37" x1="1142.61" y1="808.48" x2="1150.88" y2="813.25"/><line class="cls-37" x1="1124.98" y1="818.74" x2="1133.26" y2="823.52"/><line class="cls-37" x1="1127.19" y1="817.46" x2="1135.47" y2="822.24"/><line class="cls-37" x1="1129.4" y1="816.19" x2="1137.68" y2="820.97"/><line class="cls-37" x1="1131.61" y1="814.91" x2="1139.89" y2="819.69"/><line class="cls-37" x1="1133.82" y1="813.64" x2="1142.09" y2="818.41"/><line class="cls-37" x1="1136.03" y1="812.36" x2="1144.3" y2="817.14"/><line class="cls-37" x1="1138.24" y1="811.09" x2="1146.51" y2="815.86"/><line class="cls-37" x1="1140.4" y1="809.75" x2="1150.67" y2="815.68"/><line class="cls-37" x1="1122.7" y1="819.97" x2="1137.25" y2="828.37"/><line class="cls-37" x1="1120.49" y1="821.25" x2="1128.76" y2="826.02"/><line class="cls-37" x1="1118.28" y1="822.52" x2="1126.55" y2="827.3"/><line class="cls-37" x1="1116.07" y1="823.8" x2="1124.35" y2="828.58"/><line class="cls-37" x1="1113.86" y1="825.07" x2="1122.14" y2="829.85"/><line class="cls-37" x1="1111.65" y1="826.35" x2="1119.93" y2="831.13"/><line class="cls-37" x1="1109.44" y1="827.62" x2="1117.72" y2="832.4"/><line class="cls-37" x1="1107.23" y1="828.9" x2="1115.51" y2="833.68"/><line class="cls-37" x1="1089.61" y1="839.16" x2="1097.88" y2="843.94"/><line class="cls-37" x1="1091.82" y1="837.89" x2="1100.09" y2="842.66"/><line class="cls-37" x1="1094.03" y1="836.61" x2="1102.3" y2="841.39"/><line class="cls-37" x1="1096.24" y1="835.34" x2="1104.51" y2="840.11"/><line class="cls-37" x1="1098.45" y1="834.06" x2="1106.72" y2="838.84"/><line class="cls-37" x1="1100.65" y1="832.78" x2="1108.93" y2="837.56"/><line class="cls-37" x1="1102.86" y1="831.51" x2="1111.14" y2="836.29"/><line class="cls-37" x1="1105.02" y1="830.18" x2="1115.29" y2="836.1"/><line class="cls-37" x1="1087.32" y1="840.39" x2="1101.88" y2="848.8"/><line class="cls-37" x1="1085.11" y1="841.67" x2="1093.39" y2="846.45"/><line class="cls-37" x1="1082.91" y1="842.95" x2="1091.18" y2="847.72"/><line class="cls-37" x1="1080.7" y1="844.22" x2="1088.97" y2="849"/><line class="cls-37" x1="1078.49" y1="845.5" x2="1086.76" y2="850.27"/><line class="cls-37" x1="1076.28" y1="846.77" x2="1084.55" y2="851.55"/><line class="cls-37" x1="1074.07" y1="848.05" x2="1082.34" y2="852.83"/><line class="cls-37" x1="1071.86" y1="849.32" x2="1080.13" y2="854.1"/><line class="cls-37" x1="1054.23" y1="859.59" x2="1062.51" y2="864.36"/><line class="cls-37" x1="1056.44" y1="858.31" x2="1064.72" y2="863.09"/><line class="cls-37" x1="1058.65" y1="857.03" x2="1066.93" y2="861.81"/><line class="cls-37" x1="1060.86" y1="855.76" x2="1069.14" y2="860.54"/><line class="cls-37" x1="1063.07" y1="854.48" x2="1071.35" y2="859.26"/><line class="cls-37" x1="1065.28" y1="853.21" x2="1073.56" y2="857.99"/><line class="cls-37" x1="1067.49" y1="851.93" x2="1075.76" y2="856.71"/><line class="cls-37" x1="1069.65" y1="850.6" x2="1079.92" y2="856.53"/><line class="cls-37" x1="1051.95" y1="860.82" x2="1066.51" y2="869.22"/><line class="cls-37" x1="1049.74" y1="862.09" x2="1058.02" y2="866.87"/><line class="cls-37" x1="1047.53" y1="863.37" x2="1055.81" y2="868.15"/><line class="cls-37" x1="1045.32" y1="864.64" x2="1053.6" y2="869.42"/><line class="cls-37" x1="1043.11" y1="865.92" x2="1051.39" y2="870.7"/><line class="cls-37" x1="1040.9" y1="867.2" x2="1049.18" y2="871.97"/><line class="cls-37" x1="1038.69" y1="868.47" x2="1046.97" y2="873.25"/><line class="cls-37" x1="1036.48" y1="869.75" x2="1044.76" y2="874.52"/><line class="cls-37" x1="1018.86" y1="880.01" x2="1027.13" y2="884.79"/><line class="cls-37" x1="1021.07" y1="878.73" x2="1029.34" y2="883.51"/><line class="cls-37" x1="1023.28" y1="877.46" x2="1031.55" y2="882.24"/><line class="cls-37" x1="1025.49" y1="876.18" x2="1033.76" y2="880.96"/><line class="cls-37" x1="1027.7" y1="874.91" x2="1035.97" y2="879.68"/><line class="cls-37" x1="1029.91" y1="873.63" x2="1038.18" y2="878.41"/><line class="cls-37" x1="1032.12" y1="872.36" x2="1040.39" y2="877.13"/><line class="cls-37" x1="1034.28" y1="871.02" x2="1044.54" y2="876.95"/><line class="cls-37" x1="1016.58" y1="881.24" x2="1031.13" y2="889.65"/><line class="cls-37" x1="1014.37" y1="882.52" x2="1022.64" y2="887.29"/><line class="cls-37" x1="1012.16" y1="883.79" x2="1020.43" y2="888.57"/><line class="cls-37" x1="1009.95" y1="885.07" x2="1018.22" y2="889.85"/><line class="cls-37" x1="1007.74" y1="886.34" x2="1016.01" y2="891.12"/><line class="cls-37" x1="1005.53" y1="887.62" x2="1013.8" y2="892.4"/><line class="cls-37" x1="1003.32" y1="888.89" x2="1011.59" y2="893.67"/><line class="cls-37" x1="1001.11" y1="890.17" x2="1009.38" y2="894.95"/><line class="cls-37" x1="983.49" y1="900.43" x2="991.76" y2="905.21"/><line class="cls-37" x1="985.69" y1="899.16" x2="993.97" y2="903.93"/><line class="cls-37" x1="987.9" y1="897.88" x2="996.18" y2="902.66"/><line class="cls-37" x1="990.11" y1="896.61" x2="998.39" y2="901.38"/><line class="cls-37" x1="992.32" y1="895.33" x2="1000.6" y2="900.11"/><line class="cls-37" x1="994.53" y1="894.05" x2="1002.81" y2="898.83"/><line class="cls-37" x1="996.74" y1="892.78" x2="1005.02" y2="897.56"/><line class="cls-37" x1="998.9" y1="891.45" x2="1009.17" y2="897.37"/><line class="cls-37" x1="981.2" y1="901.66" x2="995.76" y2="910.07"/><line class="cls-37" x1="978.99" y1="902.94" x2="987.27" y2="907.72"/><line class="cls-37" x1="976.78" y1="904.22" x2="985.06" y2="908.99"/><line class="cls-37" x1="974.57" y1="905.49" x2="982.85" y2="910.27"/><line class="cls-37" x1="972.36" y1="906.77" x2="980.64" y2="911.54"/><line class="cls-37" x1="970.15" y1="908.04" x2="978.43" y2="912.82"/><line class="cls-37" x1="967.95" y1="909.32" x2="976.22" y2="914.1"/><line class="cls-37" x1="965.74" y1="910.59" x2="974.01" y2="915.37"/><line class="cls-37" x1="948.11" y1="920.86" x2="956.39" y2="925.63"/><line class="cls-37" x1="950.32" y1="919.58" x2="958.59" y2="924.36"/><line class="cls-37" x1="952.53" y1="918.3" x2="960.8" y2="923.08"/><line class="cls-37" x1="954.74" y1="917.03" x2="963.01" y2="921.81"/><line class="cls-37" x1="956.95" y1="915.75" x2="965.22" y2="920.53"/><line class="cls-37" x1="959.16" y1="914.48" x2="967.43" y2="919.26"/><line class="cls-37" x1="961.37" y1="913.2" x2="969.64" y2="917.98"/><line class="cls-37" x1="963.53" y1="911.87" x2="973.8" y2="917.8"/><line class="cls-37" x1="945.83" y1="922.09" x2="960.38" y2="930.49"/><line class="cls-37" x1="943.62" y1="923.36" x2="951.89" y2="928.14"/><line class="cls-37" x1="941.41" y1="924.64" x2="949.68" y2="929.42"/><line class="cls-37" x1="939.2" y1="925.91" x2="947.47" y2="930.69"/><line class="cls-37" x1="936.99" y1="927.19" x2="945.26" y2="931.97"/><line class="cls-37" x1="934.78" y1="928.47" x2="943.05" y2="933.24"/><line class="cls-37" x1="932.57" y1="929.74" x2="940.85" y2="934.52"/><line class="cls-37" x1="930.36" y1="931.02" x2="938.64" y2="935.79"/><line class="cls-37" x1="912.74" y1="941.28" x2="921.01" y2="946.06"/><line class="cls-37" x1="914.95" y1="940" x2="923.22" y2="944.78"/><line class="cls-37" x1="917.16" y1="938.73" x2="925.43" y2="943.51"/><line class="cls-37" x1="919.36" y1="937.45" x2="927.64" y2="942.23"/><line class="cls-37" x1="921.57" y1="936.18" x2="929.85" y2="940.95"/><line class="cls-37" x1="923.78" y1="934.9" x2="932.06" y2="939.68"/><line class="cls-37" x1="925.99" y1="933.63" x2="934.27" y2="938.4"/><line class="cls-37" x1="928.15" y1="932.29" x2="938.42" y2="938.22"/><line class="cls-37" x1="910.45" y1="942.51" x2="925.01" y2="950.92"/><line class="cls-37" x1="908.24" y1="943.79" x2="916.52" y2="948.56"/><line class="cls-37" x1="906.03" y1="945.06" x2="914.31" y2="949.84"/><line class="cls-37" x1="903.82" y1="946.34" x2="912.1" y2="951.12"/><line class="cls-37" x1="901.61" y1="947.61" x2="909.89" y2="952.39"/><line class="cls-37" x1="899.41" y1="948.89" x2="907.68" y2="953.67"/><line class="cls-37" x1="897.2" y1="950.17" x2="905.47" y2="954.94"/><line class="cls-37" x1="894.99" y1="951.44" x2="903.26" y2="956.22"/><line class="cls-37" x1="877.36" y1="961.7" x2="885.64" y2="966.48"/><line class="cls-37" x1="879.57" y1="960.43" x2="887.85" y2="965.2"/><line class="cls-37" x1="881.78" y1="959.15" x2="890.06" y2="963.93"/><line class="cls-37" x1="883.99" y1="957.88" x2="892.26" y2="962.65"/><line class="cls-37" x1="886.2" y1="956.6" x2="894.47" y2="961.38"/><line class="cls-37" x1="888.41" y1="955.32" x2="896.68" y2="960.1"/><line class="cls-37" x1="890.62" y1="954.05" x2="898.89" y2="958.83"/><line class="cls-37" x1="892.78" y1="952.72" x2="903.05" y2="958.64"/><line class="cls-37" x1="875.08" y1="962.94" x2="889.63" y2="971.34"/><line class="cls-37" x1="872.87" y1="964.21" x2="881.14" y2="968.99"/><line class="cls-37" x1="870.66" y1="965.49" x2="878.93" y2="970.26"/><line class="cls-37" x1="868.45" y1="966.76" x2="876.72" y2="971.54"/><line class="cls-37" x1="866.24" y1="968.04" x2="874.52" y2="972.81"/><line class="cls-37" x1="864.03" y1="969.31" x2="872.31" y2="974.09"/><line class="cls-37" x1="861.82" y1="970.59" x2="870.1" y2="975.37"/><line class="cls-37" x1="859.61" y1="971.86" x2="867.89" y2="976.64"/><line class="cls-37" x1="841.99" y1="982.13" x2="850.26" y2="986.9"/><line class="cls-37" x1="844.2" y1="980.85" x2="852.47" y2="985.63"/><line class="cls-37" x1="846.41" y1="979.57" x2="854.68" y2="984.35"/><line class="cls-37" x1="848.62" y1="978.3" x2="856.89" y2="983.08"/><line class="cls-37" x1="850.82" y1="977.02" x2="859.1" y2="981.8"/><line class="cls-37" x1="853.03" y1="975.75" x2="861.31" y2="980.53"/><line class="cls-37" x1="855.24" y1="974.47" x2="863.52" y2="979.25"/><line class="cls-37" x1="857.4" y1="973.14" x2="867.67" y2="979.07"/><line class="cls-37" x1="839.7" y1="983.36" x2="854.26" y2="991.76"/><line class="cls-37" x1="837.49" y1="984.51" x2="845.77" y2="989.29"/><line class="cls-37" x1="835.28" y1="985.79" x2="843.56" y2="990.57"/><line class="cls-37" x1="833.08" y1="987.07" x2="841.35" y2="991.84"/><line class="cls-37" x1="830.87" y1="988.34" x2="839.14" y2="993.12"/><line class="cls-37" x1="828.66" y1="989.62" x2="836.93" y2="994.39"/><line class="cls-37" x1="826.45" y1="990.89" x2="834.72" y2="995.67"/><line class="cls-37" x1="824.24" y1="992.17" x2="832.51" y2="996.95"/><line class="cls-37" x1="806.61" y1="1002.43" x2="814.89" y2="1007.21"/><line class="cls-37" x1="808.82" y1="1001.15" x2="817.1" y2="1005.93"/><line class="cls-37" x1="811.03" y1="999.88" x2="819.31" y2="1004.66"/><line class="cls-37" x1="813.24" y1="998.6" x2="821.52" y2="1003.38"/><line class="cls-37" x1="815.45" y1="997.33" x2="823.73" y2="1002.11"/><line class="cls-37" x1="817.66" y1="996.05" x2="825.93" y2="1000.83"/><line class="cls-37" x1="819.87" y1="994.78" x2="828.14" y2="999.55"/><line class="cls-37" x1="822.03" y1="993.44" x2="832.3" y2="999.37"/><line class="cls-37" x1="804.33" y1="1003.66" x2="818.88" y2="1012.07"/><line class="cls-37" x1="802.12" y1="1004.82" x2="810.39" y2="1009.6"/><line class="cls-37" x1="799.91" y1="1006.09" x2="808.19" y2="1010.87"/><line class="cls-37" x1="797.7" y1="1007.37" x2="805.98" y2="1012.15"/><line class="cls-37" x1="795.49" y1="1008.65" x2="803.77" y2="1013.42"/><line class="cls-37" x1="793.28" y1="1009.92" x2="801.56" y2="1014.7"/><line class="cls-37" x1="791.07" y1="1011.2" x2="799.35" y2="1015.97"/><line class="cls-37" x1="788.86" y1="1012.47" x2="797.14" y2="1017.25"/><line class="cls-37" x1="771.24" y1="1022.73" x2="779.51" y2="1027.51"/><line class="cls-37" x1="773.45" y1="1021.46" x2="781.72" y2="1026.24"/><line class="cls-37" x1="775.66" y1="1020.18" x2="783.93" y2="1024.96"/><line class="cls-37" x1="777.87" y1="1018.91" x2="786.14" y2="1023.69"/><line class="cls-37" x1="780.08" y1="1017.63" x2="788.35" y2="1022.41"/><line class="cls-37" x1="782.29" y1="1016.36" x2="790.56" y2="1021.13"/><line class="cls-37" x1="784.49" y1="1015.08" x2="792.77" y2="1019.86"/><line class="cls-37" x1="786.65" y1="1013.75" x2="796.92" y2="1019.68"/><line class="cls-37" x1="768.95" y1="1023.97" x2="783.51" y2="1032.37"/><line class="cls-37" x1="766.75" y1="1025.12" x2="775.02" y2="1029.9"/><line class="cls-37" x1="764.54" y1="1026.4" x2="772.81" y2="1031.18"/><line class="cls-37" x1="762.33" y1="1027.67" x2="770.6" y2="1032.45"/><line class="cls-37" x1="760.12" y1="1028.95" x2="768.39" y2="1033.73"/><line class="cls-37" x1="757.91" y1="1030.23" x2="766.18" y2="1035"/><line class="cls-37" x1="755.7" y1="1031.5" x2="763.97" y2="1036.28"/><line class="cls-37" x1="753.49" y1="1032.78" x2="761.76" y2="1037.55"/><line class="cls-37" x1="735.86" y1="1043.04" x2="744.14" y2="1047.82"/><line class="cls-37" x1="738.07" y1="1041.76" x2="746.35" y2="1046.54"/><line class="cls-37" x1="740.28" y1="1040.49" x2="748.56" y2="1045.27"/><line class="cls-37" x1="742.49" y1="1039.21" x2="750.77" y2="1043.99"/><line class="cls-37" x1="744.7" y1="1037.94" x2="752.98" y2="1042.71"/><line class="cls-37" x1="746.91" y1="1036.66" x2="755.19" y2="1041.44"/><line class="cls-37" x1="749.12" y1="1035.39" x2="757.4" y2="1040.16"/><line class="cls-37" x1="751.28" y1="1034.05" x2="761.55" y2="1039.98"/><line class="cls-37" x1="733.58" y1="1044.27" x2="748.14" y2="1052.67"/><polygon class="cls-6" points="752.98 1027.86 725.74 1043.41 713.38 1036.28 740.86 1021.13 752.98 1027.86"/><polygon class="cls-6" points="426 646.23 437.42 653.19 437.42 680.29 448.41 672.81 448.41 700.87 504.66 732.83 550.03 706.59 486.56 675.13 448.11 633.54 426 646.23"/><polygon class="cls-6" points="925.55 653.81 914.01 659.85 921.04 664.1 932.83 657.75 925.55 653.81"/><g class="cls-38"><polygon points="898.99 641.6 830.01 681.54 819.94 674.74 888.92 634.8 898.99 641.6"/><polygon points="863.22 621.02 794.24 660.96 784.17 654.16 853.15 614.22 863.22 621.02"/><polygon points="827.45 600.45 758.47 640.38 748.4 633.58 817.38 593.64 827.45 600.45"/><polygon points="791.68 579.87 722.7 619.8 712.63 613 781.61 573.07 791.68 579.87"/></g><polygon class="cls-6" points="928.28 661.12 932.83 658.49 757.14 557.98 756.95 558.09 751.45 469.8 690.17 506.4 697.38 610.43 699.57 609.17 859.6 700.68 864.14 698.05 704.15 606.52 768.07 569.51 928.28 661.12"/><polygon class="cls-6" points="857.01 693.48 845.46 699.52 852.49 703.77 864.28 697.43 857.01 693.48"/><polygon class="cls-6" points="739.47 624.44 727.92 630.47 734.95 634.73 746.74 628.38 739.47 624.44"/><polygon class="cls-6" points="808.54 584.66 796.99 590.69 804.02 594.95 815.81 588.6 808.54 584.66"/><path class="cls-39" d="M883.08,441.67,806.29,595l5.51,3.19,75.7-154.06Z"/><polygon class="cls-40" points="891.97 441.47 816.33 595.57 811.79 598.21 887.43 444.15 891.97 441.47"/><polygon class="cls-41" points="891.97 441.47 887.49 439.24 883.08 441.66 887.47 444.15 891.97 441.47"/><polygon class="cls-40" points="778.28 566.84 778.28 570.12 849.2 528.74 849.2 525.46 778.28 566.84"/><polygon class="cls-42" points="778.28 566.84 778.28 570.12 774.21 567.77 774.21 564.49 778.28 566.84"/><polygon class="cls-41" points="849.2 525.46 778.28 566.84 774.21 564.49 845.13 523.11 849.2 525.46"/><path class="cls-39" d="M879.4,405.59l43.33,252.33,5.56,3.2-44.48-253Z"/><polygon class="cls-43" points="888.28 405.4 932.83 658.49 928.28 661.12 883.74 408.07 888.28 405.4"/><polygon class="cls-44" points="888.28 405.39 883.8 403.16 879.4 405.59 883.78 408.08 888.28 405.39"/><polygon class="cls-45" points="863.12 676.47 863.12 679.4 932.1 639.46 932.1 636.53 863.12 676.47"/><polygon points="863.12 676.47 863.12 679.4 845.2 669.05 845.2 666.12 863.12 676.47"/><polygon class="cls-46" points="932.1 636.53 863.12 676.47 845.2 666.12 914.18 626.18 932.1 636.53"/><polygon class="cls-45" points="855.8 634.07 855.8 637 924.78 597.07 924.78 594.13 855.8 634.07"/><polygon points="855.8 634.07 855.8 637 837.89 626.65 837.89 623.72 855.8 634.07"/><polygon class="cls-46" points="924.78 594.13 855.8 634.07 837.89 623.72 906.87 583.78 924.78 594.13"/><polygon class="cls-45" points="848.49 591.67 848.49 594.61 917.47 554.67 917.47 551.74 848.49 591.67"/><polygon points="848.49 591.67 848.49 594.61 830.58 584.25 830.58 581.32 848.49 591.67"/><polygon class="cls-46" points="917.47 551.74 848.49 591.67 830.58 581.32 899.56 541.39 917.47 551.74"/><polygon class="cls-45" points="841.18 549.27 841.18 552.21 910.16 512.27 910.16 509.34 841.18 549.27"/><polygon points="841.18 549.27 841.18 552.21 823.26 541.86 823.26 538.92 841.18 549.27"/><polygon class="cls-46" points="910.16 509.34 841.18 549.27 823.26 538.92 892.24 498.99 910.16 509.34"/><polygon class="cls-45" points="838.99 508.41 838.99 511.35 907.97 471.41 907.97 468.48 838.99 508.41"/><polygon points="838.99 508.41 838.99 511.35 800.59 489.12 800.59 486.19 838.99 508.41"/><polygon class="cls-46" points="907.97 468.48 838.99 508.41 800.59 486.19 869.57 446.25 907.97 468.48"/><polygon class="cls-41" points="823.28 481.03 818.8 478.8 814.4 481.23 818.78 483.72 823.28 481.03"/><path class="cls-39" d="M814.4,481.23,737.6,634.58l5.52,3.19,75.69-154.06Z"/><polygon class="cls-40" points="823.28 481.03 747.65 635.13 743.1 637.77 818.74 483.71 823.28 481.03"/><polygon class="cls-44" points="819.6 444.96 815.11 442.73 810.71 445.15 815.1 447.64 819.6 444.96"/><polygon class="cls-47" points="819.6 444.96 864.14 698.05 859.6 700.68 815.05 447.63 819.6 444.96"/><polygon class="cls-43" points="819.6 444.96 864.14 698.05 859.6 700.68 815.05 447.63 819.6 444.96"/><path class="cls-39" d="M810.71,445.15l43.34,252.33,5.56,3.2-44.49-253Z"/><polygon class="cls-48" points="815.63 440.37 817.24 450.03 890.84 407.54 889.23 397.88 815.63 440.37"/><polygon class="cls-48" points="823.27 446.55 817.24 450 818.85 459.66 824.88 456.18 823.27 446.55"/><polygon class="cls-49" points="815.63 440.37 817.24 450.03 808.3 451.62 806.69 441.95 815.63 440.37"/><polygon class="cls-49" points="817.23 450.03 818.84 459.7 809.9 461.28 808.29 451.62 817.23 450.03"/><polygon class="cls-50" points="889.23 397.88 815.63 440.37 806.69 441.95 880.29 399.46 889.23 397.88"/><polygon class="cls-48" points="890.84 407.53 884.81 410.98 886.42 420.64 892.45 417.16 890.84 407.53"/><polygon class="cls-49" points="876.41 415.87 877.47 422.26 886.41 420.68 884.8 411.03 876.41 415.87"/><polygon class="cls-48" points="865.49 691.23 859.47 694.67 861.07 704.34 867.1 700.86 865.49 691.23"/><polygon class="cls-51" points="865.49 691.22 859.46 694.72 850.81 694.11 853.25 692.7 853.42 693.55 858.39 693.79 862.97 691.39 862.91 691.05 865.49 691.22"/><polygon class="cls-48" points="934.14 651.62 928.11 655.06 929.72 664.73 935.75 661.25 934.14 651.62"/><polygon class="cls-49" points="928.12 655.1 929.72 664.76 921.08 664.15 919.47 654.49 928.12 655.1"/><polygon class="cls-51" points="934.14 651.6 928.12 655.11 919.47 654.49 921.9 653.08 922.07 653.93 927.04 654.17 931.63 651.77 931.57 651.43 934.14 651.6"/><polygon class="cls-48" points="752.79 629.46 747.01 632.63 742.58 640 748.61 636.52 752.79 629.46"/><polygon class="cls-51" points="752.78 629.46 747 632.68 739.38 627.23 742.03 625.76 741.18 627.49 746.31 631.24 750.76 628.78 751.09 628.14 752.78 629.46"/><polygon class="cls-48" points="821.6 589.68 815.82 592.85 811.39 600.22 817.42 596.74 821.6 589.68"/><polygon class="cls-49" points="815.81 592.88 811.39 600.25 803.76 594.81 808.19 587.45 815.81 592.88"/><polygon class="cls-51" points="821.6 589.68 815.82 592.9 808.19 587.45 810.84 585.98 809.99 587.71 815.13 591.46 819.56 588.99 819.88 588.35 821.6 589.68"/><polygon class="cls-49" points="859.46 694.71 861.07 704.37 852.42 703.76 850.81 694.1 859.46 694.71"/><polygon class="cls-49" points="747 632.66 742.58 640.03 734.95 634.59 739.38 627.22 747 632.66"/><polygon class="cls-6" points="1096.84 757.42 1197.3 696.97 1194.23 409 1192.14 409 1193.47 670.19 1150.63 645.21 1138.76 666.79 1058.37 732.83 1096.84 757.42"/><ellipse class="cls-6" cx="1032.59" cy="676.37" rx="48.77" ry="23.34"/><line class="cls-52" x1="987.9" y1="636.85" x2="977.92" y2="646.38"/><path class="cls-53" d="M1045.88,624.66l-.11,51.32c0,4.56-3,9.12-9,12.6-12.06,7-31.67,7-43.81,0-6.1-3.53-9.15-8.15-9.14-12.78l.12-51.32c0,4.62,3,9.25,9.14,12.77,12.14,7,31.75,7,43.8,0C1042.87,633.77,1045.87,629.22,1045.88,624.66Z"/><path class="cls-54" d="M1027.66,651a4.32,4.32,0,0,1-.94,2.7,4.19,4.19,0,0,1-3.25,1.57h-.21a4.28,4.28,0,1,1,4.4-4.27Z"/><path class="cls-55" d="M1036.74,611.88c12.14,7,12.2,18.37.14,25.37s-31.66,7-43.8,0-12.19-18.36-.14-25.37S1024.61,604.88,1036.74,611.88Z"/><path class="cls-56" d="M1035.69,612.62c11.54,6.52,11.6,17.11.14,23.64s-30.12,6.52-41.66,0-11.61-17.11-.14-23.64S1024.15,606.09,1035.69,612.62Z"/><path class="cls-57" d="M1034.5,613.53c10.91,6,11,15.74.13,21.74s-28.46,6-39.37,0-11-15.73-.13-21.74S1023.6,607.53,1034.5,613.53Z"/><path class="cls-57" d="M1035.33,634.87l-.7.4c-10.84,6-28.46,6-39.37,0-.28-.15-.56-.31-.83-.48l.7-.4c10.84-6,28.47-6,39.37,0Z"/><path class="cls-17" d="M1035.33,634.87l-.7.4c-10.84,6-28.46,6-39.37,0-.28-.15-.56-.31-.83-.48l.7-.4c10.84-6,28.47-6,39.37,0Z"/><path class="cls-58" d="M1027.28,650.93a3.91,3.91,0,0,1-.86,2.46,3.74,3.74,0,0,1-2.92,1.43h-.19a3.89,3.89,0,1,1,4-3.88Z"/><ellipse class="cls-55" cx="1023.5" cy="650.93" rx="2.89" ry="2.98"/><path class="cls-54" d="M1026.42,653.39a3.74,3.74,0,0,1-2.92,1.43h-.19l-.1-.92-.28-2.66,2.72,1.68Z"/><polyline class="cls-52" points="1023.5 650.78 1027.27 653.39 1006.33 669.57 990.14 670.29 973.67 656.2 977.92 646.38"/><g class="cls-2"><polygon class="cls-19" points="504.15 731.24 548.46 705.49 548.59 656.29 504.29 682.04 504.15 731.24"/><polygon class="cls-20" points="504.29 682.04 548.59 656.29 505.79 631.58 461.49 657.33 504.29 682.04"/><polygon class="cls-21" points="461.49 657.33 461.35 706.53 504.15 731.24 504.29 682.04 461.49 657.33"/></g><g class="cls-2"><g class="cls-59"><polyline class="cls-23" points="483.77 644.47 487.17 642.51 529.84 667.3 526.43 669.27 483.77 644.47"/></g></g><g class="cls-2"><g class="cls-60"><polyline class="cls-23" points="526.42 669.18 529.84 667.2 529.86 673.15 526.44 675.13 526.42 669.18"/></g></g><g class="cls-2"><polygon class="cls-19" points="487.66 686.23 531.97 660.49 532.11 611.28 487.8 637.03 487.66 686.23"/><polygon class="cls-20" points="487.8 637.03 532.11 611.28 489.31 586.57 445 612.32 487.8 637.03"/><polygon class="cls-21" points="445 612.32 444.86 661.52 487.66 686.23 487.8 637.03 445 612.32"/></g><g class="cls-2"><g class="cls-61"><polyline class="cls-23" points="467.28 599.46 470.69 597.5 513.36 622.3 509.95 624.26 467.28 599.46"/></g></g><g class="cls-2"><g class="cls-62"><polyline class="cls-23" points="509.94 624.17 513.36 622.2 513.38 628.14 509.95 630.12 509.94 624.17"/></g></g><ellipse class="cls-6" cx="529.06" cy="846.6" rx="64.94" ry="30.07"/><polygon class="cls-63" points="642.04 861.92 702.87 861.92 720.91 852.83 683.49 831.23 642.04 861.92"/><polygon class="cls-9" points="642.04 861.92 548.63 807.99 548.63 707.42 642.04 761.35 642.04 861.92"/><polygon class="cls-8" points="689 734.24 689 834.81 642.04 861.92 642.04 761.35 689 734.24"/><polygon class="cls-64" points="548.61 707.41 642.05 761.35 689.02 734.23 668.09 722.15 629.38 699.8 595.58 680.29 548.61 707.41"/><polygon class="cls-64" points="637.81 764.55 580.37 731.35 552.36 747.56 637.84 796.9 637.81 764.55"/><polygon class="cls-8" points="580.37 731.35 552.36 747.53 552.36 715.17 580.37 731.35"/><polygon class="cls-65" points="552.35 753.46 552.35 802.03 637.8 851.41 637.8 802.84 614.47 789.36 609.46 786.46 589.5 774.92 586.55 773.22 580.26 769.59 552.35 753.46"/><polygon class="cls-8" points="614.47 789.36 614.47 804.62 580.24 784.87 580.24 769.61 614.47 789.36"/><polygon class="cls-66" points="580.24 769.61 581.54 783.68 609.88 798 614.47 789.36 609.46 786.46 610.76 794.59 586.55 780.61 586.55 773.22 580.26 769.59 580.24 769.61"/><polygon class="cls-67" points="585.25 772.5 585.25 781.81 609.46 795.78 609.46 786.47 614.47 789.36 614.47 804.62 580.24 784.87 580.24 769.61 585.25 772.5"/><polygon class="cls-8" points="552.36 747.53 594.96 747.53 637.92 771.66 637.81 764.55 580.37 731.35 552.36 747.53"/><polygon class="cls-6" points="584.01 727.73 548.61 707.41 595.58 680.29 632.65 701.69 584.01 727.73"/><g class="cls-2"><polygon class="cls-19" points="628.32 753.48 584.01 727.73 583.87 678.52 628.18 704.27 628.32 753.48"/><polygon class="cls-20" points="628.18 704.27 583.87 678.52 626.67 653.81 670.98 679.56 628.18 704.27"/><polygon class="cls-21" points="670.98 679.56 671.12 728.77 628.32 753.48 628.18 704.27 670.98 679.56"/></g><g class="cls-2"><g class="cls-68"><polyline class="cls-23" points="648.7 666.71 645.3 664.74 602.63 689.54 606.03 691.5 648.7 666.71"/></g></g><g class="cls-2"><g class="cls-69"><polyline class="cls-23" points="606.05 691.41 602.62 689.44 602.61 695.39 606.03 697.36 606.05 691.41"/></g></g><path class="cls-8" d="M529.55,846.51h0A3.57,3.57,0,0,1,526,843V783.06a3.57,3.57,0,0,1,3.55-3.56h0a3.57,3.57,0,0,1,3.56,3.56V843A3.57,3.57,0,0,1,529.55,846.51Z"/><path class="cls-8" d="M506.58,798.27l-20.29,63.87a3.57,3.57,0,1,0,6.81,2.17l21-66Z"/><path class="cls-8" d="M553.1,798.27l20.29,63.88a3.58,3.58,0,1,1-6.82,2.16l-21-66Z"/><path class="cls-8" d="M558.31,815.07a21.85,21.85,0,0,1,1.07,7.34c-.2,3.73-3.15,7.24-8.64,9.86-5.7,2.73-13.25,4.13-21.27,4-16.32-.37-29.54-8.08-29.37-16.06a52.5,52.5,0,0,1,1.35-5.75,8.94,8.94,0,0,0-3.24,6.62c-.21,9.24,13.5,16.78,31.21,17.18l1.4,0c7.8,0,15.14-1.47,20.78-4.17,6.2-3,9.67-7.09,9.77-11.62A10.65,10.65,0,0,0,558.31,815.07Z"/><path class="cls-70" d="M564.59,792.69c-4.15-8.34-18.83-14.76-36.49-15.15S495.48,782.9,491,791.05l-1.32,0-.11,5c-.24,10.65,16.64,19.67,37.7,20.14s38.32-7.79,38.56-18.44l.11-5Z"/><ellipse class="cls-4" cx="527.77" cy="792.48" rx="19.3" ry="38.14" transform="translate(-276.28 1302.45) rotate(-88.72)"/><path d="M511.6,793.62a7.88,7.88,0,0,0,3.69,4c5.26,3,13.78,3,19.07,0s5.21-8-.08-11-13.81-3.05-19.06,0a.19.19,0,0,1-.12.07,10.46,10.46,0,0,0-1.4,1,8.46,8.46,0,0,0-1.49,1.6s0,0,0,0a4.56,4.56,0,0,0-.6,1.29A4.25,4.25,0,0,0,511.6,793.62Z"/><path class="cls-66" d="M542.07,791.51h0v-.92l-27-.56v1.47h0c0,2,1.35,4,4,5.49,5.28,3,13.81,3.06,19.06,0C540.79,795.51,542.09,793.51,542.07,791.51Z"/><path class="cls-71" d="M515.42,792.08a7.88,7.88,0,0,0,3.69,4c5.25,3,13.78,3,19.07,0s5.21-7.95-.08-11-13.81-3-19.06,0c0,0-.08.08-.12.08a9.62,9.62,0,0,0-1.4,1,7.9,7.9,0,0,0-1.49,1.6s0,0,0,0a4.62,4.62,0,0,0-.61,1.29A4.3,4.3,0,0,0,515.42,792.08Z"/><path class="cls-67" d="M515.42,792.08l11.11-.3a2.23,2.23,0,0,0,1.6-.16,6.12,6.12,0,0,0,1.45-.79,5.05,5.05,0,0,1-1.41-2.48l-10.92.31a10.4,10.4,0,0,1-1.87.34A4.3,4.3,0,0,0,515.42,792.08Z"/><path class="cls-66" d="M531.72,759.21v30.9a1.28,1.28,0,0,1-.77,1.08s0,0,0,0a4,4,0,0,1-2.27.4,3.35,3.35,0,0,1-1.46-.42,1.3,1.3,0,0,1-.78-1.08v-30.9Z"/><path class="cls-67" d="M530.92,750.76v40.45a4,4,0,0,1-2.27.4V750.76Z"/><path class="cls-72" d="M544.23,764.23h0V751.51H513v12.72h0c0,2.3,1.56,4.6,4.61,6.36,6.13,3.54,16,3.56,22.12,0C542.74,768.87,544.26,766.55,544.23,764.23Z"/><path class="cls-73" d="M539.69,757.91c-6.09,3.52-16,3.5-22.12,0s-6.15-9.25-.07-12.76,16-3.5,22.12,0S545.78,754.4,539.69,757.91Z"/><path class="cls-74" d="M537.19,756.09a15.42,15.42,0,0,1-4.9,1.67c-.47.08-.94.15-1.42.2s-1,.08-1.46.09a21.23,21.23,0,0,1-3.09-.1c-.6-.06-1.19-.16-1.77-.27a15.74,15.74,0,0,1-4.49-1.62c-4.75-2.65-4.77-7-.06-9.6s12.39-2.64,17.14,0S541.9,753.45,537.19,756.09Z"/><path class="cls-75" d="M537.19,756.09a16.55,16.55,0,0,1-6.32,1.87c-.49,0-1,.08-1.46.09,6.7-3.16,7.72-11.56,7.72-11.56C541.88,749.15,541.9,753.45,537.19,756.09Z"/><path class="cls-76" d="M532.29,757.76c-.47.08-.94.15-1.42.2s-1,.08-1.46.09a21.23,21.23,0,0,1-3.09-.1c-.6-.06-1.19-.16-1.77-.27a4.74,4.74,0,0,1,7.74.08Z"/><g id="Board"><g id="Window"><path class="cls-77" d="M1389.63,95.45l394.18,227.31a16.28,16.28,0,0,1,7.38,12.77v674.25a16.21,16.21,0,0,1-7.39,12.74l-1.5.86a16.39,16.39,0,0,1-14.76,0L1373.35,795.74A16.3,16.3,0,0,1,1366,783V109a16.22,16.22,0,0,1,7.39-12.74l1.5-.85A16.36,16.36,0,0,1,1389.63,95.45Z"/><path class="cls-78" d="M1389.63,95.45l394.18,227.31a16.28,16.28,0,0,1,7.38,12.77v674.25a16.21,16.21,0,0,1-7.39,12.74l-1.5.86a16.39,16.39,0,0,1-14.76,0L1373.35,795.74A16.3,16.3,0,0,1,1366,783V109a16.22,16.22,0,0,1,7.39-12.74l1.5-.85A16.36,16.36,0,0,1,1389.63,95.45Z"/><path class="cls-77" d="M1366,783.5c0,6.48,4.55,10.61,10.19,13.85l388.56,224.33c5.6,3.24,10.18.62,10.18-5.89V348h0a20.27,20.27,0,0,0-10.14-17.57L1376.18,106.05a6.8,6.8,0,0,0-10.2,5.88h0Z"/><path class="cls-79" d="M1366,783.5c0,6.48,4.55,10.61,10.19,13.85l388.56,224.33c5.6,3.24,10.18.62,10.18-5.89V348h0a20.27,20.27,0,0,0-10.14-17.57L1376.18,106.05a6.8,6.8,0,0,0-10.2,5.88h0Z"/><path class="cls-77" d="M1366,109v2.89a6.81,6.81,0,0,1,10.21-5.87l388.58,224.43a19.65,19.65,0,0,1,7.41,7.4.61.61,0,0,1,.11.23l16.82-9.72a15.14,15.14,0,0,0-5.31-5.61L1389.63,95.45a16.37,16.37,0,0,0-14.75,0l-1.5.86A16.19,16.19,0,0,0,1366,109Z"/><path class="cls-80" d="M1366,109v2.89a6.81,6.81,0,0,1,10.21-5.87l388.58,224.43a19.65,19.65,0,0,1,7.41,7.4.61.61,0,0,1,.11.23l16.82-9.72a15.14,15.14,0,0,0-5.31-5.61L1389.63,95.45a16.37,16.37,0,0,0-14.75,0l-1.5.86A16.19,16.19,0,0,0,1366,109Z"/></g></g><path id="Shadow" class="cls-81" d="M1375.59,763.21c0,6.68,4.69,10.93,10.5,14.27l367.24,212c5.78,3.34,10.49.64,10.49-6.07V385.62h0a20.92,20.92,0,0,0-10.44-18.1L1386.09,155.4a7,7,0,0,0-10.5,6.06V763.21Z"/><g id="Form"><g id="Paper"><path class="cls-82" d="M1754.42,375.47l-365.9-211.26a6.93,6.93,0,0,0-6.27,0l-3.53,2a6.92,6.92,0,0,0-3.13,5.42V772.46a6.89,6.89,0,0,0,3.13,5.42l365.9,211.26a6.93,6.93,0,0,0,6.27,0l3.53-2a6.93,6.93,0,0,0,3.13-5.43V380.89A6.91,6.91,0,0,0,1754.42,375.47Z"/><path class="cls-83" d="M1745.37,989.48a6,6,0,0,0,1.16.31l.6.07a8,8,0,0,0,1.9-.07,6,6,0,0,0,1.16-.31,7.56,7.56,0,0,0,.7-.34l3.52-2a6.94,6.94,0,0,0,3.14-5.43V380.91a6.14,6.14,0,0,0-.92-3.08l-9.79,5.64a6.66,6.66,0,0,1,.92,3.08V987.33C1747.76,989,1746.74,989.89,1745.37,989.48Z"/><path class="cls-83" d="M1375.7,170.73c.39-1.28,1.6-1.69,3-.87l365.9,211.26a6.19,6.19,0,0,1,2.22,2.34l9.79-5.65a6.16,6.16,0,0,0-2.22-2.33l-365.9-211.26a6.82,6.82,0,0,0-6.25,0l-3.54,2A7,7,0,0,0,1375.7,170.73Z"/></g></g><g id="Clip"><g id="Shadow-2" data-name="Shadow" class="cls-84"><path d="M1460.23,190.66v31.46c0,8,5.44,17.36,12.34,21.35l60.89,35.14c3,1.74,4.72,5.21,6.54,8.86a33.69,33.69,0,0,0,4.69,7.69c4.73,5.37,15,11,22.33,13.28a42,42,0,0,0,7.3,1.69c.92.15,1.94.28,3,.41,6.64.89,14.92,2,19.77,4.83l71.26,41.12a12.42,12.42,0,0,0,6.2,1.86,8.38,8.38,0,0,0,4.17-1.07c2.91-1.69,4.52-5,4.52-9.38V316.45c0-8-5.42-17.37-12.34-21.35L1647,281.28a1.62,1.62,0,0,0-.33-.13,2.52,2.52,0,0,0-2.51,4.32.86.86,0,0,0,.28.23l23.94,13.82c5.28,3.06,9.78,10.82,9.78,16.93V347.9c0,2.43-.72,4.22-2,4.93s-3.17.44-5.26-.76l-71.26-41.15c-5.72-3.29-14.56-4.49-21.63-5.44-1-.13-2-.28-3-.41a39.29,39.29,0,0,1-6.49-1.5c-6.46-2.05-16.07-7.28-20-11.78a30.52,30.52,0,0,1-4-6.59c-2.07-4.19-4.22-8.5-8.56-11l-60.89-35.14c-5.28-3.06-9.78-10.83-9.78-16.93V190.66c0-2.4.72-4.21,2-4.93s3.19-.43,5.26.77l20.74,12a21.78,21.78,0,0,1,2.6-4.4l-20.79-12c-3.75-2.2-7.46-2.45-10.37-.79S1460.23,186.32,1460.23,190.66Z"/></g><g id="Clip-2" data-name="Clip"><path class="cls-4" d="M1504.65,191.24h0c-1.64-1-3.91-.84-6.42.61-5,2.89-9,9.91-9,15.68,0,2.9,1,4.93,2.68,5.87h0l144.46,83.42,12.79-22.17Z"/><path class="cls-85" d="M1642.68,285.8l-150.89-87.13a18.47,18.47,0,0,1,6.43-6.81c.3-.17.58-.26.87-.4l148.53,85.77Z"/><path class="cls-86" d="M1642.68,275.28c5-2.89,9-.55,9,5.22s-4.06,12.79-9,15.68-9,.55-9-5.23S1637.68,278.16,1642.68,275.28Z"/><path d="M1457.67,192.9v31.46c0,8,5.44,17.36,12.33,21.35l60.89,35.14c3,1.74,4.73,5.21,6.54,8.86a34.31,34.31,0,0,0,4.7,7.69c4.72,5.36,15,11,22.32,13.28a43,43,0,0,0,7.31,1.69c.92.15,1.94.28,3,.41,6.64.89,14.92,2,19.77,4.82l71.26,41.12a12.5,12.5,0,0,0,6.21,1.87,8.34,8.34,0,0,0,4.16-1.07c2.91-1.69,4.52-5,4.52-9.38V318.69c0-8-5.41-17.37-12.34-21.36l-23.93-13.81a1.42,1.42,0,0,0-.33-.13,2.51,2.51,0,0,0-2.5,4.32.89.89,0,0,0,.28.23l23.93,13.81c5.29,3.07,9.78,10.83,9.78,16.94v31.45c0,2.43-.71,4.22-2,4.93s-3.17.44-5.27-.76l-71.25-41.15c-5.72-3.3-14.56-4.5-21.64-5.44-1-.13-2-.28-3-.41a39.58,39.58,0,0,1-6.49-1.51c-6.46-2-16.06-7.28-20-11.77a30.52,30.52,0,0,1-4-6.59c-2.07-4.19-4.21-8.5-8.56-11l-60.88-35.14c-5.29-3.07-9.79-10.83-9.79-16.93V192.9c0-2.4.72-4.21,2-4.93s3.19-.43,5.26.77l20.74,12a21.37,21.37,0,0,1,2.61-4.4l-20.79-12c-3.76-2.2-7.46-2.45-10.37-.79S1457.67,188.56,1457.67,192.9Z"/></g></g><polygon class="cls-87" points="1675.35 695.98 1403.5 539.02 1403.5 311.62 1675.35 468.57 1675.35 695.98"/><line class="cls-88" x1="1435.16" y1="329.9" x2="1435.16" y2="557.31"/><line class="cls-88" x1="1464.95" y1="347.1" x2="1464.95" y2="574.5"/><line class="cls-88" x1="1494.74" y1="364.3" x2="1494.74" y2="591.7"/><line class="cls-88" x1="1524.53" y1="381.5" x2="1524.53" y2="608.9"/><line class="cls-88" x1="1554.32" y1="398.7" x2="1554.32" y2="626.1"/><line class="cls-88" x1="1584.11" y1="415.9" x2="1584.11" y2="643.3"/><line class="cls-88" x1="1613.89" y1="433.1" x2="1613.89" y2="660.5"/><line class="cls-88" x1="1643.68" y1="450.29" x2="1643.68" y2="677.7"/><line class="cls-88" x1="1674.85" y1="496.62" x2="1403.01" y2="339.67"/><line class="cls-88" x1="1674.85" y1="530.77" x2="1403.01" y2="373.82"/><line class="cls-88" x1="1674.85" y1="564.92" x2="1403.01" y2="407.97"/><line class="cls-88" x1="1674.85" y1="599.07" x2="1403.01" y2="442.11"/><line class="cls-88" x1="1674.85" y1="633.21" x2="1403.01" y2="476.26"/><line class="cls-88" x1="1674.85" y1="667.36" x2="1403.01" y2="510.41"/><polygon class="cls-89" points="1597.69 481.57 1480.17 413.72 1480.17 355.89 1597.69 423.74 1597.69 481.57"/><polygon class="cls-89" points="1465.44 400.76 1430.67 380.68 1430.67 340.82 1465.44 360.9 1465.44 400.76"/><polygon class="cls-89" points="1674.85 645.8 1632.53 621.36 1632.53 486.6 1674.85 511.04 1674.85 645.8"/><polygon class="cls-90" points="1622 626.56 1425.93 513.36 1425.93 402.35 1622 515.55 1622 626.56"/><polygon class="cls-90" points="1609.85 658.16 1468.01 576.27 1468.01 556.96 1609.85 638.85 1609.85 658.16"/><polyline class="cls-87" points="1404 298.04 1404 285.9 1674.85 442.28 1674.85 454.41"/><polyline class="cls-87" points="1683.07 473.03 1694.65 479.72 1694.65 707.12 1683.07 700.43"/><line class="cls-87" x1="1533.57" y1="360.7" x2="1533.57" y2="341.36"/><line class="cls-87" x1="1694.65" y1="593.42" x2="1711.49" y2="603.14"/><text class="cls-91" transform="matrix(0.87, 0.5, 0, 1, 1502.22, 313.58)">16.6 ft</text><text class="cls-92" transform="matrix(0, -0.99, 0.87, 0.5, 1735.31, 662.7)">14.6 ft</text><text class="cls-93" transform="matrix(0.88, 0.51, 0, 1, 1444.74, 661.31)">Total Area :<tspan x="21.47" y="45.51">239.25 ft</tspan></text><text class="cls-93" transform="matrix(0.51, 0.3, 0, 0.58, 1604.24, 786.28)">2</text><text class="cls-94" transform="matrix(0.88, -0.51, 0.87, 0.5, 1047.01, 965.2)">16.6 ft</text><text class="cls-94" transform="matrix(0.89, 0.51, -0.87, 0.5, 417.49, 940.95)">14.6 ft</text><polygon class="cls-95" points="1169.09 706.27 1126.89 681.75 1123.02 690.21 1165.34 714.71 1169.09 706.27"/><path class="cls-96" d="M1046.63,728.51l47.5,27.42,36.92-21.31,8.83-11.64,27-15.45-1.5,7.27,1.52-.88,7.7-10.8-51.65-17.56C1110.5,692.66,1046.63,723.64,1046.63,728.51Z"/><path class="cls-96" d="M1046.63,728.51l47.5,27.42h0l-.75-9c1.29-57.5-16.07-22.62-50.37-26.54Z"/><polygon class="cls-97" points="1041.11 720.92 1092.62 750.02 1176.78 701.86 1176.78 693.86 1041.12 712.31 1041.11 720.92"/><path class="cls-98" d="M1041.11,720.92l51.51,29.1h0v-47.1c-22.47,0-33,9.56-51.5,9.4Z"/><polygon class="cls-99" points="1041.12 712.31 1092.62 742.01 1176.78 693.86 1124.92 663.92 1041.12 712.31"/><polygon class="cls-100" points="1045.41 712.2 1092.75 739.54 1172.19 693.66 1124.9 666.33 1045.41 712.2"/><polygon class="cls-101" points="1117.84 725.05 1083.6 705.24 1058.48 719.75 1092.75 739.54 1117.84 725.05"/><polygon class="cls-99" points="1170.56 694.92 1125.41 668.83 1091.01 692.13 1133.05 716.42 1170.56 694.92"/><polygon class="cls-100" points="1091.01 692.13 1133.05 716.42 1117.84 725.05 1083.57 705.29 1091.01 692.13"/><polyline class="cls-102" points="1106.33 681.91 1099.18 677.82 1100.84 662.06 1130.2 677.06 1134.79 660.73"/><line class="cls-103" x1="1134.79" y1="660.73" x2="1189.43" y2="408.08"/><ellipse class="cls-17" cx="1104.34" cy="681.17" rx="9.86" ry="5.64" transform="translate(-116.44 1120.79) rotate(-51.47)"/><polygon class="cls-17" points="1110.48 673.46 1155.13 697.77 1142.85 713.2 1098.2 688.89 1110.48 673.46"/><ellipse class="cls-7" cx="1148.99" cy="705.48" rx="9.86" ry="5.64" transform="translate(-118.62 1164.89) rotate(-51.47)"/><ellipse class="cls-63" cx="927.68" cy="851.57" rx="80.06" ry="38.48"/><path class="cls-104" d="M940.81,714.66c-17.24-4-5.68,55.33-3.37,60.54,4.33,7.42,14.16,1.23,14-7.31C951,757.63,958.57,715.45,940.81,714.66Z"/><path class="cls-105" d="M937.44,775.2c1,7,26.33,24.55,34.91,27.52,3.92-.44,8-7.34,5.34-9.58-2.36-2.75-18.63-18.32-26.25-25.26C945.15,764.3,939.4,769.43,937.44,775.2Z"/><path class="cls-106" d="M971.56,799.25c-1.48-.92,2.68-6.61,5-5.24,3.34,3.25,5.89,2.08,7.61,3.55.78.63,5.82,7.12,6.23,9.16.77,1.21-7.43,4.64-8.88,4.17-2.36-1.37-5.86-6.34-6.24-7.63C974.37,800.18,974.91,801.36,971.56,799.25Z"/><path class="cls-106" d="M983.59,810.48l1.68,5.3c.43,1.35-1.19,1.69-1.75.4l-2.18-5C980.8,810,983.14,809.08,983.59,810.48Z"/><path class="cls-106" d="M984.11,808.81h0a1.27,1.27,0,0,1,1.64.7l2.46,6.08c.62,1.54-1.13,2.23-1.87.74l-2.92-5.88A1.23,1.23,0,0,1,984.11,808.81Z"/><path class="cls-106" d="M986.26,807.7h0a1.32,1.32,0,0,1,1.68.81l2.34,6.81c.59,1.72-1.3,2.47-2,.79l-2.69-6.66A1.33,1.33,0,0,1,986.26,807.7Z"/><path class="cls-106" d="M990.59,807.07l2.14,6.26c.53,1.57-1.39,2.3-2,.76L988.25,808A1.26,1.26,0,0,1,990.59,807.07Z"/><path class="cls-107" d="M892.74,825.25s-10-.1-6.81-4.16c1.37-1.73-3-2.68-4.54-2.8-2-.17-4.29,2.14-6.28,4.57-2,2.93-6.64,5.7-7.79,6.65-3.17,2.62-4.83,9.74-4.52,13.35.19,2.11,1.07,3.66,2.67,3.7.59-.1.75.11,1.52-.51s6-4.71,7.74-6.54c4.39-4.7,10.87-5.37,12.34-5.49s6-.64,6-.64S894.55,831.13,892.74,825.25Z"/><path class="cls-108" d="M894.24,824.46c-4.54-.63-2.76-4.2-10.77-5.25-3-.39-6,4.63-7.77,6.46-2.5,2.59-3.93,2.82-5.88,3.75-1.79.86-2.93,2.51-3.86,4.78-2.17,5.3-3.05,12,1.86,12.5,1.9.2,6.87-6.13,9-8.21,4.73-5,12.25-3.06,13.72-3.19s2.55-1.92,2.55-1.92S896.05,830.34,894.24,824.46Z"/><path class="cls-104" d="M919.28,717.62c-1.14,0-15.95,3.46-22.84,7.42-4.79,3.34-2.1,14.17-2.37,15.51-.91,4.32-2.68,25.07-3.19,31.11s-4.62,17.62-.36,21.29c2.91,18.22,34.47,7.13,41-5.84.39-12.51,6.77-17.57,12.33-37.59,1.34-4.82,8.71-20.71,3-28.92a13.38,13.38,0,0,0-7.22-4.51C931.51,714.52,920.7,717.67,919.28,717.62Z"/><path class="cls-109" d="M921.42,811.59c-4.13,3.39-7.7,8.95-2.21,19.29,12.4,9.26,22.52,22.41,38.87,32-7-13.41-8.45-18.79-15.46-32.2C933,815.48,926.71,811.49,921.42,811.59Z"/><path class="cls-110" d="M955.76,861.37c4.56,4.51,15.88,1.76,14.87-4.51-5.08-31.54-22.35-52.62-37.87-73.54-18.07,10.71-10.15,2.43-14.6-.65-6,8.49-4.63,21.17-2.35,24.2,4,5.27,4.47,5.55,12.19,16.74C936.08,836.87,946.81,852.53,955.76,861.37Z"/><path class="cls-109" d="M887.14,820.06c-4.13,3-8.52,5.77-3,16.7,13.61,10.26,25,31.65,38,43.27-7-14.16-5.7-21.74-12.71-35.9C899.74,827.91,892.68,822.57,887.14,820.06Z"/><path class="cls-110" d="M931.37,719.12c8.5-.48,12.26,13.67,4.87,37.79,2.4,1.62,2.17.46,5.52.42,6-20,8.85-33.7-1.72-39.49C935.25,718.33,936,717.17,931.37,719.12Z"/><path class="cls-110" d="M921.44,879.21c2,3.83,15.95,4.94,16.55-2.17.49-22.12-4.76-37.18-15.29-63.38,8.23-2,1.07-13.71,1.69-27.77-18.07,12.07-29.75,7.7-36.88,5.27C882.1,813.69,910.41,857.89,921.44,879.21Z"/><path class="cls-111" d="M887.51,791.16c16.64,8.2,42.79,6.67,45.57-5.74-.1-1.41.31-4,.21-5.38-9.89,7.19-34,13.51-45,7.28Z"/><path class="cls-105" d="M900,725.62c-16.44-6.56-15.29,55.1-13.79,60.59,3.18,8,12.78,3.93,13.9-4.54C904.41,772.15,917.43,729.06,900,725.62Z"/><path class="cls-110" d="M897.15,724.65c7.8-.65,14.57,9.28,14.22,35.12,2.68,1.69,6.3,1.59,9.41,1.51-.5-18.19-4.61-39.39-14.83-40.19A29.08,29.08,0,0,0,897.15,724.65Z"/><path class="cls-109" d="M895.38,789.68c10.11-8.17,14.32-20.12,15.69-40.47,13.12,4.35,25.08,2.4,34.77-7.17-3.55,13.81-5.56,24.91-12.73,41.75C928.07,789.91,915.55,795.58,895.38,789.68Z"/><path class="cls-105" d="M886.41,786.72c.44,7.08,26.71,29.4,35,33.08,3.94-.12,8.62-6.64,6.13-9.1-2.13-2.94-19.56-22.55-26.58-30.1C895,776.5,888.84,781.13,886.41,786.72Z"/><path class="cls-106" d="M931.66,814.28c2.43,0,6.63,1.43,8.08,2,1.87.76,2.62,1.51,4.49,2.27-1.15,1-1.2,2-4.4.33-2.57-.34-12.36,1.57-12.15-1.86C928.28,815.1,928.61,814.09,931.66,814.28Z"/><path class="cls-106" d="M939.71,824.12l5.47,4.65c1.29,1.09,2.66-.45,1.51-1.69l-5-5.44C940.56,820.4,938.46,823,939.71,824.12Z"/><path class="cls-112" d="M923.14,818c0-1.35,1.7-6.19,4-5.16a31.08,31.08,0,0,1,7.62,3.25c.79.49,5,3.64,6.41,4.83,1.88,1.61,1.77,4.2-.31,4a1.74,1.74,0,0,1-1.74,1.77c-.54.76-.73,1.46-2,1.76-.47.46-.1,1.62-1.69,1.39-2.31.15-7-4.1-9.54-6.43S923.13,819.19,923.14,818Z"/><path class="cls-110" d="M918.89,757.32a39.76,39.76,0,0,0,20.83-3.61l-1.6,7.37c-6.65,3.53-13.25,4.32-20.72,3.74Z"/><path class="cls-106" d="M927.32,709.65c-1.89,3.33-4.42,7.85-7.72,9.76-1.48,2.6-.33,6,2.15,9.25,5.34,7,12.18,6,12.94,1.21.59-1.63-.72-4.17-.41-5.92.35-1.94-2.94-3.45-2-5.15Z"/><path class="cls-112" d="M954.64,706.74c-1.08,2-1.39,4.21-2,6.37-.22,1.9-1.9,2-2.67,3.51-.3.57,0,1.7-.34,2.54a30.53,30.53,0,0,1-5.08,7.57c-1.17,1.46-2.62,3.72-6.05,4-5.22.59-7.35-5.33-10.55-8.72s1-7.31,1.47-11.16C931.61,692.68,956.07,694.51,954.64,706.74Z"/><path class="cls-113" d="M925.09,704.8l-.06.37Z"/><path class="cls-114" d="M937.17,708.79a2.53,2.53,0,0,0-2.75,1.19c-.89,1-1.8.69-2.84,3.24-.22.35-3.38-6.22-4.69-2.85-1.45,3.73-4.51,6.71-5.84,8-3.08-2.73,2.52-11.07,3.45-13.41,1.31-5.9,5.83-11.25,9.28-12.09,6.89,4.21,8.4,5,9.08,10.36C942.36,705.55,938.92,708.83,937.17,708.79Z"/><path class="cls-112" d="M927,709.25c-.6,2.46-.2,4.66.88,4.92s2.19-1.72,3.37-3.48c1.91-2.43.27-5.08-1.23-5.4C928.93,705.05,927.59,706.8,927,709.25Z"/><path class="cls-114" d="M946.16,725c0-.89.08-1.57-1.95-2.27a6.57,6.57,0,0,0-3.05-.36v3a5.68,5.68,0,0,1,1.43.17c3.15.78.12,2.74-.66,1.14a1.8,1.8,0,0,1-.77.28v6.42C943.8,730.7,946.25,726.69,946.16,725Zm-5-2.63a14.79,14.79,0,0,0-4.63,1.52c-2.76,1.3-2.74-2.75-3-6.2-.18-2.14-2.64-2.72-1.42-5.52l-.83-1.49c-2.74,3.25-4.46,5.62-5.26,7.59a13.4,13.4,0,0,0-.92,3.86v2.28c.54,6.39,5.54,12,12.08,11.43,1.17-.1,2.62-1.12,4-2.51v-6.42c-1.53.25-4-.46-2.25-1.15a6.14,6.14,0,0,1,2.25-.44Z"/><path class="cls-114" d="M933.78,692.88c2.82-4.4,14.27-.37,20.06,6.26,2.85,2.3,4.79,2.83,7.56,1.88-.67,6.3-3.52,10.43-11,8.87.43-4.37-5.61-3.95-8.25-7.64C939.66,699.44,936.22,695.69,933.78,692.88Z"/><polygon class="cls-115" points="992.96 779.14 971.25 822.77 998.14 838.3 1019.86 794.66 992.96 779.14"/><polygon class="cls-73" points="1017.47 794.45 994.28 781.06 974.76 820.31 997.94 833.69 1017.47 794.45"/><polygon class="cls-116" points="1010.92 790.16 1000.64 784.23 999.11 787.42 1009.4 793.36 1010.92 790.16"/><path class="cls-106" d="M980.22,797.2a5.76,5.76,0,0,1,4.5.37c1.71.76,3.5,1.87,4.18,2.25,1.76,1,1.4,1.17,3.15,2.13-.49,1-1.46,1.94-4.42,0a5.11,5.11,0,0,1-2.64-.74C980.27,803.36,978.29,798.12,980.22,797.2Z"/></g><g id="_158-Day_Counter" data-name="158-Day Counter"><g class="cls-117"><polygon class="cls-118" points="2370.17 263.26 1859.35 558.18 1859.35 -180.86 2370.17 -475.78 2370.17 263.26"/><polygon class="cls-119" points="2436.92 301.3 1925.05 596.15 1859.35 558.22 2371.22 263.37 2436.92 301.3"/><polygon class="cls-119" points="2383.57 -243.84 1872.99 49.69 1865.83 34.04 1859.35 19.89 2369.96 -273.65 2376.75 -258.81 2383.57 -243.84"/><polygon class="cls-120" points="2383.57 -243.84 1872.99 49.69 1865.83 34.04 2376.75 -258.81 2383.57 -243.84"/><polygon class="cls-119" points="2383.57 -182.94 1872.99 110.59 1865.83 94.93 1859.35 80.79 2369.96 -212.75 2376.75 -197.91 2383.57 -182.94"/><polygon class="cls-120" points="2383.57 -182.94 1872.99 110.59 1865.83 94.93 2376.75 -197.91 2383.57 -182.94"/><polygon class="cls-119" points="2383.57 -122.05 1872.99 171.48 1865.83 155.83 1859.35 141.69 2369.96 -151.86 2376.75 -137.01 2383.57 -122.05"/><polygon class="cls-120" points="2383.57 -122.05 1872.99 171.48 1865.83 155.83 2376.75 -137.01 2383.57 -122.05"/><polygon class="cls-119" points="2383.57 -61.15 1872.99 232.38 1865.83 216.73 1859.35 202.59 2369.96 -90.96 2376.75 -76.12 2383.57 -61.15"/><polygon class="cls-120" points="2383.57 -61.15 1872.99 232.38 1865.83 216.73 2376.75 -76.12 2383.57 -61.15"/><polygon class="cls-119" points="2383.57 -0.25 1872.99 293.28 1865.83 277.63 1859.35 263.48 2369.96 -30.06 2376.75 -15.22 2383.57 -0.25"/><polygon class="cls-120" points="2383.57 -0.25 1872.99 293.28 1865.83 277.63 2376.75 -15.22 2383.57 -0.25"/><polygon class="cls-119" points="2383.57 60.65 1872.99 354.17 1865.83 338.52 1859.35 324.38 2369.96 30.83 2376.75 45.68 2383.57 60.65"/><polygon class="cls-120" points="2383.57 60.65 1872.99 354.17 1865.83 338.52 2376.75 45.68 2383.57 60.65"/><polygon class="cls-119" points="2383.57 121.54 1872.99 415.07 1865.83 399.42 1859.35 385.27 2369.96 91.73 2376.75 106.57 2383.57 121.54"/><polygon class="cls-120" points="2383.57 121.54 1872.99 415.07 1865.83 399.42 2376.75 106.57 2383.57 121.54"/><polygon class="cls-119" points="2383.57 182.44 1872.99 475.97 1865.83 460.31 1859.35 446.17 2369.96 152.63 2376.75 167.47 2383.57 182.44"/><polygon class="cls-120" points="2383.57 182.44 1872.99 475.97 1865.83 460.31 2376.75 167.47 2383.57 182.44"/><polygon class="cls-119" points="2383.57 243.34 1872.99 536.86 1865.83 521.21 1859.35 507.07 2369.96 213.52 2376.75 228.37 2383.57 243.34"/><polygon class="cls-120" points="2383.57 243.34 1872.99 536.86 1865.83 521.21 2376.75 228.37 2383.57 243.34"/></g></g></g></svg>