<?xml version="1.0" encoding="utf-8"?>
<!-- Generator: Adobe Illustrator 26.1.0, SVG Export Plug-In . SVG Version: 6.00 Build 0)  -->
<svg version="1.1" id="Layer_1" xmlns="http://www.w3.org/2000/svg" xmlns:xlink="http://www.w3.org/1999/xlink" x="0px" y="0px"
	 viewBox="0 0 1920 1080" style="enable-background:new 0 0 1920 1080;" xml:space="preserve">
<style type="text/css">
	.st0{fill:url(#SVGID_1_);}
	.st1{fill:#0F4B6A;}
	.st2{fill:#026A9E;}
	.st3{opacity:0.19;enable-background:new    ;}
	.st4{fill:#D37809;}
	.st5{fill:#703E03;}
	.st6{fill:#BA5007;}
	.st7{fill:#EDD285;}
	.st8{fill:#F4D684;}
	.st9{fill:#F9960D;}
	.st10{clip-path:url(#SVGID_00000002352080929544500850000011878111050262722716_);}
	.st11{opacity:0.22;}
	.st12{fill:#FBF9EB;}
	.st13{fill:#CBAA7F;}
	.st14{fill:#FFCF4D;}
	.st15{fill:#FFE590;}
	.st16{fill:#867151;}
	.st17{fill:#D8B57F;}
	.st18{fill:#C3A473;}
	.st19{clip-path:url(#SVGID_00000117648060908390452160000011105264581286935456_);}
	.st20{fill:#CE947B;}
	.st21{clip-path:url(#SVGID_00000083057475909709114310000006907157577386468755_);}
	.st22{clip-path:url(#SVGID_00000053544554764828524560000003222438322714703012_);}
	.st23{clip-path:url(#SVGID_00000129173280369216549300000005205227678846021778_);}
	.st24{fill:#CEAE80;}
	.st25{clip-path:url(#SVGID_00000179610794840749352930000005172258087800211124_);}
	.st26{clip-path:url(#SVGID_00000121978746887000296870000001397443166929842107_);}
	.st27{clip-path:url(#SVGID_00000134217701398371427820000004289704831742330043_);}
	.st28{clip-path:url(#SVGID_00000039852293148386612500000001950486755424227223_);}
	.st29{fill:#34C187;}
	.st30{fill:#1FCFFF;}
	.st31{fill:#34D197;}
	.st32{fill:#02996A;}
	.st33{fill:#0E766D;}
	.st34{fill:none;stroke:#000000;stroke-width:0.42;stroke-miterlimit:10;}
	.st35{opacity:0.19;}
	.st36{fill:#999591;}
	.st37{fill:#ABA7A2;}
	.st38{fill:#CFCCC5;}
	.st39{fill:#87560C;}
	.st40{fill:#CFCBC5;}
	.st41{fill:#F4F4F4;}
	.st42{fill:#3A3F41;}
	.st43{fill:#919596;}
	.st44{fill:#FFA200;}
	.st45{fill:#7F807D;}
	.st46{fill:#292929;}
	.st47{fill:#A3A3A3;}
	.st48{fill:#9B9B9B;}
	.st49{fill:none;stroke:#D1D1D1;stroke-width:1.41;stroke-linecap:round;stroke-linejoin:round;}
	.st50{fill:url(#SVGID_00000118380320307072402660000017193806499887081116_);}
	.st51{opacity:0.1;enable-background:new    ;}
	.st52{fill:#BCBDBE;}
	.st53{fill:#D1D1D1;}
	.st54{fill:#808080;}
	.st55{fill:#A7A7A8;}
	.st56{clip-path:url(#SVGID_00000136369291682433939550000017494529198529621672_);}
	.st57{clip-path:url(#SVGID_00000008107929179128844440000000980697529637959575_);}
	.st58{clip-path:url(#SVGID_00000178171148830929929560000006163871237544747181_);}
	.st59{clip-path:url(#SVGID_00000069360292672410117970000002751446083346776720_);}
	.st60{fill:#ACACAC;}
	.st61{fill:#F2E6AA;}
	.st62{fill:#FFF6BF;}
	.st63{fill:#82806F;}
	.st64{fill:#A5A498;}
	.st65{clip-path:url(#SVGID_00000004524188978252118620000016817595519417694871_);}
	.st66{clip-path:url(#SVGID_00000168118109692544710890000014997980526927227009_);}
	.st67{fill:#0B455B;}
	.st68{fill:#D6D6D1;}
	.st69{fill:url(#SVGID_00000013154943653807865600000001308815695260810113_);}
	.st70{fill:#FFFFFF;}
	.st71{fill:url(#SVGID_00000173877022644149085520000011791790584039732376_);}
	.st72{fill:#BDB5AC;}
	.st73{fill:#F7F7CF;}
	.st74{fill:#D268CC;}
	.st75{fill:#919191;}
	.st76{fill:#CECECE;}
	.st77{fill:#B2B2B1;}
	.st78{opacity:0.25;enable-background:new    ;}
	.st79{fill:#1A9CF1;}
	.st80{fill:#0D7FC6;}
	.st81{opacity:0.25;}
	.st82{fill:#026A9D;}
	.st83{fill:#274459;}
	.st84{fill:none;stroke:#FFFFFF;stroke-width:3;stroke-miterlimit:10;}
	.st85{fill:none;stroke:#FFFFFF;stroke-width:0.41;stroke-miterlimit:10;}
	.st86{fill:none;stroke:#FFFFFF;stroke-width:1.66;stroke-miterlimit:10;}
	.st87{fill:none;stroke:#FFFFFF;stroke-width:1.79;stroke-miterlimit:10;}
	.st88{font-family:'OpenSans-SemiBold';}
	.st89{font-size:29.57px;}
	.st90{font-size:29.8926px;}
	.st91{font-family:'OpenSans-Bold';}
	.st92{font-size:37.93px;}
	.st93{font-size:21.9994px;}
	.st94{font-size:46.1584px;}
	.st95{fill-rule:evenodd;clip-rule:evenodd;fill:#A59828;}
	.st96{fill-rule:evenodd;clip-rule:evenodd;fill:#C9BE91;}
	.st97{fill-rule:evenodd;clip-rule:evenodd;fill:#FFE590;}
	.st98{fill-rule:evenodd;clip-rule:evenodd;fill:#E8CE82;}
	.st99{fill-rule:evenodd;clip-rule:evenodd;fill:#FFF6BF;}
	.st100{fill-rule:evenodd;clip-rule:evenodd;fill:#E2D59C;}
	.st101{fill-rule:evenodd;clip-rule:evenodd;fill:#FFCF4D;}
	.st102{fill:none;stroke:#A7A9AC;stroke-width:2.09;stroke-linecap:round;stroke-linejoin:round;}
	.st103{fill:none;stroke:#000000;stroke-width:4.19;stroke-linecap:round;stroke-linejoin:round;}
	.st104{fill-rule:evenodd;clip-rule:evenodd;fill:#D37809;}
	.st105{fill-rule:evenodd;clip-rule:evenodd;fill:#F9960D;}
	.st106{fill-rule:evenodd;clip-rule:evenodd;fill:#D99E72;}
	.st107{fill-rule:evenodd;clip-rule:evenodd;fill:#979796;}
	.st108{fill-rule:evenodd;clip-rule:evenodd;fill:#292929;}
	.st109{fill-rule:evenodd;clip-rule:evenodd;fill:#0F4B6A;}
	.st110{fill-rule:evenodd;clip-rule:evenodd;fill:#085788;}
	.st111{fill-rule:evenodd;clip-rule:evenodd;fill:#314A8D;}
	.st112{fill-rule:evenodd;clip-rule:evenodd;fill:#ECC19A;}
	.st113{fill-rule:evenodd;clip-rule:evenodd;fill:#262424;}
	.st114{fill-rule:evenodd;clip-rule:evenodd;fill:#703E03;}
	.st115{fill:#0D3659;}
	.st116{fill:#0072BF;}
</style>
<g id="_151-Feet_and_Inches_Calculator">
	
		<linearGradient id="SVGID_1_" gradientUnits="userSpaceOnUse" x1="949.5098" y1="1242.96" x2="967.8898" y2="11.3" gradientTransform="matrix(1 0 0 -1 0 1080)">
		<stop  offset="0" style="stop-color:#FFCE4D"/>
		<stop  offset="0.31" style="stop-color:#FCB835"/>
		<stop  offset="0.75" style="stop-color:#F99F18"/>
		<stop  offset="1" style="stop-color:#F8950D"/>
	</linearGradient>
	<rect class="st0" width="1920" height="1080"/>
	<polygon class="st1" points="632.2,511.5 632.2,528.2 1167.3,837.1 1167.3,820.4 	"/>
	<polygon class="st1" points="1167.3,821.3 1167.3,838 1598.4,589.1 1598.3,572.4 	"/>
	<polygon class="st2" points="632.2,511.5 1167.3,821.3 1598.3,572.4 1063.3,262.7 	"/>
	<polygon class="st3" points="1084.4,477.2 398.4,873.3 -3,641.6 683,245.5 	"/>
	<path class="st3" d="M1920,542.7v420.5l-92,53.1c-23.9,13.8-53.4,13.8-77.3,0l-807.1-466l494.8-285.7L1920,542.7z"/>
	<g>
		<polygon class="st4" points="1291.8,271.2 1290.4,766.5 859.3,517.6 860.8,22.3 		"/>
		<polygon class="st5" points="1306.2,262.8 1304.9,719.2 1290.5,726.8 1291.8,271.2 		"/>
		<polygon class="st6" points="860.8,22.3 875.1,14 1306.2,262.9 1291.8,271.2 		"/>
	</g>
	<polygon class="st7" points="1304.8,758.2 1290.6,767.5 859.3,517.7 859.5,475.4 1290.5,726.8 1290.4,766.5 	"/>
	<polygon class="st8" points="1304.9,719.2 1304.8,758.2 1290.6,767.5 1290.5,726.8 	"/>
	<polygon class="st4" points="323,317.9 308.7,326.3 202.6,265 217.4,256.9 	"/>
	<g>
		<polygon class="st6" points="323.1,333.2 202.5,265 203.9,760.3 324.5,828.6 		"/>
		<polygon class="st4" points="875.1,14 860.8,5.6 308.7,324.9 323.1,333.2 		"/>
		<polygon class="st9" points="323,333.2 324.5,828.6 859.3,517.6 860.8,22.3 		"/>
	</g>
	<polygon class="st1" points="1290.7,750.9 1290.6,767.5 755.5,1076.4 755.6,1059.8 	"/>
	<polygon class="st1" points="755.6,1060.6 755.5,1077.3 324.5,828.4 324.5,811.8 	"/>
	<polygon class="st2" points="1290.7,750.9 755.6,1060.6 324.5,811.8 859.6,502 	"/>
	<g>
		<defs>
			<polygon id="SVGID_00000094617756665095147920000017730617079805607074_" points="1286.8,748.1 751.8,1057.8 320.7,809 
				855.8,499.2 			"/>
		</defs>
		<clipPath id="SVGID_00000065071445436222415870000007734747495247127708_">
			<use xlink:href="#SVGID_00000094617756665095147920000017730617079805607074_"  style="overflow:visible;"/>
		</clipPath>
		<g style="clip-path:url(#SVGID_00000065071445436222415870000007734747495247127708_);">
			<g class="st11">
				
					<rect x="526.6" y="683.2" transform="matrix(0.5 -0.866 0.866 0.5 -553.0235 928.207)" class="st8" width="1.6" height="519.7"/>
				
					<rect x="576.9" y="654.1" transform="matrix(0.5 -0.866 0.866 0.5 -502.6525 957.2886)" class="st8" width="1.6" height="519.7"/>
				<rect x="627.3" y="625" transform="matrix(0.5 -0.866 0.866 0.5 -452.2815 986.3703)" class="st8" width="1.6" height="519.7"/>
				<rect x="677.7" y="596" transform="matrix(0.5 -0.866 0.866 0.5 -401.9206 1015.452)" class="st8" width="1.6" height="519.7"/>
				
					<rect x="728" y="566.9" transform="matrix(0.5 -0.866 0.866 0.5 -351.5495 1044.5338)" class="st8" width="1.6" height="519.7"/>
				
					<rect x="778.4" y="537.8" transform="matrix(0.5 -0.866 0.866 0.5 -301.1785 1073.6155)" class="st8" width="1.6" height="519.7"/>
				
					<rect x="828.8" y="508.7" transform="matrix(0.5 -0.866 0.866 0.5 -250.8075 1102.6971)" class="st8" width="1.6" height="519.7"/>
				
					<rect x="879.1" y="479.6" transform="matrix(0.5 -0.866 0.866 0.5 -200.4366 1131.7788)" class="st8" width="1.6" height="519.7"/>
				
					<rect x="929.5" y="450.6" transform="matrix(0.5 -0.866 0.866 0.5 -150.0656 1160.8505)" class="st8" width="1.6" height="519.7"/>
				
					<rect x="979.9" y="421.5" transform="matrix(0.5 -0.866 0.866 0.5 -99.7032 1189.9373)" class="st8" width="1.6" height="519.7"/>
				
					<rect x="1030.2" y="392.4" transform="matrix(0.5 -0.866 0.866 0.5 -49.3374 1219.0103)" class="st8" width="1.6" height="519.7"/>
				
					<rect x="1080.6" y="363.3" transform="matrix(0.5 -0.866 0.866 0.5 1.0337 1248.0919)" class="st8" width="1.6" height="519.7"/>
			</g>
			<g class="st11">
				
					<rect x="259.5" y="652.4" transform="matrix(0.8659 -0.5002 0.5002 0.8659 -249.0204 377.3329)" class="st8" width="639.8" height="1.6"/>
				
					<rect x="309.5" y="681.3" transform="matrix(0.8659 -0.5002 0.5002 0.8659 -256.7582 406.2092)" class="st8" width="639.8" height="1.6"/>
				
					<rect x="359.5" y="710.1" transform="matrix(0.8659 -0.5002 0.5002 0.8659 -264.4947 435.0906)" class="st8" width="639.8" height="1.6"/>
				
					<rect x="409.5" y="739" transform="matrix(0.8659 -0.5002 0.5002 0.8659 -272.2289 463.9706)" class="st8" width="639.8" height="1.6"/>
				
					<rect x="459.5" y="767.9" transform="matrix(0.8659 -0.5002 0.5002 0.8659 -279.9653 492.8519)" class="st8" width="639.8" height="1.6"/>
				
					<rect x="509.5" y="796.7" transform="matrix(0.8659 -0.5002 0.5002 0.8659 -287.6995 521.7319)" class="st8" width="639.8" height="1.6"/>
				
					<rect x="559.5" y="825.6" transform="matrix(0.8659 -0.5002 0.5002 0.8659 -295.4373 550.6082)" class="st8" width="639.8" height="1.6"/>
				
					<rect x="609.5" y="854.5" transform="matrix(0.8659 -0.5002 0.5002 0.8659 -303.1701 579.4932)" class="st8" width="639.8" height="1.6"/>
				
					<rect x="659.5" y="883.4" transform="matrix(0.8659 -0.5002 0.5002 0.8659 -310.9079 608.3696)" class="st8" width="639.8" height="1.6"/>
				
					<rect x="709.5" y="912.2" transform="matrix(0.8659 -0.5002 0.5002 0.8659 -318.6443 637.2509)" class="st8" width="639.8" height="1.6"/>
			</g>
		</g>
	</g>
	<polygon class="st5" points="1148.7,255 1148.7,496.5 1002.5,412.1 1002.5,170.6 	"/>
	<polygon class="st12" points="1090.7,433 1148.7,466.5 1148.7,343.2 1090.7,309.7 	"/>
	<polygon class="st13" points="1096.4,312.9 1096.4,429.9 1148.7,460.1 1148.7,466.5 1090.7,433 1090.7,309.7 	"/>
	<polygon class="st12" points="1090.7,300.1 1148.7,333.6 1148.7,255 1090.7,221.5 	"/>
	<polygon class="st13" points="1096.4,224.8 1096.4,297 1148.7,327.2 1148.7,333.6 1090.7,300.1 1090.7,221.5 	"/>
	<polygon class="st12" points="1027.3,396.4 1085.3,429.9 1085.3,306.6 1027.3,273.1 	"/>
	<polygon class="st13" points="1033,276.3 1033,393.3 1085.3,423.5 1085.3,429.9 1027.3,396.4 1027.3,273.1 	"/>
	<polygon class="st12" points="1027.3,263.5 1085.3,297 1085.3,218.4 1027.3,184.9 	"/>
	<polygon class="st13" points="1033,188.2 1033,260.4 1085.3,290.6 1085.3,297 1027.3,263.5 1027.3,184.9 	"/>
	<polygon class="st5" points="1022.2,182 1022.2,400.7 1002.5,412.1 1002.5,170.6 	"/>
	<polygon class="st14" points="1022.2,400.7 1148.7,473.8 1148.7,496.5 1002.5,412.1 	"/>
	<polygon class="st5" points="1147.2,477.4 1130.7,486.1 1147.2,477.4 1089.2,443.9 1072.7,452.7 1067.3,449.5 1083.8,440.8 
		1025.8,407.3 1009.3,416.1 1002.5,412.1 1022.2,400.7 1148.7,473.8 1148.7,496.5 1130.7,486.1 	"/>
	<polygon class="st5" points="1002.5,412.1 1148.7,496.5 1148.7,505.8 1002.5,421.4 	"/>
	<polygon class="st15" points="203.9,760.3 324.5,828.4 324.5,828.4 	"/>
	<polygon class="st15" points="859.6,502 324.5,811.8 324.5,787.7 859.5,475.4 	"/>
	<polygon class="st8" points="324.5,787.7 324.5,811.8 324.5,828.4 203.9,760.3 203.8,718 	"/>
	<polygon class="st9" points="324.5,811.8 324.5,828.4 324.5,828.4 	"/>
	<path class="st3" d="M486.6,713.1l142-88.8v-47.9l-15.9,9.1V549l-46.2,27.4v35.9L534,631.1l-47.3-28.5v-35.3l-60.6,35V634
		l-29.4,14.9c-7.9,4-12.8,12.1-12.8,20.9v107.7l91.2,52l146.4-85.9l-39-21.2L426.4,754l3.2-91.2L486.6,713.1z"/>
	<g>
		<polygon class="st16" points="666.6,722.9 710.9,697.2 711,648 666.7,673.7 		"/>
		<polygon class="st17" points="666.7,673.7 711,648 668.2,623.3 623.9,649 		"/>
		<polygon class="st18" points="623.9,649 623.8,698.2 666.6,722.9 666.7,673.7 		"/>
	</g>
	<g>
		<g>
			<defs>
				<polygon id="SVGID_00000075163971759224125940000018122416222887252618_" points="692.3,659 649.6,634.2 646.2,636.2 688.9,661 
									"/>
			</defs>
			<clipPath id="SVGID_00000084495694147121305310000007541089519438852504_">
				<use xlink:href="#SVGID_00000075163971759224125940000018122416222887252618_"  style="overflow:visible;"/>
			</clipPath>
			<g style="clip-path:url(#SVGID_00000084495694147121305310000007541089519438852504_);">
				<polyline class="st20" points="646.2,636.2 649.6,634.2 692.3,659 688.9,661 646.2,636.2 				"/>
			</g>
		</g>
	</g>
	<g>
		<g>
			<defs>
				<polygon id="SVGID_00000021839132113145232500000006424222379297825967_" points="692.3,664.8 692.3,658.9 688.9,660.9 
					688.9,666.8 				"/>
			</defs>
			<clipPath id="SVGID_00000153671580927981010040000011507249941506581924_">
				<use xlink:href="#SVGID_00000021839132113145232500000006424222379297825967_"  style="overflow:visible;"/>
			</clipPath>
			<g style="clip-path:url(#SVGID_00000153671580927981010040000011507249941506581924_);">
				<polyline class="st20" points="688.9,660.9 692.3,658.9 692.3,664.8 688.9,666.8 688.9,660.9 				"/>
			</g>
		</g>
	</g>
	<g>
		<polygon class="st16" points="578.5,724 622.8,698.3 622.9,649.1 578.6,674.8 		"/>
		<polygon class="st17" points="578.6,674.8 622.9,649.1 580.1,624.4 535.8,650.1 		"/>
		<polygon class="st18" points="535.8,650.1 535.7,699.3 578.5,724 578.6,674.8 		"/>
	</g>
	<g>
		<g>
			<defs>
				<polygon id="SVGID_00000006665574383885641420000002578706748180555676_" points="604.2,660.1 561.5,635.3 558.1,637.3 
					600.8,662 				"/>
			</defs>
			<clipPath id="SVGID_00000177485403974575822840000004596063239062360762_">
				<use xlink:href="#SVGID_00000006665574383885641420000002578706748180555676_"  style="overflow:visible;"/>
			</clipPath>
			<g style="clip-path:url(#SVGID_00000177485403974575822840000004596063239062360762_);">
				<polyline class="st20" points="558.1,637.3 561.5,635.3 604.2,660.1 600.8,662 558.1,637.3 				"/>
			</g>
		</g>
	</g>
	<g>
		<g>
			<defs>
				<polygon id="SVGID_00000018238681215963407950000013832057026506443932_" points="604.2,665.9 604.2,660 600.8,662 600.8,667.9 
									"/>
			</defs>
			<clipPath id="SVGID_00000168812700088600383490000005311142490983826098_">
				<use xlink:href="#SVGID_00000018238681215963407950000013832057026506443932_"  style="overflow:visible;"/>
			</clipPath>
			<g style="clip-path:url(#SVGID_00000168812700088600383490000005311142490983826098_);">
				<polyline class="st20" points="600.8,662 604.2,660 604.2,665.9 600.8,667.9 600.8,662 				"/>
			</g>
		</g>
	</g>
	<g>
		<polygon class="st16" points="621.5,748.9 665.8,723.2 666,673.9 621.7,699.7 		"/>
		<polygon class="st17" points="621.7,699.7 666,673.9 623.2,649.2 578.8,675 		"/>
		<polygon class="st24" points="578.8,675 578.7,724.2 621.5,748.9 621.7,699.7 		"/>
	</g>
	<g>
		<g>
			<defs>
				<polygon id="SVGID_00000041297733555817072780000017540714790449338285_" points="647.2,685 604.5,660.2 601.1,662.1 
					643.8,686.9 				"/>
			</defs>
			<clipPath id="SVGID_00000162313305633987855810000009215359371434591627_">
				<use xlink:href="#SVGID_00000041297733555817072780000017540714790449338285_"  style="overflow:visible;"/>
			</clipPath>
			<g style="clip-path:url(#SVGID_00000162313305633987855810000009215359371434591627_);">
				<polyline class="st20" points="601.1,662.1 604.5,660.2 647.2,685 643.8,686.9 601.1,662.1 				"/>
			</g>
		</g>
	</g>
	<g>
		<g>
			<defs>
				<polygon id="SVGID_00000090280453117565945190000008472443563021514673_" points="647.2,690.8 647.2,684.9 643.8,686.8 
					643.8,692.8 				"/>
			</defs>
			<clipPath id="SVGID_00000069388643844767666090000016641134720099697793_">
				<use xlink:href="#SVGID_00000090280453117565945190000008472443563021514673_"  style="overflow:visible;"/>
			</clipPath>
			<g style="clip-path:url(#SVGID_00000069388643844767666090000016641134720099697793_);">
				<polyline class="st20" points="643.8,686.8 647.2,684.9 647.2,690.8 643.8,692.8 643.8,686.8 				"/>
			</g>
		</g>
	</g>
	<g>
		<polygon class="st16" points="633.1,682.8 677.4,657 677.5,607.8 633.2,633.5 		"/>
		<polygon class="st17" points="633.2,633.5 677.5,607.8 634.8,583.1 590.4,608.8 		"/>
		<polygon class="st18" points="590.4,608.8 590.3,658 633.1,682.8 633.2,633.5 		"/>
	</g>
	<g>
		<g>
			<defs>
				<polygon id="SVGID_00000034067799360438095420000010987755268199079050_" points="658.8,618.8 616.1,594 612.7,596 655.4,620.8 
									"/>
			</defs>
			<clipPath id="SVGID_00000075156599095461440410000011890892106716149122_">
				<use xlink:href="#SVGID_00000034067799360438095420000010987755268199079050_"  style="overflow:visible;"/>
			</clipPath>
			<g style="clip-path:url(#SVGID_00000075156599095461440410000011890892106716149122_);">
				<polyline class="st20" points="612.7,596 616.1,594 658.8,618.8 655.4,620.8 612.7,596 				"/>
			</g>
		</g>
	</g>
	<g>
		<g>
			<defs>
				<polygon id="SVGID_00000124869626118236483110000007831196886247354801_" points="658.8,624.7 658.8,618.7 655.4,620.7 
					655.4,626.6 				"/>
			</defs>
			<clipPath id="SVGID_00000176004343083039253480000011439909107093291174_">
				<use xlink:href="#SVGID_00000124869626118236483110000007831196886247354801_"  style="overflow:visible;"/>
			</clipPath>
			<g style="clip-path:url(#SVGID_00000176004343083039253480000011439909107093291174_);">
				<polyline class="st20" points="655.4,620.7 658.8,618.7 658.8,624.7 655.4,626.6 655.4,620.7 				"/>
			</g>
		</g>
	</g>
	<polygon class="st14" points="324.5,811.8 350.9,796 782.3,1045.1 755.6,1060.6 	"/>
	<path class="st5" d="M480.8,792.6v32.1c0,1.8-2.7,3.2-6,3.2s-6-1.4-6-3.2v-32.1H480.8z"/>
	<path class="st5" d="M415.5,752.4v34.3c0,1.8-2.7,3.2-6,3.2s-6-1.4-6-3.2v-34.3H415.5z"/>
	<path class="st5" d="M585.2,735v30c0,1.8-2.7,3.2-6,3.2s-6-1.4-6-3.2v-30H585.2z"/>
	<path class="st29" d="M405.1,658.2l81.7-46.9c1.1-0.7,2.4-1,3.7-0.7l0.1-0.1c2.8-0.1,5.6,0.8,7.8,2.6c2.5,2,4.6,4.4,6.3,7.1
		l-10.8,8.8v44.8c0,5.2-3.2,11.2-7,13.5l-81.7,46.9c-3.9,2.2-7-0.2-7-5.3v-57.2C398,666.5,401.2,660.5,405.1,658.2z"/>
	<path class="st30" d="M409.8,726.6c1,2.7,2.9,4.9,5.3,6.2c6.9,4,10,3,10,3l0.8-13.5l-12.1-3.2L409.8,726.6z"/>
	<path class="st31" d="M416.5,741.2l81.7-46.9c3.9-2.2,7-8.3,7-13.5v-57.2c0-5.2-3.2-7.6-7-5.3l-81.7,46.9c-3.9,2.2-7,8.3-7,13.5
		v57.2C409.5,741,412.6,743.4,416.5,741.2z"/>
	<path class="st32" d="M503.2,632.5c1.6-2.5,3.7-4.8,6-6.7c2.1-1.7,4.7-2.5,7.3-2.4l0.1,0.1c1.2-0.3,2.5,0,3.5,0.7l66.9,38.6
		c3.7,2.1,6.7,7.9,6.7,12.8v54.1c0,1.2-0.2,2.5-0.8,3.6l0,0c-0.9,2.5-2.7,4.6-5,5.9c-6.5,3.8-9.5,2.9-9.5,2.9l-0.8-12.8L520.1,696
		c-3.7-2.1-6.7-7.8-6.7-12.7v-42.4L503.2,632.5z"/>
	<path class="st29" d="M576.2,741.2l-66.9-38.6c-3.7-2.1-6.7-7.8-6.7-12.7v-54.1c0-4.9,3-7.2,6.7-5l66.9,38.6
		c3.7,2.1,6.7,7.8,6.7,12.8v54.1C582.8,741,579.8,743.3,576.2,741.2z"/>
	<path class="st31" d="M417.9,742.7l71.3-45.6c3.7-2.2,10.3-1.9,14.6,0.6l49.8,28.8l21.9-10.5c4.4,4.3,3.9,12.1,3.9,19.1
		s-2.2,8.8-5.7,10.9L499,789.5c-3.7,2.2-10.3,1.9-14.6-0.6L419,751.1C414.7,748.7,414.2,744.9,417.9,742.7z"/>
	<path class="st33" d="M573.8,721.7L499,765.4c-3.7,2.2-10.3,1.9-14.6-0.6L419,727c-4.3-2.5-4.8-6.3-1-8.4l74.8-43.6
		c3.7-2.2,10.3-1.9,14.6,0.6l65.5,37.8C577.1,715.8,577.5,719.6,573.8,721.7z"/>
	<path class="st32" d="M398.8,693.6c1.6-2.5,3.7-4.8,6-6.7c2.1-1.7,4.7-2.5,7.3-2.4l0.1,0.1c1.2-0.3,2.5,0,3.5,0.7l66.9,38.6
		c3.7,2.1,6.7,7.8,6.7,12.7v54.1c0,1.2-0.2,2.4-0.8,3.6l0,0c-0.9,2.5-2.7,4.6-5,5.9c-6.5,3.8-9.5,2.9-9.5,2.9l-0.8-12.8l0,0
		l-57.5-33.2c-3.7-2.2-6.7-7.9-6.7-12.8V702L398.8,693.6z"/>
	<path class="st31" d="M471.8,802.3l-66.9-38.6c-3.7-2.1-6.7-7.9-6.7-12.8v-54.1c0-4.9,3-7.2,6.7-5l66.9,38.6
		c3.7,2.1,6.7,7.9,6.7,12.8v54.1C478.4,802.2,475.4,804.5,471.8,802.3z"/>
	<line class="st34" x1="355.6" y1="803.2" x2="341.1" y2="811.6"/>
	<line class="st34" x1="357.8" y1="804.5" x2="349.6" y2="809.3"/>
	<line class="st34" x1="360" y1="805.8" x2="351.8" y2="810.5"/>
	<line class="st34" x1="362.2" y1="807" x2="354" y2="811.8"/>
	<line class="st34" x1="364.5" y1="808.3" x2="356.2" y2="813.1"/>
	<line class="st34" x1="366.7" y1="809.6" x2="358.4" y2="814.4"/>
	<line class="st34" x1="368.9" y1="810.9" x2="360.6" y2="815.6"/>
	<line class="st34" x1="371.1" y1="812.1" x2="362.8" y2="816.9"/>
	<line class="st34" x1="388.7" y1="822.4" x2="380.4" y2="827.2"/>
	<line class="st34" x1="386.5" y1="821.1" x2="378.2" y2="825.9"/>
	<line class="st34" x1="384.3" y1="819.8" x2="376" y2="824.6"/>
	<line class="st34" x1="382.1" y1="818.6" x2="373.8" y2="823.3"/>
	<line class="st34" x1="379.9" y1="817.3" x2="371.6" y2="822.1"/>
	<line class="st34" x1="377.7" y1="816" x2="369.4" y2="820.8"/>
	<line class="st34" x1="375.5" y1="814.7" x2="367.2" y2="819.5"/>
	<line class="st34" x1="373.3" y1="813.4" x2="363" y2="819.3"/>
	<line class="st34" x1="391" y1="823.6" x2="376.4" y2="832"/>
	<line class="st34" x1="393.2" y1="824.9" x2="384.9" y2="829.7"/>
	<line class="st34" x1="395.4" y1="826.2" x2="387.1" y2="831"/>
	<line class="st34" x1="397.6" y1="827.5" x2="389.4" y2="832.2"/>
	<line class="st34" x1="399.8" y1="828.7" x2="391.6" y2="833.5"/>
	<line class="st34" x1="402" y1="830" x2="393.8" y2="834.8"/>
	<line class="st34" x1="404.2" y1="831.3" x2="396" y2="836.1"/>
	<line class="st34" x1="406.5" y1="832.6" x2="398.2" y2="837.3"/>
	<line class="st34" x1="424.1" y1="842.8" x2="415.8" y2="847.6"/>
	<line class="st34" x1="421.9" y1="841.5" x2="413.6" y2="846.3"/>
	<line class="st34" x1="419.7" y1="840.3" x2="411.4" y2="845"/>
	<line class="st34" x1="417.5" y1="839" x2="409.2" y2="843.8"/>
	<line class="st34" x1="415.2" y1="837.7" x2="407" y2="842.5"/>
	<line class="st34" x1="413" y1="836.4" x2="404.8" y2="841.2"/>
	<line class="st34" x1="410.8" y1="835.2" x2="402.6" y2="839.9"/>
	<line class="st34" x1="408.7" y1="833.8" x2="398.4" y2="839.8"/>
	<line class="st34" x1="426.4" y1="844" x2="411.8" y2="852.5"/>
	<line class="st34" x1="428.6" y1="845.3" x2="420.3" y2="850.1"/>
	<line class="st34" x1="430.8" y1="846.6" x2="422.5" y2="851.4"/>
	<line class="st34" x1="433" y1="847.9" x2="424.7" y2="852.7"/>
	<line class="st34" x1="435.2" y1="849.2" x2="426.9" y2="853.9"/>
	<line class="st34" x1="437.4" y1="850.4" x2="429.1" y2="855.2"/>
	<line class="st34" x1="439.6" y1="851.7" x2="431.4" y2="856.5"/>
	<line class="st34" x1="441.8" y1="853" x2="433.6" y2="857.8"/>
	<line class="st34" x1="459.5" y1="863.2" x2="451.2" y2="868"/>
	<line class="st34" x1="457.2" y1="862" x2="449" y2="866.8"/>
	<line class="st34" x1="455" y1="860.7" x2="446.8" y2="865.5"/>
	<line class="st34" x1="452.8" y1="859.4" x2="444.6" y2="864.2"/>
	<line class="st34" x1="450.6" y1="858.1" x2="442.4" y2="862.9"/>
	<line class="st34" x1="448.4" y1="856.9" x2="440.1" y2="861.6"/>
	<line class="st34" x1="446.2" y1="855.6" x2="437.9" y2="860.4"/>
	<line class="st34" x1="444" y1="854.3" x2="433.8" y2="860.2"/>
	<line class="st34" x1="461.7" y1="864.5" x2="447.2" y2="872.9"/>
	<line class="st34" x1="464" y1="865.8" x2="455.7" y2="870.5"/>
	<line class="st34" x1="466.2" y1="867" x2="457.9" y2="871.8"/>
	<line class="st34" x1="468.4" y1="868.3" x2="460.1" y2="873.1"/>
	<line class="st34" x1="470.6" y1="869.6" x2="462.3" y2="874.4"/>
	<line class="st34" x1="472.8" y1="870.8" x2="464.5" y2="875.6"/>
	<line class="st34" x1="475" y1="872.1" x2="466.7" y2="876.9"/>
	<line class="st34" x1="477.2" y1="873.4" x2="468.9" y2="878.2"/>
	<line class="st34" x1="494.8" y1="883.7" x2="486.6" y2="888.4"/>
	<line class="st34" x1="492.6" y1="882.4" x2="484.4" y2="887.2"/>
	<line class="st34" x1="490.4" y1="881.1" x2="482.1" y2="885.9"/>
	<line class="st34" x1="488.2" y1="879.8" x2="479.9" y2="884.6"/>
	<line class="st34" x1="486" y1="878.6" x2="477.7" y2="883.3"/>
	<line class="st34" x1="483.8" y1="877.3" x2="475.5" y2="882.1"/>
	<line class="st34" x1="481.6" y1="876" x2="473.3" y2="880.8"/>
	<line class="st34" x1="479.4" y1="874.7" x2="469.1" y2="880.6"/>
	<line class="st34" x1="497.1" y1="884.9" x2="482.6" y2="893.3"/>
	<line class="st34" x1="499.3" y1="886.2" x2="491" y2="891"/>
	<line class="st34" x1="501.5" y1="887.5" x2="493.3" y2="892.2"/>
	<line class="st34" x1="503.8" y1="888.7" x2="495.5" y2="893.5"/>
	<line class="st34" x1="506" y1="890" x2="497.7" y2="894.8"/>
	<line class="st34" x1="508.2" y1="891.3" x2="499.9" y2="896"/>
	<line class="st34" x1="510.4" y1="892.5" x2="502.1" y2="897.3"/>
	<line class="st34" x1="512.6" y1="893.8" x2="504.3" y2="898.6"/>
	<line class="st34" x1="530.2" y1="904.1" x2="521.9" y2="908.9"/>
	<line class="st34" x1="528" y1="902.8" x2="519.7" y2="907.6"/>
	<line class="st34" x1="525.8" y1="901.5" x2="517.5" y2="906.3"/>
	<line class="st34" x1="523.6" y1="900.3" x2="515.3" y2="905"/>
	<line class="st34" x1="521.4" y1="899" x2="513.1" y2="903.8"/>
	<line class="st34" x1="519.2" y1="897.7" x2="510.9" y2="902.5"/>
	<line class="st34" x1="517" y1="896.4" x2="508.7" y2="901.2"/>
	<line class="st34" x1="514.8" y1="895.1" x2="504.5" y2="901"/>
	<line class="st34" x1="532.5" y1="905.3" x2="517.9" y2="913.7"/>
	<line class="st34" x1="534.7" y1="906.6" x2="526.4" y2="911.4"/>
	<line class="st34" x1="536.9" y1="907.9" x2="528.6" y2="912.7"/>
	<line class="st34" x1="539.1" y1="909.2" x2="530.8" y2="913.9"/>
	<line class="st34" x1="541.3" y1="910.4" x2="533.1" y2="915.2"/>
	<line class="st34" x1="543.5" y1="911.7" x2="535.3" y2="916.5"/>
	<line class="st34" x1="545.8" y1="913" x2="537.5" y2="917.8"/>
	<line class="st34" x1="548" y1="914.2" x2="539.7" y2="919"/>
	<line class="st34" x1="565.6" y1="924.5" x2="557.3" y2="929.3"/>
	<line class="st34" x1="563.4" y1="923.2" x2="555.1" y2="928"/>
	<line class="st34" x1="561.2" y1="922" x2="552.9" y2="926.7"/>
	<line class="st34" x1="559" y1="920.7" x2="550.7" y2="925.5"/>
	<line class="st34" x1="556.8" y1="919.4" x2="548.5" y2="924.2"/>
	<line class="st34" x1="554.5" y1="918.1" x2="546.3" y2="922.9"/>
	<line class="st34" x1="552.3" y1="916.9" x2="544" y2="921.6"/>
	<line class="st34" x1="550.2" y1="915.5" x2="539.9" y2="921.5"/>
	<line class="st34" x1="567.9" y1="925.8" x2="553.3" y2="934.2"/>
	<line class="st34" x1="570.1" y1="927" x2="561.8" y2="931.8"/>
	<line class="st34" x1="572.3" y1="928.3" x2="564" y2="933.1"/>
	<line class="st34" x1="574.5" y1="929.6" x2="566.2" y2="934.3"/>
	<line class="st34" x1="576.7" y1="930.8" x2="568.4" y2="935.6"/>
	<line class="st34" x1="578.9" y1="932.1" x2="570.6" y2="936.9"/>
	<line class="st34" x1="581.1" y1="933.4" x2="572.8" y2="938.2"/>
	<line class="st34" x1="583.3" y1="934.7" x2="575.1" y2="939.5"/>
	<line class="st34" x1="601" y1="944.9" x2="592.7" y2="949.7"/>
	<line class="st34" x1="598.8" y1="943.7" x2="590.5" y2="948.4"/>
	<line class="st34" x1="596.5" y1="942.4" x2="588.3" y2="947.2"/>
	<line class="st34" x1="594.3" y1="941.1" x2="586.1" y2="945.9"/>
	<line class="st34" x1="592.1" y1="939.8" x2="583.8" y2="944.6"/>
	<line class="st34" x1="589.9" y1="938.6" x2="581.6" y2="943.3"/>
	<line class="st34" x1="587.7" y1="937.3" x2="579.4" y2="942.1"/>
	<line class="st34" x1="585.5" y1="936" x2="575.3" y2="941.9"/>
	<line class="st34" x1="603.2" y1="946.2" x2="588.7" y2="954.6"/>
	<line class="st34" x1="605.5" y1="947.4" x2="597.2" y2="952.2"/>
	<line class="st34" x1="607.7" y1="948.7" x2="599.4" y2="953.5"/>
	<line class="st34" x1="609.9" y1="950" x2="601.6" y2="954.8"/>
	<line class="st34" x1="612.1" y1="951.3" x2="603.8" y2="956"/>
	<line class="st34" x1="614.3" y1="952.5" x2="606" y2="957.3"/>
	<line class="st34" x1="616.5" y1="953.8" x2="608.2" y2="958.6"/>
	<line class="st34" x1="618.7" y1="955.1" x2="610.4" y2="959.9"/>
	<line class="st34" x1="636.3" y1="965.4" x2="628.1" y2="970.1"/>
	<line class="st34" x1="634.1" y1="964.1" x2="625.8" y2="968.9"/>
	<line class="st34" x1="631.9" y1="962.8" x2="623.6" y2="967.6"/>
	<line class="st34" x1="629.7" y1="961.5" x2="621.4" y2="966.3"/>
	<line class="st34" x1="627.5" y1="960.3" x2="619.2" y2="965"/>
	<line class="st34" x1="625.3" y1="959" x2="617" y2="963.8"/>
	<line class="st34" x1="623.1" y1="957.7" x2="614.8" y2="962.5"/>
	<line class="st34" x1="620.9" y1="956.4" x2="610.7" y2="962.3"/>
	<line class="st34" x1="638.6" y1="966.6" x2="624.1" y2="975"/>
	<line class="st34" x1="640.8" y1="967.9" x2="632.5" y2="972.7"/>
	<line class="st34" x1="643" y1="969.1" x2="634.8" y2="973.9"/>
	<line class="st34" x1="645.2" y1="970.4" x2="637" y2="975.2"/>
	<line class="st34" x1="647.5" y1="971.7" x2="639.2" y2="976.5"/>
	<line class="st34" x1="649.7" y1="973" x2="641.4" y2="977.8"/>
	<line class="st34" x1="651.9" y1="974.2" x2="643.6" y2="979"/>
	<line class="st34" x1="654.1" y1="975.5" x2="645.8" y2="980.3"/>
	<line class="st34" x1="671.7" y1="985.8" x2="663.4" y2="990.6"/>
	<line class="st34" x1="669.5" y1="984.5" x2="661.2" y2="989.3"/>
	<line class="st34" x1="667.3" y1="983.2" x2="659" y2="988"/>
	<line class="st34" x1="665.1" y1="982" x2="656.8" y2="986.7"/>
	<line class="st34" x1="662.9" y1="980.7" x2="654.6" y2="985.5"/>
	<line class="st34" x1="660.7" y1="979.4" x2="652.4" y2="984.2"/>
	<line class="st34" x1="658.5" y1="978.1" x2="650.2" y2="982.9"/>
	<line class="st34" x1="656.3" y1="976.8" x2="646" y2="982.7"/>
	<line class="st34" x1="674" y1="987" x2="659.4" y2="995.4"/>
	<line class="st34" x1="676.2" y1="988.3" x2="667.9" y2="993.1"/>
	<line class="st34" x1="678.4" y1="989.6" x2="670.1" y2="994.3"/>
	<line class="st34" x1="680.6" y1="990.8" x2="672.3" y2="995.6"/>
	<line class="st34" x1="682.8" y1="992.1" x2="674.5" y2="996.9"/>
	<line class="st34" x1="685" y1="993.4" x2="676.8" y2="998.2"/>
	<line class="st34" x1="687.2" y1="994.7" x2="679" y2="999.5"/>
	<line class="st34" x1="689.5" y1="995.9" x2="681.2" y2="1000.7"/>
	<line class="st34" x1="707.1" y1="1006.2" x2="698.8" y2="1011"/>
	<line class="st34" x1="704.9" y1="1004.9" x2="696.6" y2="1009.7"/>
	<line class="st34" x1="702.7" y1="1003.7" x2="694.4" y2="1008.4"/>
	<line class="st34" x1="700.5" y1="1002.4" x2="692.2" y2="1007.2"/>
	<line class="st34" x1="698.2" y1="1001.1" x2="690" y2="1005.9"/>
	<line class="st34" x1="696" y1="999.8" x2="687.8" y2="1004.6"/>
	<line class="st34" x1="693.8" y1="998.5" x2="685.5" y2="1003.3"/>
	<line class="st34" x1="691.7" y1="997.2" x2="681.4" y2="1003.2"/>
	<line class="st34" x1="709.4" y1="1007.4" x2="694.8" y2="1015.8"/>
	<line class="st34" x1="711.6" y1="1008.7" x2="703.3" y2="1013.5"/>
	<line class="st34" x1="713.8" y1="1010" x2="705.5" y2="1014.8"/>
	<line class="st34" x1="716" y1="1011.3" x2="707.7" y2="1016"/>
	<line class="st34" x1="718.2" y1="1012.5" x2="709.9" y2="1017.3"/>
	<line class="st34" x1="720.4" y1="1013.8" x2="712.1" y2="1018.6"/>
	<line class="st34" x1="722.6" y1="1015.1" x2="714.3" y2="1019.9"/>
	<line class="st34" x1="724.8" y1="1016.4" x2="716.6" y2="1021.2"/>
	<line class="st34" x1="742.5" y1="1026.6" x2="734.2" y2="1031.4"/>
	<line class="st34" x1="740.2" y1="1025.3" x2="732" y2="1030.1"/>
	<line class="st34" x1="738" y1="1024.1" x2="729.8" y2="1028.9"/>
	<line class="st34" x1="735.8" y1="1022.8" x2="727.5" y2="1027.6"/>
	<line class="st34" x1="733.6" y1="1021.5" x2="725.3" y2="1026.3"/>
	<line class="st34" x1="731.4" y1="1020.2" x2="723.1" y2="1025"/>
	<line class="st34" x1="729.2" y1="1019" x2="720.9" y2="1023.8"/>
	<line class="st34" x1="727" y1="1017.6" x2="716.8" y2="1023.6"/>
	<line class="st34" x1="744.7" y1="1027.9" x2="730.2" y2="1036.3"/>
	<line class="st34" x1="747" y1="1029.1" x2="738.7" y2="1033.9"/>
	<line class="st34" x1="749.2" y1="1030.4" x2="740.9" y2="1035.2"/>
	<line class="st34" x1="751.4" y1="1031.7" x2="743.1" y2="1036.5"/>
	<line class="st34" x1="753.6" y1="1033" x2="745.3" y2="1037.7"/>
	<line class="st34" x1="755.8" y1="1034.2" x2="747.5" y2="1039"/>
	<line class="st34" x1="758" y1="1035.5" x2="749.7" y2="1040.3"/>
	<line class="st34" x1="760.2" y1="1036.8" x2="751.9" y2="1041.6"/>
	<line class="st34" x1="777.8" y1="1047.1" x2="769.6" y2="1051.8"/>
	<line class="st34" x1="775.6" y1="1045.8" x2="767.3" y2="1050.6"/>
	<line class="st34" x1="773.4" y1="1044.5" x2="765.1" y2="1049.3"/>
	<line class="st34" x1="771.2" y1="1043.2" x2="762.9" y2="1048"/>
	<line class="st34" x1="769" y1="1041.9" x2="760.7" y2="1046.7"/>
	<line class="st34" x1="766.8" y1="1040.7" x2="758.5" y2="1045.4"/>
	<line class="st34" x1="764.6" y1="1039.4" x2="756.3" y2="1044.2"/>
	<line class="st34" x1="762.4" y1="1038.1" x2="752.2" y2="1044"/>
	<line class="st34" x1="780.1" y1="1048.3" x2="765.6" y2="1056.7"/>
	<polygon class="st14" points="1290.7,750.9 1262.2,734.4 725.7,1043.4 755.6,1060.6 	"/>
	<line class="st34" x1="1264.2" y1="738.3" x2="1278.8" y2="746.7"/>
	<line class="st34" x1="1262" y1="739.5" x2="1270.3" y2="744.3"/>
	<line class="st34" x1="1259.8" y1="740.8" x2="1268.1" y2="745.6"/>
	<line class="st34" x1="1257.6" y1="742.1" x2="1265.8" y2="746.9"/>
	<line class="st34" x1="1255.4" y1="743.4" x2="1263.6" y2="748.2"/>
	<line class="st34" x1="1253.2" y1="744.7" x2="1261.4" y2="749.4"/>
	<line class="st34" x1="1250.9" y1="745.9" x2="1259.2" y2="750.7"/>
	<line class="st34" x1="1248.7" y1="747.2" x2="1257" y2="752"/>
	<line class="st34" x1="1231.1" y1="757.5" x2="1239.4" y2="762.2"/>
	<line class="st34" x1="1233.3" y1="756.2" x2="1241.6" y2="761"/>
	<line class="st34" x1="1235.5" y1="754.9" x2="1243.8" y2="759.7"/>
	<line class="st34" x1="1237.7" y1="753.6" x2="1246" y2="758.4"/>
	<line class="st34" x1="1239.9" y1="752.4" x2="1248.2" y2="757.1"/>
	<line class="st34" x1="1242.2" y1="751.1" x2="1250.4" y2="755.9"/>
	<line class="st34" x1="1244.4" y1="749.8" x2="1252.6" y2="754.6"/>
	<line class="st34" x1="1246.5" y1="748.5" x2="1256.8" y2="754.4"/>
	<line class="st34" x1="1228.8" y1="758.7" x2="1243.4" y2="767.1"/>
	<line class="st34" x1="1226.6" y1="760" x2="1234.9" y2="764.8"/>
	<line class="st34" x1="1224.4" y1="761.2" x2="1232.7" y2="766"/>
	<line class="st34" x1="1222.2" y1="762.5" x2="1230.5" y2="767.3"/>
	<line class="st34" x1="1220" y1="763.8" x2="1228.3" y2="768.6"/>
	<line class="st34" x1="1217.8" y1="765.1" x2="1226.1" y2="769.9"/>
	<line class="st34" x1="1215.6" y1="766.3" x2="1223.8" y2="771.1"/>
	<line class="st34" x1="1213.4" y1="767.6" x2="1221.6" y2="772.4"/>
	<line class="st34" x1="1195.7" y1="777.9" x2="1204" y2="782.7"/>
	<line class="st34" x1="1197.9" y1="776.6" x2="1206.2" y2="781.4"/>
	<line class="st34" x1="1200.2" y1="775.3" x2="1208.4" y2="780.1"/>
	<line class="st34" x1="1202.4" y1="774.1" x2="1210.6" y2="778.8"/>
	<line class="st34" x1="1204.6" y1="772.8" x2="1212.8" y2="777.6"/>
	<line class="st34" x1="1206.8" y1="771.5" x2="1215.1" y2="776.3"/>
	<line class="st34" x1="1209" y1="770.2" x2="1217.3" y2="775"/>
	<line class="st34" x1="1211.2" y1="768.9" x2="1221.4" y2="774.8"/>
	<line class="st34" x1="1193.4" y1="779.1" x2="1208" y2="787.5"/>
	<line class="st34" x1="1191.2" y1="780.4" x2="1199.5" y2="785.2"/>
	<line class="st34" x1="1189" y1="781.7" x2="1197.3" y2="786.5"/>
	<line class="st34" x1="1186.8" y1="783" x2="1195.1" y2="787.7"/>
	<line class="st34" x1="1184.6" y1="784.2" x2="1192.9" y2="789"/>
	<line class="st34" x1="1182.4" y1="785.5" x2="1190.7" y2="790.3"/>
	<line class="st34" x1="1180.2" y1="786.8" x2="1188.5" y2="791.6"/>
	<line class="st34" x1="1178" y1="788" x2="1186.3" y2="792.8"/>
	<line class="st34" x1="1160.4" y1="798.3" x2="1168.6" y2="803.1"/>
	<line class="st34" x1="1162.6" y1="797" x2="1170.8" y2="801.8"/>
	<line class="st34" x1="1164.8" y1="795.8" x2="1173.1" y2="800.5"/>
	<line class="st34" x1="1167" y1="794.5" x2="1175.3" y2="799.3"/>
	<line class="st34" x1="1169.2" y1="793.2" x2="1177.5" y2="798"/>
	<line class="st34" x1="1171.4" y1="791.9" x2="1179.7" y2="796.7"/>
	<line class="st34" x1="1173.6" y1="790.7" x2="1181.9" y2="795.4"/>
	<line class="st34" x1="1175.8" y1="789.3" x2="1186" y2="795.3"/>
	<line class="st34" x1="1158.1" y1="799.5" x2="1172.6" y2="808"/>
	<line class="st34" x1="1155.9" y1="800.8" x2="1164.1" y2="805.6"/>
	<line class="st34" x1="1153.7" y1="802.1" x2="1161.9" y2="806.9"/>
	<line class="st34" x1="1151.4" y1="803.4" x2="1159.7" y2="808.2"/>
	<line class="st34" x1="1149.2" y1="804.7" x2="1157.5" y2="809.4"/>
	<line class="st34" x1="1147" y1="805.9" x2="1155.3" y2="810.7"/>
	<line class="st34" x1="1144.8" y1="807.2" x2="1153.1" y2="812"/>
	<line class="st34" x1="1142.6" y1="808.5" x2="1150.9" y2="813.2"/>
	<line class="st34" x1="1125" y1="818.7" x2="1133.3" y2="823.5"/>
	<line class="st34" x1="1127.2" y1="817.5" x2="1135.5" y2="822.2"/>
	<line class="st34" x1="1129.4" y1="816.2" x2="1137.7" y2="821"/>
	<line class="st34" x1="1131.6" y1="814.9" x2="1139.9" y2="819.7"/>
	<line class="st34" x1="1133.8" y1="813.6" x2="1142.1" y2="818.4"/>
	<line class="st34" x1="1136" y1="812.4" x2="1144.3" y2="817.1"/>
	<line class="st34" x1="1138.2" y1="811.1" x2="1146.5" y2="815.9"/>
	<line class="st34" x1="1140.4" y1="809.8" x2="1150.7" y2="815.7"/>
	<line class="st34" x1="1122.7" y1="820" x2="1137.2" y2="828.4"/>
	<line class="st34" x1="1120.5" y1="821.2" x2="1128.8" y2="826"/>
	<line class="st34" x1="1118.3" y1="822.5" x2="1126.6" y2="827.3"/>
	<line class="st34" x1="1116.1" y1="823.8" x2="1124.3" y2="828.6"/>
	<line class="st34" x1="1113.9" y1="825.1" x2="1122.1" y2="829.8"/>
	<line class="st34" x1="1111.7" y1="826.3" x2="1119.9" y2="831.1"/>
	<line class="st34" x1="1109.4" y1="827.6" x2="1117.7" y2="832.4"/>
	<line class="st34" x1="1107.2" y1="828.9" x2="1115.5" y2="833.7"/>
	<line class="st34" x1="1089.6" y1="839.2" x2="1097.9" y2="843.9"/>
	<line class="st34" x1="1091.8" y1="837.9" x2="1100.1" y2="842.7"/>
	<line class="st34" x1="1094" y1="836.6" x2="1102.3" y2="841.4"/>
	<line class="st34" x1="1096.2" y1="835.3" x2="1104.5" y2="840.1"/>
	<line class="st34" x1="1098.4" y1="834.1" x2="1106.7" y2="838.8"/>
	<line class="st34" x1="1100.7" y1="832.8" x2="1108.9" y2="837.6"/>
	<line class="st34" x1="1102.9" y1="831.5" x2="1111.1" y2="836.3"/>
	<line class="st34" x1="1105" y1="830.2" x2="1115.3" y2="836.1"/>
	<line class="st34" x1="1087.3" y1="840.4" x2="1101.9" y2="848.8"/>
	<line class="st34" x1="1085.1" y1="841.7" x2="1093.4" y2="846.5"/>
	<line class="st34" x1="1082.9" y1="843" x2="1091.2" y2="847.7"/>
	<line class="st34" x1="1080.7" y1="844.2" x2="1089" y2="849"/>
	<line class="st34" x1="1078.5" y1="845.5" x2="1086.8" y2="850.3"/>
	<line class="st34" x1="1076.3" y1="846.8" x2="1084.6" y2="851.5"/>
	<line class="st34" x1="1074.1" y1="848" x2="1082.3" y2="852.8"/>
	<line class="st34" x1="1071.9" y1="849.3" x2="1080.1" y2="854.1"/>
	<line class="st34" x1="1054.2" y1="859.6" x2="1062.5" y2="864.4"/>
	<line class="st34" x1="1056.4" y1="858.3" x2="1064.7" y2="863.1"/>
	<line class="st34" x1="1058.7" y1="857" x2="1066.9" y2="861.8"/>
	<line class="st34" x1="1060.9" y1="855.8" x2="1069.1" y2="860.5"/>
	<line class="st34" x1="1063.1" y1="854.5" x2="1071.3" y2="859.3"/>
	<line class="st34" x1="1065.3" y1="853.2" x2="1073.6" y2="858"/>
	<line class="st34" x1="1067.5" y1="851.9" x2="1075.8" y2="856.7"/>
	<line class="st34" x1="1069.7" y1="850.6" x2="1079.9" y2="856.5"/>
	<line class="st34" x1="1051.9" y1="860.8" x2="1066.5" y2="869.2"/>
	<line class="st34" x1="1049.7" y1="862.1" x2="1058" y2="866.9"/>
	<line class="st34" x1="1047.5" y1="863.4" x2="1055.8" y2="868.2"/>
	<line class="st34" x1="1045.3" y1="864.6" x2="1053.6" y2="869.4"/>
	<line class="st34" x1="1043.1" y1="865.9" x2="1051.4" y2="870.7"/>
	<line class="st34" x1="1040.9" y1="867.2" x2="1049.2" y2="872"/>
	<line class="st34" x1="1038.7" y1="868.5" x2="1047" y2="873.2"/>
	<line class="st34" x1="1036.5" y1="869.8" x2="1044.8" y2="874.5"/>
	<line class="st34" x1="1018.9" y1="880" x2="1027.1" y2="884.8"/>
	<line class="st34" x1="1021.1" y1="878.7" x2="1029.3" y2="883.5"/>
	<line class="st34" x1="1023.3" y1="877.5" x2="1031.6" y2="882.2"/>
	<line class="st34" x1="1025.5" y1="876.2" x2="1033.8" y2="881"/>
	<line class="st34" x1="1027.7" y1="874.9" x2="1036" y2="879.7"/>
	<line class="st34" x1="1029.9" y1="873.6" x2="1038.2" y2="878.4"/>
	<line class="st34" x1="1032.1" y1="872.4" x2="1040.4" y2="877.1"/>
	<line class="st34" x1="1034.3" y1="871" x2="1044.5" y2="877"/>
	<line class="st34" x1="1016.6" y1="881.2" x2="1031.1" y2="889.7"/>
	<line class="st34" x1="1014.4" y1="882.5" x2="1022.6" y2="887.3"/>
	<line class="st34" x1="1012.2" y1="883.8" x2="1020.4" y2="888.6"/>
	<line class="st34" x1="1010" y1="885.1" x2="1018.2" y2="889.8"/>
	<line class="st34" x1="1007.7" y1="886.3" x2="1016" y2="891.1"/>
	<line class="st34" x1="1005.5" y1="887.6" x2="1013.8" y2="892.4"/>
	<line class="st34" x1="1003.3" y1="888.9" x2="1011.6" y2="893.7"/>
	<line class="st34" x1="1001.1" y1="890.2" x2="1009.4" y2="895"/>
	<line class="st34" x1="983.5" y1="900.4" x2="991.8" y2="905.2"/>
	<line class="st34" x1="985.7" y1="899.2" x2="994" y2="903.9"/>
	<line class="st34" x1="987.9" y1="897.9" x2="996.2" y2="902.7"/>
	<line class="st34" x1="990.1" y1="896.6" x2="998.4" y2="901.4"/>
	<line class="st34" x1="992.3" y1="895.3" x2="1000.6" y2="900.1"/>
	<line class="st34" x1="994.5" y1="894" x2="1002.8" y2="898.8"/>
	<line class="st34" x1="996.7" y1="892.8" x2="1005" y2="897.6"/>
	<line class="st34" x1="998.9" y1="891.5" x2="1009.2" y2="897.4"/>
	<line class="st34" x1="981.2" y1="901.7" x2="995.8" y2="910.1"/>
	<line class="st34" x1="979" y1="902.9" x2="987.3" y2="907.7"/>
	<line class="st34" x1="976.8" y1="904.2" x2="985.1" y2="909"/>
	<line class="st34" x1="974.6" y1="905.5" x2="982.8" y2="910.3"/>
	<line class="st34" x1="972.4" y1="906.8" x2="980.6" y2="911.5"/>
	<line class="st34" x1="970.2" y1="908" x2="978.4" y2="912.8"/>
	<line class="st34" x1="968" y1="909.3" x2="976.2" y2="914.1"/>
	<line class="st34" x1="965.7" y1="910.6" x2="974" y2="915.4"/>
	<line class="st34" x1="948.1" y1="920.9" x2="956.4" y2="925.6"/>
	<line class="st34" x1="950.3" y1="919.6" x2="958.6" y2="924.4"/>
	<line class="st34" x1="952.5" y1="918.3" x2="960.8" y2="923.1"/>
	<line class="st34" x1="954.7" y1="917" x2="963" y2="921.8"/>
	<line class="st34" x1="957" y1="915.8" x2="965.2" y2="920.5"/>
	<line class="st34" x1="959.2" y1="914.5" x2="967.4" y2="919.3"/>
	<line class="st34" x1="961.4" y1="913.2" x2="969.6" y2="918"/>
	<line class="st34" x1="963.5" y1="911.9" x2="973.8" y2="917.8"/>
	<line class="st34" x1="945.8" y1="922.1" x2="960.4" y2="930.5"/>
	<line class="st34" x1="943.6" y1="923.4" x2="951.9" y2="928.1"/>
	<line class="st34" x1="941.4" y1="924.6" x2="949.7" y2="929.4"/>
	<line class="st34" x1="939.2" y1="925.9" x2="947.5" y2="930.7"/>
	<line class="st34" x1="937" y1="927.2" x2="945.3" y2="932"/>
	<line class="st34" x1="934.8" y1="928.5" x2="943" y2="933.2"/>
	<line class="st34" x1="932.6" y1="929.7" x2="940.8" y2="934.5"/>
	<line class="st34" x1="930.4" y1="931" x2="938.6" y2="935.8"/>
	<line class="st34" x1="912.7" y1="941.3" x2="921" y2="946.1"/>
	<line class="st34" x1="915" y1="940" x2="923.2" y2="944.8"/>
	<line class="st34" x1="917.2" y1="938.7" x2="925.4" y2="943.5"/>
	<line class="st34" x1="919.4" y1="937.5" x2="927.6" y2="942.2"/>
	<line class="st34" x1="921.6" y1="936.2" x2="929.8" y2="941"/>
	<line class="st34" x1="923.8" y1="934.9" x2="932.1" y2="939.7"/>
	<line class="st34" x1="926" y1="933.6" x2="934.3" y2="938.4"/>
	<line class="st34" x1="928.2" y1="932.3" x2="938.4" y2="938.2"/>
	<line class="st34" x1="910.5" y1="942.5" x2="925" y2="950.9"/>
	<line class="st34" x1="908.2" y1="943.8" x2="916.5" y2="948.6"/>
	<line class="st34" x1="906" y1="945.1" x2="914.3" y2="949.8"/>
	<line class="st34" x1="903.8" y1="946.3" x2="912.1" y2="951.1"/>
	<line class="st34" x1="901.6" y1="947.6" x2="909.9" y2="952.4"/>
	<line class="st34" x1="899.4" y1="948.9" x2="907.7" y2="953.7"/>
	<line class="st34" x1="897.2" y1="950.2" x2="905.5" y2="954.9"/>
	<line class="st34" x1="895" y1="951.4" x2="903.3" y2="956.2"/>
	<line class="st34" x1="877.4" y1="961.7" x2="885.6" y2="966.5"/>
	<line class="st34" x1="879.6" y1="960.4" x2="887.8" y2="965.2"/>
	<line class="st34" x1="881.8" y1="959.2" x2="890.1" y2="963.9"/>
	<line class="st34" x1="884" y1="957.9" x2="892.3" y2="962.7"/>
	<line class="st34" x1="886.2" y1="956.6" x2="894.5" y2="961.4"/>
	<line class="st34" x1="888.4" y1="955.3" x2="896.7" y2="960.1"/>
	<line class="st34" x1="890.6" y1="954" x2="898.9" y2="958.8"/>
	<line class="st34" x1="892.8" y1="952.7" x2="903" y2="958.6"/>
	<line class="st34" x1="875.1" y1="962.9" x2="889.6" y2="971.3"/>
	<line class="st34" x1="872.9" y1="964.2" x2="881.1" y2="969"/>
	<line class="st34" x1="870.7" y1="965.5" x2="878.9" y2="970.3"/>
	<line class="st34" x1="868.5" y1="966.8" x2="876.7" y2="971.5"/>
	<line class="st34" x1="866.2" y1="968" x2="874.5" y2="972.8"/>
	<line class="st34" x1="864" y1="969.3" x2="872.3" y2="974.1"/>
	<line class="st34" x1="861.8" y1="970.6" x2="870.1" y2="975.4"/>
	<line class="st34" x1="859.6" y1="971.9" x2="867.9" y2="976.6"/>
	<line class="st34" x1="842" y1="982.1" x2="850.3" y2="986.9"/>
	<line class="st34" x1="844.2" y1="980.8" x2="852.5" y2="985.6"/>
	<line class="st34" x1="846.4" y1="979.6" x2="854.7" y2="984.3"/>
	<line class="st34" x1="848.6" y1="978.3" x2="856.9" y2="983.1"/>
	<line class="st34" x1="850.8" y1="977" x2="859.1" y2="981.8"/>
	<line class="st34" x1="853" y1="975.8" x2="861.3" y2="980.5"/>
	<line class="st34" x1="855.2" y1="974.5" x2="863.5" y2="979.2"/>
	<line class="st34" x1="857.4" y1="973.1" x2="867.7" y2="979.1"/>
	<line class="st34" x1="839.7" y1="983.4" x2="854.3" y2="991.8"/>
	<line class="st34" x1="837.5" y1="984.5" x2="845.8" y2="989.3"/>
	<line class="st34" x1="835.3" y1="985.8" x2="843.6" y2="990.6"/>
	<line class="st34" x1="833.1" y1="987.1" x2="841.3" y2="991.8"/>
	<line class="st34" x1="830.9" y1="988.3" x2="839.1" y2="993.1"/>
	<line class="st34" x1="828.7" y1="989.6" x2="836.9" y2="994.4"/>
	<line class="st34" x1="826.5" y1="990.9" x2="834.7" y2="995.7"/>
	<line class="st34" x1="824.2" y1="992.2" x2="832.5" y2="997"/>
	<line class="st34" x1="806.6" y1="1002.4" x2="814.9" y2="1007.2"/>
	<line class="st34" x1="808.8" y1="1001.2" x2="817.1" y2="1005.9"/>
	<line class="st34" x1="811" y1="999.9" x2="819.3" y2="1004.7"/>
	<line class="st34" x1="813.2" y1="998.6" x2="821.5" y2="1003.4"/>
	<line class="st34" x1="815.5" y1="997.3" x2="823.7" y2="1002.1"/>
	<line class="st34" x1="817.7" y1="996" x2="825.9" y2="1000.8"/>
	<line class="st34" x1="819.9" y1="994.8" x2="828.1" y2="999.5"/>
	<line class="st34" x1="822" y1="993.4" x2="832.3" y2="999.4"/>
	<line class="st34" x1="804.3" y1="1003.7" x2="818.9" y2="1012.1"/>
	<line class="st34" x1="802.1" y1="1004.8" x2="810.4" y2="1009.6"/>
	<line class="st34" x1="799.9" y1="1006.1" x2="808.2" y2="1010.9"/>
	<line class="st34" x1="797.7" y1="1007.4" x2="806" y2="1012.2"/>
	<line class="st34" x1="795.5" y1="1008.7" x2="803.8" y2="1013.4"/>
	<line class="st34" x1="793.3" y1="1009.9" x2="801.6" y2="1014.7"/>
	<line class="st34" x1="791.1" y1="1011.2" x2="799.3" y2="1016"/>
	<line class="st34" x1="788.9" y1="1012.5" x2="797.1" y2="1017.2"/>
	<line class="st34" x1="771.2" y1="1022.7" x2="779.5" y2="1027.5"/>
	<line class="st34" x1="773.5" y1="1021.5" x2="781.7" y2="1026.2"/>
	<line class="st34" x1="775.7" y1="1020.2" x2="783.9" y2="1025"/>
	<line class="st34" x1="777.9" y1="1018.9" x2="786.1" y2="1023.7"/>
	<line class="st34" x1="780.1" y1="1017.6" x2="788.3" y2="1022.4"/>
	<line class="st34" x1="782.3" y1="1016.4" x2="790.6" y2="1021.1"/>
	<line class="st34" x1="784.5" y1="1015.1" x2="792.8" y2="1019.9"/>
	<line class="st34" x1="786.7" y1="1013.8" x2="796.9" y2="1019.7"/>
	<line class="st34" x1="769" y1="1024" x2="783.5" y2="1032.4"/>
	<line class="st34" x1="766.8" y1="1025.1" x2="775" y2="1029.9"/>
	<line class="st34" x1="764.5" y1="1026.4" x2="772.8" y2="1031.2"/>
	<line class="st34" x1="762.3" y1="1027.7" x2="770.6" y2="1032.4"/>
	<line class="st34" x1="760.1" y1="1028.9" x2="768.4" y2="1033.7"/>
	<line class="st34" x1="757.9" y1="1030.2" x2="766.2" y2="1035"/>
	<line class="st34" x1="755.7" y1="1031.5" x2="764" y2="1036.3"/>
	<line class="st34" x1="753.5" y1="1032.8" x2="761.8" y2="1037.6"/>
	<line class="st34" x1="735.9" y1="1043" x2="744.1" y2="1047.8"/>
	<line class="st34" x1="738.1" y1="1041.8" x2="746.3" y2="1046.5"/>
	<line class="st34" x1="740.3" y1="1040.5" x2="748.6" y2="1045.3"/>
	<line class="st34" x1="742.5" y1="1039.2" x2="750.8" y2="1044"/>
	<line class="st34" x1="744.7" y1="1037.9" x2="753" y2="1042.7"/>
	<line class="st34" x1="746.9" y1="1036.7" x2="755.2" y2="1041.4"/>
	<line class="st34" x1="749.1" y1="1035.4" x2="757.4" y2="1040.2"/>
	<line class="st34" x1="751.3" y1="1034.1" x2="761.5" y2="1040"/>
	<line class="st34" x1="733.6" y1="1044.3" x2="748.1" y2="1052.7"/>
	<polygon class="st3" points="753,1027.9 725.7,1043.4 713.4,1036.3 740.9,1021.1 	"/>
	<polygon class="st3" points="426,646.2 437.4,653.2 437.4,680.3 448.4,672.8 448.4,700.9 504.7,732.8 550,706.6 486.6,675.1 
		448.1,633.5 	"/>
	<polygon class="st3" points="925.5,653.8 914,659.8 921,664.1 932.8,657.8 	"/>
	<g class="st35">
		<polygon points="899,641.6 830,681.5 819.9,674.7 888.9,634.8 		"/>
		<polygon points="863.2,621 794.2,661 784.2,654.2 853.2,614.2 		"/>
		<polygon points="827.5,600.5 758.5,640.4 748.4,633.6 817.4,593.6 		"/>
		<polygon points="791.7,579.9 722.7,619.8 712.6,613 781.6,573.1 		"/>
	</g>
	<polygon class="st3" points="928.3,661.1 932.8,658.5 757.1,558 757,558.1 751.5,469.8 690.2,506.4 697.4,610.4 699.6,609.2 
		859.6,700.7 864.1,698 704.2,606.5 768.1,569.5 	"/>
	<polygon class="st3" points="857,693.5 845.5,699.5 852.5,703.8 864.3,697.4 	"/>
	<polygon class="st3" points="739.5,624.4 727.9,630.5 735,634.7 746.7,628.4 	"/>
	<polygon class="st3" points="808.5,584.7 797,590.7 804,595 815.8,588.6 	"/>
	<path class="st36" d="M883.1,441.7L806.3,595l5.5,3.2l75.7-154.1L883.1,441.7z"/>
	<polygon class="st37" points="892,441.5 816.3,595.6 811.8,598.2 887.4,444.1 	"/>
	<polygon class="st38" points="892,441.5 887.5,439.2 883.1,441.7 887.5,444.1 	"/>
	<polygon class="st37" points="778.3,566.8 778.3,570.1 849.2,528.7 849.2,525.5 	"/>
	<polygon class="st39" points="778.3,566.8 778.3,570.1 774.2,567.8 774.2,564.5 	"/>
	<polygon class="st38" points="849.2,525.5 778.3,566.8 774.2,564.5 845.1,523.1 	"/>
	<path class="st36" d="M879.4,405.6l43.3,252.3l5.6,3.2l-44.5-253L879.4,405.6z"/>
	<polygon class="st40" points="888.3,405.4 932.8,658.5 928.3,661.1 883.7,408.1 	"/>
	<polygon class="st41" points="888.3,405.4 883.8,403.2 879.4,405.6 883.8,408.1 	"/>
	<polygon class="st42" points="863.1,676.5 863.1,679.4 932.1,639.5 932.1,636.5 	"/>
	<polygon points="863.1,676.5 863.1,679.4 845.2,669 845.2,666.1 	"/>
	<polygon class="st43" points="932.1,636.5 863.1,676.5 845.2,666.1 914.2,626.2 	"/>
	<polygon class="st42" points="855.8,634.1 855.8,637 924.8,597.1 924.8,594.1 	"/>
	<polygon points="855.8,634.1 855.8,637 837.9,626.7 837.9,623.7 	"/>
	<polygon class="st43" points="924.8,594.1 855.8,634.1 837.9,623.7 906.9,583.8 	"/>
	<polygon class="st42" points="848.5,591.7 848.5,594.6 917.5,554.7 917.5,551.7 	"/>
	<polygon points="848.5,591.7 848.5,594.6 830.6,584.2 830.6,581.3 	"/>
	<polygon class="st43" points="917.5,551.7 848.5,591.7 830.6,581.3 899.6,541.4 	"/>
	<polygon class="st42" points="841.2,549.3 841.2,552.2 910.2,512.3 910.2,509.3 	"/>
	<polygon points="841.2,549.3 841.2,552.2 823.3,541.9 823.3,538.9 	"/>
	<polygon class="st43" points="910.2,509.3 841.2,549.3 823.3,538.9 892.2,499 	"/>
	<polygon class="st42" points="839,508.4 839,511.4 908,471.4 908,468.5 	"/>
	<polygon points="839,508.4 839,511.4 800.6,489.1 800.6,486.2 	"/>
	<polygon class="st43" points="908,468.5 839,508.4 800.6,486.2 869.6,446.2 	"/>
	<polygon class="st38" points="823.3,481 818.8,478.8 814.4,481.2 818.8,483.7 	"/>
	<path class="st36" d="M814.4,481.2l-76.8,153.4l5.5,3.2l75.7-154.1L814.4,481.2z"/>
	<polygon class="st37" points="823.3,481 747.7,635.1 743.1,637.8 818.7,483.7 	"/>
	<polygon class="st41" points="819.6,445 815.1,442.7 810.7,445.1 815.1,447.6 	"/>
	<polygon class="st44" points="819.6,445 864.1,698 859.6,700.7 815,447.6 	"/>
	<polygon class="st40" points="819.6,445 864.1,698 859.6,700.7 815,447.6 	"/>
	<path class="st36" d="M810.7,445.1l43.3,252.3l5.6,3.2l-44.5-253L810.7,445.1z"/>
	<polygon class="st45" points="815.6,440.4 817.2,450 890.8,407.5 889.2,397.9 	"/>
	<polygon class="st45" points="823.3,446.5 817.2,450 818.8,459.7 824.9,456.2 	"/>
	<polygon class="st46" points="815.6,440.4 817.2,450 808.3,451.6 806.7,442 	"/>
	<polygon class="st46" points="817.2,450 818.8,459.7 809.9,461.3 808.3,451.6 	"/>
	<polygon class="st47" points="889.2,397.9 815.6,440.4 806.7,442 880.3,399.5 	"/>
	<polygon class="st45" points="890.8,407.5 884.8,411 886.4,420.6 892.5,417.2 	"/>
	<polygon class="st46" points="876.4,415.9 877.5,422.3 886.4,420.7 884.8,411 	"/>
	<polygon class="st45" points="865.5,691.2 859.5,694.7 861.1,704.3 867.1,700.9 	"/>
	<polygon class="st48" points="865.5,691.2 859.5,694.7 850.8,694.1 853.2,692.7 853.4,693.5 858.4,693.8 863,691.4 862.9,691 	"/>
	<polygon class="st45" points="934.1,651.6 928.1,655.1 929.7,664.7 935.8,661.2 	"/>
	<polygon class="st46" points="928.1,655.1 929.7,664.8 921.1,664.2 919.5,654.5 	"/>
	<polygon class="st48" points="934.1,651.6 928.1,655.1 919.5,654.5 921.9,653.1 922.1,653.9 927,654.2 931.6,651.8 931.6,651.4 	
		"/>
	<polygon class="st45" points="752.8,629.5 747,632.6 742.6,640 748.6,636.5 	"/>
	<polygon class="st48" points="752.8,629.5 747,632.7 739.4,627.2 742,625.8 741.2,627.5 746.3,631.2 750.8,628.8 751.1,628.1 	"/>
	<polygon class="st45" points="821.6,589.7 815.8,592.8 811.4,600.2 817.4,596.7 	"/>
	<polygon class="st46" points="815.8,592.9 811.4,600.2 803.8,594.8 808.2,587.5 	"/>
	<polygon class="st48" points="821.6,589.7 815.8,592.9 808.2,587.5 810.8,586 810,587.7 815.1,591.5 819.6,589 819.9,588.3 	"/>
	<polygon class="st46" points="859.5,694.7 861.1,704.4 852.4,703.8 850.8,694.1 	"/>
	<polygon class="st46" points="747,632.7 742.6,640 735,634.6 739.4,627.2 	"/>
	<polygon class="st3" points="1096.8,757.4 1197.3,697 1194.2,409 1192.1,409 1193.5,670.2 1150.6,645.2 1138.8,666.8 1058.4,732.8 
			"/>
	<ellipse class="st3" cx="1032.6" cy="676.4" rx="48.8" ry="23.3"/>
	<line class="st49" x1="987.9" y1="636.8" x2="977.9" y2="646.4"/>
	
		<linearGradient id="SVGID_00000037685622860462022080000009615366970699305642_" gradientUnits="userSpaceOnUse" x1="-563.56" y1="420.8451" x2="-501.5" y2="420.8451" gradientTransform="matrix(1 0 0 -1 1547.38 1080)">
		<stop  offset="0" style="stop-color:#808080"/>
		<stop  offset="0.4" style="stop-color:#999999"/>
		<stop  offset="1" style="stop-color:#4D4D4D"/>
	</linearGradient>
	<path style="fill:url(#SVGID_00000037685622860462022080000009615366970699305642_);" d="M1045.9,624.7l-0.1,51.3
		c0,4.6-3,9.1-9,12.6c-12.1,7-31.7,7-43.8,0c-6.1-3.5-9.2-8.2-9.1-12.8l0.1-51.3c0,4.6,3,9.2,9.1,12.8c12.1,7,31.8,7,43.8,0
		C1042.9,633.8,1045.9,629.2,1045.9,624.7z"/>
	<path class="st51" d="M1027.7,651c0,1-0.3,1.9-0.9,2.7c-0.8,1-2,1.6-3.2,1.6h-0.2c-2.4-0.1-4.2-2-4.2-4.4c0.1-2.4,2-4.2,4.4-4.2
		C1025.8,646.8,1027.7,648.7,1027.7,651z"/>
	<path class="st52" d="M1036.7,611.9c12.1,7,12.2,18.4,0.1,25.4s-31.7,7-43.8,0s-12.2-18.4-0.1-25.4S1024.6,604.9,1036.7,611.9z"/>
	<path class="st53" d="M1035.7,612.6c11.5,6.5,11.6,17.1,0.1,23.6s-30.1,6.5-41.7,0s-11.6-17.1-0.1-23.6S1024.2,606.1,1035.7,612.6z
		"/>
	<path class="st54" d="M1034.5,613.5c10.9,6,11,15.7,0.1,21.7s-28.5,6-39.4,0s-11-15.7-0.1-21.7S1023.6,607.5,1034.5,613.5z"/>
	<path class="st54" d="M1035.3,634.9l-0.7,0.4c-10.8,6-28.5,6-39.4,0c-0.3-0.2-0.6-0.3-0.8-0.5l0.7-0.4c10.8-6,28.5-6,39.4,0
		L1035.3,634.9z"/>
	<path class="st14" d="M1035.3,634.9l-0.7,0.4c-10.8,6-28.5,6-39.4,0c-0.3-0.2-0.6-0.3-0.8-0.5l0.7-0.4c10.8-6,28.5-6,39.4,0
		L1035.3,634.9z"/>
	<path class="st55" d="M1027.3,650.9c0,0.9-0.3,1.8-0.9,2.5c-0.7,0.9-1.8,1.4-2.9,1.4h-0.2c-2.1-0.1-3.8-1.9-3.8-4
		c0.1-2.1,1.9-3.8,4-3.8C1025.6,647.1,1027.3,648.8,1027.3,650.9L1027.3,650.9z"/>
	<ellipse class="st52" cx="1023.5" cy="650.9" rx="2.9" ry="3"/>
	<path class="st51" d="M1026.4,653.4c-0.7,0.9-1.8,1.4-2.9,1.4h-0.2l-0.1-0.9l-0.3-2.7l2.7,1.7L1026.4,653.4z"/>
	<polyline class="st49" points="1023.5,650.8 1027.3,653.4 1006.3,669.6 990.1,670.3 973.7,656.2 977.9,646.4 	"/>
	<g>
		<polygon class="st16" points="504.1,731.2 548.5,705.5 548.6,656.3 504.3,682 		"/>
		<polygon class="st17" points="504.3,682 548.6,656.3 505.8,631.6 461.5,657.3 		"/>
		<polygon class="st18" points="461.5,657.3 461.4,706.5 504.1,731.2 504.3,682 		"/>
	</g>
	<g>
		<g>
			<defs>
				<polygon id="SVGID_00000088108354016058676290000001512635130438536841_" points="529.8,667.3 487.2,642.5 483.8,644.5 
					526.4,669.3 				"/>
			</defs>
			<clipPath id="SVGID_00000023971418953122960450000007620066412404974771_">
				<use xlink:href="#SVGID_00000088108354016058676290000001512635130438536841_"  style="overflow:visible;"/>
			</clipPath>
			<g style="clip-path:url(#SVGID_00000023971418953122960450000007620066412404974771_);">
				<polyline class="st20" points="483.8,644.5 487.2,642.5 529.8,667.3 526.4,669.3 483.8,644.5 				"/>
			</g>
		</g>
	</g>
	<g>
		<g>
			<defs>
				<polygon id="SVGID_00000178883295250358613440000018073652585299311537_" points="529.9,673.2 529.8,667.2 526.4,669.2 
					526.4,675.1 				"/>
			</defs>
			<clipPath id="SVGID_00000054953383087943637860000008865260962766122638_">
				<use xlink:href="#SVGID_00000178883295250358613440000018073652585299311537_"  style="overflow:visible;"/>
			</clipPath>
			<g style="clip-path:url(#SVGID_00000054953383087943637860000008865260962766122638_);">
				<polyline class="st20" points="526.4,669.2 529.8,667.2 529.9,673.2 526.4,675.1 526.4,669.2 				"/>
			</g>
		</g>
	</g>
	<g>
		<polygon class="st16" points="487.7,686.2 532,660.5 532.1,611.3 487.8,637 		"/>
		<polygon class="st17" points="487.8,637 532.1,611.3 489.3,586.6 445,612.3 		"/>
		<polygon class="st18" points="445,612.3 444.9,661.5 487.7,686.2 487.8,637 		"/>
	</g>
	<g>
		<g>
			<defs>
				<polygon id="SVGID_00000054251975141290697590000002940830201545634956_" points="513.4,622.3 470.7,597.5 467.3,599.5 
					510,624.3 				"/>
			</defs>
			<clipPath id="SVGID_00000148649312223529608000000002224615748485819028_">
				<use xlink:href="#SVGID_00000054251975141290697590000002940830201545634956_"  style="overflow:visible;"/>
			</clipPath>
			<g style="clip-path:url(#SVGID_00000148649312223529608000000002224615748485819028_);">
				<polyline class="st20" points="467.3,599.5 470.7,597.5 513.4,622.3 510,624.3 467.3,599.5 				"/>
			</g>
		</g>
	</g>
	<g>
		<g>
			<defs>
				<polygon id="SVGID_00000182487065762971928000000006785177109283193506_" points="513.4,628.1 513.4,622.2 509.9,624.2 
					510,630.1 				"/>
			</defs>
			<clipPath id="SVGID_00000176037561185666776980000001257601355929181099_">
				<use xlink:href="#SVGID_00000182487065762971928000000006785177109283193506_"  style="overflow:visible;"/>
			</clipPath>
			<g style="clip-path:url(#SVGID_00000176037561185666776980000001257601355929181099_);">
				<polyline class="st20" points="509.9,624.2 513.4,622.2 513.4,628.1 510,630.1 509.9,624.2 				"/>
			</g>
		</g>
	</g>
	<ellipse class="st3" cx="529.1" cy="846.6" rx="64.9" ry="30.1"/>
	<polygon class="st60" points="642,861.9 702.9,861.9 720.9,852.8 683.5,831.2 	"/>
	<polygon class="st6" points="642,861.9 548.6,808 548.6,707.4 642,761.3 	"/>
	<polygon class="st5" points="689,734.2 689,834.8 642,861.9 642,761.3 	"/>
	<polygon class="st61" points="548.6,707.4 642,761.3 689,734.2 668.1,722.2 629.4,699.8 595.6,680.3 	"/>
	<polygon class="st61" points="637.8,764.5 580.4,731.3 552.4,747.6 637.8,796.9 	"/>
	<polygon class="st5" points="580.4,731.3 552.4,747.5 552.4,715.2 	"/>
	<polygon class="st62" points="552.3,753.5 552.3,802 637.8,851.4 637.8,802.8 614.5,789.4 609.5,786.5 589.5,774.9 586.5,773.2 
		580.3,769.6 	"/>
	<polygon class="st5" points="614.5,789.4 614.5,804.6 580.2,784.9 580.2,769.6 	"/>
	<polygon class="st63" points="580.2,769.6 581.5,783.7 609.9,798 614.5,789.4 609.5,786.5 610.8,794.6 586.5,780.6 586.5,773.2 
		580.3,769.6 	"/>
	<polygon class="st64" points="585.2,772.5 585.2,781.8 609.5,795.8 609.5,786.5 614.5,789.4 614.5,804.6 580.2,784.9 580.2,769.6 	
		"/>
	<polygon class="st5" points="552.4,747.5 595,747.5 637.9,771.7 637.8,764.5 580.4,731.3 	"/>
	<polygon class="st3" points="584,727.7 548.6,707.4 595.6,680.3 632.7,701.7 	"/>
	<g>
		<polygon class="st16" points="628.3,753.5 584,727.7 583.9,678.5 628.2,704.3 		"/>
		<polygon class="st17" points="628.2,704.3 583.9,678.5 626.7,653.8 671,679.6 		"/>
		<polygon class="st18" points="671,679.6 671.1,728.8 628.3,753.5 628.2,704.3 		"/>
	</g>
	<g>
		<g>
			<defs>
				<polygon id="SVGID_00000168831747319449694670000003585676556021877685_" points="602.6,689.5 645.3,664.7 648.7,666.7 
					606,691.5 				"/>
			</defs>
			<clipPath id="SVGID_00000123425425566869532960000012448438309414708625_">
				<use xlink:href="#SVGID_00000168831747319449694670000003585676556021877685_"  style="overflow:visible;"/>
			</clipPath>
			<g style="clip-path:url(#SVGID_00000123425425566869532960000012448438309414708625_);">
				<polyline class="st20" points="648.7,666.7 645.3,664.7 602.6,689.5 606,691.5 648.7,666.7 				"/>
			</g>
		</g>
	</g>
	<g>
		<g>
			<defs>
				<polygon id="SVGID_00000030457502155137162470000008602471822996724647_" points="602.6,695.4 602.6,689.4 606,691.4 606,697.4 
									"/>
			</defs>
			<clipPath id="SVGID_00000129175109013651561880000009315358264260190375_">
				<use xlink:href="#SVGID_00000030457502155137162470000008602471822996724647_"  style="overflow:visible;"/>
			</clipPath>
			<g style="clip-path:url(#SVGID_00000129175109013651561880000009315358264260190375_);">
				<polyline class="st20" points="606,691.4 602.6,689.4 602.6,695.4 606,697.4 606,691.4 				"/>
			</g>
		</g>
	</g>
	<path class="st5" d="M529.5,846.5L529.5,846.5c-1.9,0-3.5-1.6-3.5-3.5v-59.9c0-2,1.6-3.5,3.5-3.6l0,0c2,0,3.6,1.6,3.6,3.6V843
		C533.1,844.9,531.5,846.5,529.5,846.5z"/>
	<path class="st5" d="M506.6,798.3l-20.3,63.9c-0.6,1.9,0.4,3.9,2.3,4.5s3.9-0.4,4.5-2.3l0,0l21-66L506.6,798.3z"/>
	<path class="st5" d="M553.1,798.3l20.3,63.9c0.7,1.9-0.3,3.9-2.1,4.6c-1.9,0.7-3.9-0.3-4.6-2.1c0-0.1-0.1-0.2-0.1-0.3l-21-66
		L553.1,798.3z"/>
	<path class="st5" d="M558.3,815.1c0.8,2.4,1.1,4.9,1.1,7.3c-0.2,3.7-3.2,7.2-8.6,9.9c-5.7,2.7-13.2,4.1-21.3,4
		c-16.3-0.4-29.5-8.1-29.4-16.1c0.3-1.9,0.8-3.9,1.4-5.8c-2,1.6-3.2,4.1-3.2,6.6c-0.2,9.2,13.5,16.8,31.2,17.2h1.4
		c7.8,0,15.1-1.5,20.8-4.2c6.2-3,9.7-7.1,9.8-11.6C561.4,819.7,560.3,817,558.3,815.1z"/>
	<path class="st67" d="M564.6,792.7c-4.2-8.3-18.8-14.8-36.5-15.2s-32.6,5.4-37.1,13.5h-1.3l-0.1,5c-0.2,10.7,16.6,19.7,37.7,20.1
		s38.3-7.8,38.6-18.4l0.1-5L564.6,792.7z"/>
	
		<ellipse transform="matrix(2.233833e-02 -0.9998 0.9998 2.233833e-02 -276.3148 1302.4709)" class="st1" cx="527.8" cy="792.5" rx="19.3" ry="38.1"/>
	<path d="M511.6,793.6c0.7,1.7,2,3.1,3.7,4c5.3,3,13.8,3,19.1,0s5.2-8-0.1-11s-13.8-3-19.1,0c0,0-0.1,0.1-0.1,0.1
		c-0.5,0.3-1,0.6-1.4,1c-0.6,0.5-1.1,1-1.5,1.6l0,0c-0.3,0.4-0.5,0.8-0.6,1.3C511.2,791.6,511.2,792.6,511.6,793.6z"/>
	<path class="st63" d="M542.1,791.5L542.1,791.5v-0.9l-27-0.6v1.5l0,0c0,2,1.3,4,4,5.5c5.3,3,13.8,3.1,19.1,0
		C540.8,795.5,542.1,793.5,542.1,791.5z"/>
	<path class="st68" d="M515.4,792.1c0.7,1.7,2,3.1,3.7,4c5.2,3,13.8,3,19.1,0s5.2-8-0.1-11s-13.8-3-19.1,0c0,0-0.1,0.1-0.1,0.1
		c-0.5,0.3-1,0.6-1.4,1c-0.6,0.5-1.1,1-1.5,1.6l0,0c-0.3,0.4-0.5,0.8-0.6,1.3C515.1,790,515.1,791.1,515.4,792.1z"/>
	<path class="st64" d="M515.4,792.1l11.1-0.3c0.5,0.1,1.1,0.1,1.6-0.2c0.5-0.2,1-0.5,1.5-0.8c-0.7-0.7-1.2-1.5-1.4-2.5l-10.9,0.3
		c-0.6,0.2-1.2,0.3-1.9,0.3C515,790,515,791.1,515.4,792.1z"/>
	<path class="st63" d="M531.7,759.2v30.9c0,0.5-0.3,0.9-0.8,1.1l0,0c-0.7,0.4-1.5,0.5-2.3,0.4c-0.5,0-1-0.2-1.5-0.4
		c-0.4-0.2-0.7-0.6-0.8-1.1v-30.9L531.7,759.2z"/>
	<path class="st64" d="M530.9,750.8v40.5c-0.7,0.4-1.5,0.5-2.3,0.4v-40.9H530.9z"/>
	
		<linearGradient id="SVGID_00000118382169234467338620000011449211567460152968_" gradientUnits="userSpaceOnUse" x1="546.03" y1="317.6188" x2="564.33" y2="317.6188" gradientTransform="matrix(1 0 0 -1 -23.5 1080)">
		<stop  offset="5.000000e-02" style="stop-color:#D9D2C9"/>
		<stop  offset="0.77" style="stop-color:#FFFDF8"/>
	</linearGradient>
	<path style="fill:url(#SVGID_00000118382169234467338620000011449211567460152968_);" d="M544.2,764.2L544.2,764.2v-12.7H513v12.7
		l0,0c0,2.3,1.6,4.6,4.6,6.4c6.1,3.5,16,3.6,22.1,0C542.7,768.9,544.3,766.5,544.2,764.2z"/>
	<path class="st70" d="M539.7,757.9c-6.1,3.5-16,3.5-22.1,0s-6.1-9.2-0.1-12.8c6.1-3.5,16-3.5,22.1,0S545.8,754.4,539.7,757.9z"/>
	
		<linearGradient id="SVGID_00000111175262846908649660000014694397759587669942_" gradientUnits="userSpaceOnUse" x1="538.99" y1="328.7187" x2="555.09" y2="328.7187" gradientTransform="matrix(1 0 0 -1 -23.5 1080)">
		<stop  offset="0.23" style="stop-color:#FFFDF8"/>
		<stop  offset="0.95" style="stop-color:#D9D2C9"/>
	</linearGradient>
	<path style="fill:url(#SVGID_00000111175262846908649660000014694397759587669942_);" d="M537.2,756.1c-1.5,0.8-3.2,1.4-4.9,1.7
		c-0.5,0.1-0.9,0.2-1.4,0.2s-1,0.1-1.5,0.1c-1,0-2.1,0-3.1-0.1c-0.6-0.1-1.2-0.2-1.8-0.3c-1.6-0.3-3.1-0.9-4.5-1.6
		c-4.8-2.7-4.8-7-0.1-9.6s12.4-2.6,17.1,0S541.9,753.5,537.2,756.1z"/>
	<path class="st72" d="M537.2,756.1c-2,1-4.1,1.7-6.3,1.9c-0.5,0-1,0.1-1.5,0.1c6.7-3.2,7.7-11.6,7.7-11.6
		C541.9,749.2,541.9,753.5,537.2,756.1z"/>
	<path class="st73" d="M532.3,757.8c-0.5,0.1-0.9,0.2-1.4,0.2s-1,0.1-1.5,0.1c-1,0-2.1,0-3.1-0.1c-0.6-0.1-1.2-0.2-1.8-0.3
		c1.5-2.1,4.5-2.6,6.6-1.1C531.6,756.9,532,757.3,532.3,757.8L532.3,757.8z"/>
	<g id="Board">
		<g id="Window">
			<path class="st74" d="M1389.6,95.4l394.2,227.3c4.4,2.8,7.1,7.6,7.4,12.8v674.2c-0.3,5.2-3,9.9-7.4,12.7l-1.5,0.9
				c-4.6,2.3-10.1,2.3-14.8,0l-394.2-227.6c-4.3-2.8-7.1-7.6-7.3-12.7V109c0.3-5.2,3-9.9,7.4-12.7l1.5-0.8
				C1379.5,93.1,1385,93.1,1389.6,95.4z"/>
			<path class="st75" d="M1389.6,95.4l394.2,227.3c4.4,2.8,7.1,7.6,7.4,12.8v674.2c-0.3,5.2-3,9.9-7.4,12.7l-1.5,0.9
				c-4.6,2.3-10.1,2.3-14.8,0l-394.2-227.6c-4.3-2.8-7.1-7.6-7.3-12.7V109c0.3-5.2,3-9.9,7.4-12.7l1.5-0.8
				C1379.5,93.1,1385,93.1,1389.6,95.4z"/>
			<path class="st74" d="M1366,783.5c0,6.5,4.6,10.6,10.2,13.8l388.6,224.3c5.6,3.2,10.2,0.6,10.2-5.9V348l0,0
				c0-7.2-3.9-13.9-10.1-17.6l-388.6-224.4c-3.3-1.9-7.4-0.8-9.3,2.5c-0.6,1-0.9,2.2-0.9,3.4l0,0L1366,783.5z"/>
			<path class="st76" d="M1366,783.5c0,6.5,4.6,10.6,10.2,13.8l388.6,224.3c5.6,3.2,10.2,0.6,10.2-5.9V348l0,0
				c0-7.2-3.9-13.9-10.1-17.6l-388.6-224.4c-3.3-1.9-7.4-0.8-9.3,2.5c-0.6,1-0.9,2.2-0.9,3.4l0,0L1366,783.5z"/>
			<path class="st74" d="M1366,109v2.9c0-3.8,3.1-6.8,6.8-6.8c1.2,0,2.3,0.3,3.4,0.9l388.6,224.4c3.1,1.8,5.7,4.3,7.4,7.4
				c0.1,0.1,0.1,0.1,0.1,0.2l16.8-9.7c-1.3-2.3-3.1-4.2-5.3-5.6L1389.6,95.4c-4.6-2.3-10.1-2.3-14.8,0l-1.5,0.9
				C1369,99.1,1366.3,103.8,1366,109z"/>
			<path class="st77" d="M1366,109v2.9c0-3.8,3.1-6.8,6.8-6.8c1.2,0,2.3,0.3,3.4,0.9l388.6,224.4c3.1,1.8,5.7,4.3,7.4,7.4
				c0.1,0.1,0.1,0.1,0.1,0.2l16.8-9.7c-1.3-2.3-3.1-4.2-5.3-5.6L1389.6,95.4c-4.6-2.3-10.1-2.3-14.8,0l-1.5,0.9
				C1369,99.1,1366.3,103.8,1366,109z"/>
		</g>
	</g>
	<path id="Shadow" class="st78" d="M1375.6,763.2c0,6.7,4.7,10.9,10.5,14.3l367.2,212c5.8,3.3,10.5,0.6,10.5-6.1V385.6l0,0
		c0-7.5-4-14.4-10.4-18.1l-367.3-212.1c-3.3-1.9-7.6-0.8-9.6,2.6c-0.6,1.1-0.9,2.3-0.9,3.5V763.2z"/>
	<g id="Form">
		<g id="Paper">
			<path class="st79" d="M1754.4,375.5l-365.9-211.3c-2-1-4.3-1-6.3,0l-3.5,2c-1.8,1.2-3,3.2-3.1,5.4v600.8c0.1,2.2,1.3,4.2,3.1,5.4
				l365.9,211.3c2,1,4.3,1,6.3,0l3.5-2c1.8-1.2,3-3.2,3.1-5.4V380.9C1757.4,378.7,1756.3,376.7,1754.4,375.5z"/>
			<path class="st80" d="M1745.4,989.5c0.4,0.1,0.8,0.2,1.2,0.3l0.6,0.1c0.6,0.1,1.3,0,1.9-0.1c0.4-0.1,0.8-0.2,1.2-0.3
				c0.2-0.1,0.5-0.2,0.7-0.3l3.5-2c1.9-1.2,3-3.2,3.1-5.4V380.9c0-1.1-0.3-2.2-0.9-3.1l-9.8,5.6c0.6,0.9,0.9,2,0.9,3.1v600.8
				C1747.8,989,1746.7,989.9,1745.4,989.5z"/>
			<path class="st80" d="M1375.7,170.7c0.4-1.3,1.6-1.7,3-0.9l365.9,211.3c0.9,0.6,1.7,1.4,2.2,2.3l9.8-5.6c-0.5-1-1.3-1.8-2.2-2.3
				l-365.9-211.3c-2-1-4.3-1-6.2,0l-3.5,2C1377.1,167.3,1376.1,168.9,1375.7,170.7z"/>
		</g>
	</g>
	<g id="Clip">
		<g id="Shadow-2" class="st81">
			<path d="M1460.2,190.7v31.5c0,8,5.4,17.4,12.3,21.4l60.9,35.1c3,1.7,4.7,5.2,6.5,8.9c1.2,2.8,2.8,5.3,4.7,7.7
				c4.7,5.4,15,11,22.3,13.3c2.4,0.8,4.8,1.3,7.3,1.7c0.9,0.1,1.9,0.3,3,0.4c6.6,0.9,14.9,2,19.8,4.8l71.3,41.1
				c1.9,1.2,4,1.8,6.2,1.9c1.5,0,2.9-0.4,4.2-1.1c2.9-1.7,4.5-5,4.5-9.4v-31.4c0-8-5.4-17.4-12.3-21.4l-23.9-13.8
				c-0.1-0.1-0.2-0.1-0.3-0.1c-1.3-0.5-2.8,0.1-3.3,1.4c-0.4,1.1-0.1,2.3,0.8,3c0.1,0.1,0.2,0.2,0.3,0.2l23.9,13.8
				c5.3,3.1,9.8,10.8,9.8,16.9v31.4c0,2.4-0.7,4.2-2,4.9s-3.2,0.4-5.3-0.8l-71.3-41.1c-5.7-3.3-14.6-4.5-21.6-5.4
				c-1-0.1-2-0.3-3-0.4c-2.2-0.3-4.4-0.8-6.5-1.5c-6.5-2-16.1-7.3-20-11.8c-1.6-2-3-4.2-4-6.6c-2.1-4.2-4.2-8.5-8.6-11l-60.9-35.1
				c-5.3-3.1-9.8-10.8-9.8-16.9v-31.5c0-2.4,0.7-4.2,2-4.9s3.2-0.4,5.3,0.8l20.7,12c0.7-1.6,1.6-3,2.6-4.4l-20.8-12
				c-3.8-2.2-7.5-2.4-10.4-0.8S1460.2,186.3,1460.2,190.7z"/>
		</g>
		<g id="Clip-2">
			<path class="st1" d="M1504.7,191.2L1504.7,191.2c-1.6-1-3.9-0.8-6.4,0.6c-5,2.9-9,9.9-9,15.7c0,2.9,1,4.9,2.7,5.9l0,0l144.5,83.4
				l12.8-22.2L1504.7,191.2z"/>
			<path class="st82" d="M1642.7,285.8l-150.9-87.1c1.5-2.8,3.7-5.1,6.4-6.8c0.3-0.2,0.6-0.3,0.9-0.4l148.5,85.8L1642.7,285.8z"/>
			<path class="st83" d="M1642.7,275.3c5-2.9,9-0.5,9,5.2s-4.1,12.8-9,15.7s-9,0.5-9-5.2S1637.7,278.2,1642.7,275.3z"/>
			<path d="M1457.7,192.9v31.5c0,8,5.4,17.4,12.3,21.4l60.9,35.1c3,1.7,4.7,5.2,6.5,8.9c1.2,2.8,2.8,5.3,4.7,7.7
				c4.7,5.4,15,11,22.3,13.3c2.4,0.8,4.8,1.3,7.3,1.7c0.9,0.1,1.9,0.3,3,0.4c6.6,0.9,14.9,2,19.8,4.8l71.3,41.1
				c1.9,1.2,4,1.8,6.2,1.9c1.5,0,2.9-0.4,4.2-1.1c2.9-1.7,4.5-5,4.5-9.4v-31.4c0-8-5.4-17.4-12.3-21.4l-23.9-13.8
				c-0.1-0.1-0.2-0.1-0.3-0.1c-1.3-0.6-2.8,0-3.3,1.3c-0.5,1.1-0.1,2.3,0.8,3c0.1,0.1,0.2,0.2,0.3,0.2l23.9,13.8
				c5.3,3.1,9.8,10.8,9.8,16.9v31.5c0,2.4-0.7,4.2-2,4.9s-3.2,0.4-5.3-0.8l-71.2-41.1c-5.7-3.3-14.6-4.5-21.6-5.4
				c-1-0.1-2-0.3-3-0.4c-2.2-0.3-4.4-0.8-6.5-1.5c-6.5-2-16.1-7.3-20-11.8c-1.6-2-3-4.2-4-6.6c-2.1-4.2-4.2-8.5-8.6-11l-60.9-35.1
				c-5.3-3.1-9.8-10.8-9.8-16.9v-31.5c0-2.4,0.7-4.2,2-4.9s3.2-0.4,5.3,0.8l20.7,12c0.7-1.6,1.6-3,2.6-4.4l-20.8-12
				c-3.8-2.2-7.5-2.4-10.4-0.8S1457.7,188.6,1457.7,192.9z"/>
		</g>
	</g>
	<polygon class="st84" points="1675.3,696 1403.5,539 1403.5,311.6 1675.3,468.6 	"/>
	<line class="st85" x1="1435.2" y1="329.9" x2="1435.2" y2="557.3"/>
	<line class="st85" x1="1464.9" y1="347.1" x2="1464.9" y2="574.5"/>
	<line class="st85" x1="1494.7" y1="364.3" x2="1494.7" y2="591.7"/>
	<line class="st85" x1="1524.5" y1="381.5" x2="1524.5" y2="608.9"/>
	<line class="st85" x1="1554.3" y1="398.7" x2="1554.3" y2="626.1"/>
	<line class="st85" x1="1584.1" y1="415.9" x2="1584.1" y2="643.3"/>
	<line class="st85" x1="1613.9" y1="433.1" x2="1613.9" y2="660.5"/>
	<line class="st85" x1="1643.7" y1="450.3" x2="1643.7" y2="677.7"/>
	<line class="st85" x1="1674.8" y1="496.6" x2="1403" y2="339.7"/>
	<line class="st85" x1="1674.8" y1="530.8" x2="1403" y2="373.8"/>
	<line class="st85" x1="1674.8" y1="564.9" x2="1403" y2="408"/>
	<line class="st85" x1="1674.8" y1="599.1" x2="1403" y2="442.1"/>
	<line class="st85" x1="1674.8" y1="633.2" x2="1403" y2="476.3"/>
	<line class="st85" x1="1674.8" y1="667.4" x2="1403" y2="510.4"/>
	<polygon class="st86" points="1597.7,481.6 1480.2,413.7 1480.2,355.9 1597.7,423.7 	"/>
	<polygon class="st86" points="1465.4,400.8 1430.7,380.7 1430.7,340.8 1465.4,360.9 	"/>
	<polygon class="st86" points="1674.8,645.8 1632.5,621.4 1632.5,486.6 1674.8,511 	"/>
	<polygon class="st87" points="1622,626.6 1425.9,513.4 1425.9,402.4 1622,515.5 	"/>
	<polygon class="st87" points="1609.8,658.2 1468,576.3 1468,557 1609.8,638.8 	"/>
	<polyline class="st84" points="1404,298 1404,285.9 1674.8,442.3 1674.8,454.4 	"/>
	<polyline class="st84" points="1683.1,473 1694.7,479.7 1694.7,707.1 1683.1,700.4 	"/>
	<line class="st84" x1="1533.6" y1="360.7" x2="1533.6" y2="341.4"/>
	<line class="st84" x1="1694.7" y1="593.4" x2="1711.5" y2="603.1"/>
	<text transform="matrix(0.87 0.5 0 1 1502.2205 313.5804)" class="st70 st88 st89">16.6 ft</text>
	<text transform="matrix(0 -0.9866 0.867 0.4983 1735.3092 662.6996)" class="st70 st88 st90">14.6 ft</text>
	<text transform="matrix(0.88 0.51 0 1 1444.74 661.3102)" class="st70 st91 st92">Total Area :</text>
	<text transform="matrix(0.88 0.51 0 1 1463.6333 717.7695)" class="st70 st91 st92">239.25 ft</text>
	<text transform="matrix(0.8793 0.5172 0 1 1604.2395 786.2803)" class="st70 st91 st93">2</text>
	<text transform="matrix(0.877 -0.5082 0.867 0.4983 1047.0093 965.2003)" class="st6 st91 st94">16.6 ft</text>
	<text transform="matrix(0.8869 0.5082 -0.867 0.4983 417.4912 940.9498)" class="st6 st91 st94">14.6 ft</text>
	<polygon class="st95" points="1169.1,706.3 1126.9,681.8 1123,690.2 1165.3,714.7 	"/>
	<path class="st96" d="M1046.6,728.5l47.5,27.4l36.9-21.3l8.8-11.6l27-15.5l-1.5,7.3l1.5-0.9l7.7-10.8l-51.7-17.6
		C1110.5,692.7,1046.6,723.6,1046.6,728.5z"/>
	<path class="st96" d="M1046.6,728.5l47.5,27.4l0,0l-0.8-9c1.3-57.5-16.1-22.6-50.4-26.5L1046.6,728.5z"/>
	<polygon class="st97" points="1041.1,720.9 1092.6,750 1176.8,701.9 1176.8,693.9 1041.1,712.3 	"/>
	<path class="st98" d="M1041.1,720.9l51.5,29.1l0,0v-47.1c-22.5,0-33,9.6-51.5,9.4L1041.1,720.9z"/>
	<polygon class="st99" points="1041.1,712.3 1092.6,742 1176.8,693.9 1124.9,663.9 	"/>
	<polygon class="st100" points="1045.4,712.2 1092.8,739.5 1172.2,693.7 1124.9,666.3 	"/>
	<polygon class="st101" points="1117.8,725 1083.6,705.2 1058.5,719.8 1092.8,739.5 	"/>
	<polygon class="st99" points="1170.6,694.9 1125.4,668.8 1091,692.1 1133.1,716.4 	"/>
	<polygon class="st100" points="1091,692.1 1133.1,716.4 1117.8,725 1083.6,705.3 	"/>
	<polyline class="st102" points="1106.3,681.9 1099.2,677.8 1100.8,662.1 1130.2,677.1 1134.8,660.7 	"/>
	<line class="st103" x1="1134.8" y1="660.7" x2="1189.4" y2="408.1"/>
	
		<ellipse transform="matrix(0.6229 -0.7823 0.7823 0.6229 -116.4696 1120.7759)" class="st14" cx="1104.3" cy="681.2" rx="9.9" ry="5.6"/>
	<polygon class="st14" points="1110.5,673.5 1155.1,697.8 1142.8,713.2 1098.2,688.9 	"/>
	
		<ellipse transform="matrix(0.6229 -0.7823 0.7823 0.6229 -118.6535 1164.8738)" class="st4" cx="1149" cy="705.5" rx="9.9" ry="5.6"/>
	<ellipse class="st60" cx="927.7" cy="851.6" rx="80.1" ry="38.5"/>
	<path class="st104" d="M940.8,714.7c-17.2-4-5.7,55.3-3.4,60.5c4.3,7.4,14.2,1.2,14-7.3C951,757.6,958.6,715.5,940.8,714.7z"/>
	<path class="st105" d="M937.4,775.2c1,7,26.3,24.5,34.9,27.5c3.9-0.4,8-7.3,5.3-9.6c-2.4-2.8-18.6-18.3-26.2-25.3
		C945.2,764.3,939.4,769.4,937.4,775.2z"/>
	<path class="st106" d="M971.6,799.2c-1.5-0.9,2.7-6.6,5-5.2c3.3,3.2,5.9,2.1,7.6,3.5c0.8,0.6,5.8,7.1,6.2,9.2
		c0.8,1.2-7.4,4.6-8.9,4.2c-2.4-1.4-5.9-6.3-6.2-7.6C974.4,800.2,974.9,801.4,971.6,799.2z"/>
	<path class="st106" d="M983.6,810.5l1.7,5.3c0.4,1.3-1.2,1.7-1.8,0.4l-2.2-5C980.8,810,983.1,809.1,983.6,810.5z"/>
	<path class="st106" d="M984.1,808.8L984.1,808.8c0.6-0.3,1.4,0.1,1.6,0.7l2.5,6.1c0.6,1.5-1.1,2.2-1.9,0.7l-2.9-5.9
		C983.1,809.8,983.4,809.1,984.1,808.8C984.1,808.8,984.1,808.8,984.1,808.8z"/>
	<path class="st106" d="M986.3,807.7L986.3,807.7c0.7-0.2,1.4,0.1,1.7,0.8l2.3,6.8c0.6,1.7-1.3,2.5-2,0.8l-2.7-6.7
		C985.3,808.8,985.6,808,986.3,807.7z"/>
	<path class="st106" d="M990.6,807.1l2.1,6.3c0.5,1.6-1.4,2.3-2,0.8l-2.5-6.1c-0.2-0.7,0.1-1.4,0.8-1.6
		C989.6,806.2,990.3,806.5,990.6,807.1z"/>
	<path class="st107" d="M892.7,825.2c0,0-10-0.1-6.8-4.2c1.4-1.7-3-2.7-4.5-2.8c-2-0.2-4.3,2.1-6.3,4.6c-2,2.9-6.6,5.7-7.8,6.7
		c-3.2,2.6-4.8,9.7-4.5,13.3c0.2,2.1,1.1,3.7,2.7,3.7c0.6-0.1,0.8,0.1,1.5-0.5s6-4.7,7.7-6.5c4.4-4.7,10.9-5.4,12.3-5.5s6-0.6,6-0.6
		S894.5,831.1,892.7,825.2z"/>
	<path class="st108" d="M894.2,824.5c-4.5-0.6-2.8-4.2-10.8-5.2c-3-0.4-6,4.6-7.8,6.5c-2.5,2.6-3.9,2.8-5.9,3.8
		c-1.8,0.9-2.9,2.5-3.9,4.8c-2.2,5.3-3,12,1.9,12.5c1.9,0.2,6.9-6.1,9-8.2c4.7-5,12.2-3.1,13.7-3.2s2.5-1.9,2.5-1.9
		S896,830.3,894.2,824.5z"/>
	<path class="st104" d="M919.3,717.6c-1.1,0-16,3.5-22.8,7.4c-4.8,3.3-2.1,14.2-2.4,15.5c-0.9,4.3-2.7,25.1-3.2,31.1
		s-4.6,17.6-0.4,21.3c2.9,18.2,34.5,7.1,41-5.8c0.4-12.5,6.8-17.6,12.3-37.6c1.3-4.8,8.7-20.7,3-28.9c-1.9-2.2-4.4-3.8-7.2-4.5
		C931.5,714.5,920.7,717.7,919.3,717.6z"/>
	<path class="st109" d="M921.4,811.6c-4.1,3.4-7.7,9-2.2,19.3c12.4,9.3,22.5,22.4,38.9,32c-7-13.4-8.5-18.8-15.5-32.2
		C933,815.5,926.7,811.5,921.4,811.6z"/>
	<path class="st110" d="M955.8,861.4c4.6,4.5,15.9,1.8,14.9-4.5c-5.1-31.5-22.3-52.6-37.9-73.5c-18.1,10.7-10.2,2.4-14.6-0.7
		c-6,8.5-4.6,21.2-2.3,24.2c4,5.3,4.5,5.5,12.2,16.7C936.1,836.9,946.8,852.5,955.8,861.4z"/>
	<path class="st109" d="M887.1,820.1c-4.1,3-8.5,5.8-3,16.7c13.6,10.3,25,31.7,38,43.3c-7-14.2-5.7-21.7-12.7-35.9
		C899.7,827.9,892.7,822.6,887.1,820.1z"/>
	<path class="st110" d="M931.4,719.1c8.5-0.5,12.3,13.7,4.9,37.8c2.4,1.6,2.2,0.5,5.5,0.4c6-20,8.8-33.7-1.7-39.5
		C935.2,718.3,936,717.2,931.4,719.1z"/>
	<path class="st110" d="M921.4,879.2c2,3.8,16,4.9,16.5-2.2c0.5-22.1-4.8-37.2-15.3-63.4c8.2-2,1.1-13.7,1.7-27.8
		c-18.1,12.1-29.8,7.7-36.9,5.3C882.1,813.7,910.4,857.9,921.4,879.2z"/>
	<path class="st111" d="M887.5,791.2c16.6,8.2,42.8,6.7,45.6-5.7c-0.1-1.4,0.3-4,0.2-5.4c-9.9,7.2-34,13.5-45,7.3L887.5,791.2z"/>
	<path class="st105" d="M900,725.6c-16.4-6.6-15.3,55.1-13.8,60.6c3.2,8,12.8,3.9,13.9-4.5C904.4,772.2,917.4,729.1,900,725.6z"/>
	<path class="st110" d="M897.2,724.7c7.8-0.7,14.6,9.3,14.2,35.1c2.7,1.7,6.3,1.6,9.4,1.5c-0.5-18.2-4.6-39.4-14.8-40.2
		C902.8,721.8,899.9,723,897.2,724.7z"/>
	<path class="st109" d="M895.4,789.7c10.1-8.2,14.3-20.1,15.7-40.5c13.1,4.3,25.1,2.4,34.8-7.2c-3.5,13.8-5.6,24.9-12.7,41.8
		C928.1,789.9,915.5,795.6,895.4,789.7z"/>
	<path class="st105" d="M886.4,786.7c0.4,7.1,26.7,29.4,35,33.1c3.9-0.1,8.6-6.6,6.1-9.1c-2.1-2.9-19.6-22.5-26.6-30.1
		C895,776.5,888.8,781.1,886.4,786.7z"/>
	<path class="st106" d="M931.7,814.3c2.4,0,6.6,1.4,8.1,2c1.9,0.8,2.6,1.5,4.5,2.3c-1.2,1-1.2,2-4.4,0.3c-2.6-0.3-12.4,1.6-12.2-1.9
		C928.3,815.1,928.6,814.1,931.7,814.3z"/>
	<path class="st106" d="M939.7,824.1l5.5,4.7c1.3,1.1,2.7-0.5,1.5-1.7l-5-5.4C940.6,820.4,938.5,823,939.7,824.1z"/>
	<path class="st112" d="M923.1,818c0-1.3,1.7-6.2,4-5.2c2.7,0.7,5.2,1.8,7.6,3.2c0.8,0.5,5,3.6,6.4,4.8c1.9,1.6,1.8,4.2-0.3,4
		c0,1-0.7,1.8-1.7,1.8c0,0,0,0,0,0c-0.5,0.8-0.7,1.5-2,1.8c-0.5,0.5-0.1,1.6-1.7,1.4c-2.3,0.2-7-4.1-9.5-6.4S923.1,819.2,923.1,818z
		"/>
	<path class="st110" d="M918.9,757.3c7.1,0.7,14.3-0.5,20.8-3.6l-1.6,7.4c-6.7,3.5-13.2,4.3-20.7,3.7L918.9,757.3z"/>
	<path class="st106" d="M927.3,709.7c-1.9,3.3-4.4,7.8-7.7,9.8c-1.5,2.6-0.3,6,2.2,9.2c5.3,7,12.2,6,12.9,1.2
		c0.6-1.6-0.7-4.2-0.4-5.9c0.3-1.9-2.9-3.5-2-5.2L927.3,709.7z"/>
	<path class="st112" d="M954.6,706.7c-1.1,2-1.4,4.2-2,6.4c-0.2,1.9-1.9,2-2.7,3.5c-0.3,0.6,0,1.7-0.3,2.5c-1.3,2.8-3,5.3-5.1,7.6
		c-1.2,1.5-2.6,3.7-6,4c-5.2,0.6-7.3-5.3-10.5-8.7s1-7.3,1.5-11.2C931.6,692.7,956.1,694.5,954.6,706.7z"/>
	<path class="st113" d="M925.1,704.8l-0.1,0.4L925.1,704.8z"/>
	<path class="st114" d="M937.2,708.8c-1.1-0.2-2.2,0.2-2.8,1.2c-0.9,1-1.8,0.7-2.8,3.2c-0.2,0.3-3.4-6.2-4.7-2.8
		c-1.5,3.7-4.5,6.7-5.8,8c-3.1-2.7,2.5-11.1,3.5-13.4c1.3-5.9,5.8-11.2,9.3-12.1c6.9,4.2,8.4,5,9.1,10.4
		C942.4,705.5,938.9,708.8,937.2,708.8z"/>
	<path class="st112" d="M927,709.2c-0.6,2.5-0.2,4.7,0.9,4.9s2.2-1.7,3.4-3.5c1.9-2.4,0.3-5.1-1.2-5.4
		C928.9,705,927.6,706.8,927,709.2z"/>
	<path class="st114" d="M946.2,725c0-0.9,0.1-1.6-2-2.3c-1-0.4-2-0.5-3-0.4v3c0.5,0,1,0.1,1.4,0.2c3.2,0.8,0.1,2.7-0.7,1.1
		c-0.2,0.2-0.5,0.2-0.8,0.3v6.4C943.8,730.7,946.2,726.7,946.2,725z M941.2,722.4c-1.6,0.2-3.2,0.8-4.6,1.5c-2.8,1.3-2.7-2.8-3-6.2
		c-0.2-2.1-2.6-2.7-1.4-5.5l-0.8-1.5c-2.7,3.2-4.5,5.6-5.3,7.6c-0.5,1.2-0.8,2.5-0.9,3.9v2.3c0.5,6.4,5.5,12,12.1,11.4
		c1.2-0.1,2.6-1.1,4-2.5v-6.4c-1.5,0.2-4-0.5-2.2-1.2c0.7-0.3,1.5-0.4,2.2-0.4L941.2,722.4z"/>
	<path class="st114" d="M933.8,692.9c2.8-4.4,14.3-0.4,20.1,6.3c2.8,2.3,4.8,2.8,7.6,1.9c-0.7,6.3-3.5,10.4-11,8.9
		c0.4-4.4-5.6-4-8.2-7.6C939.7,699.4,936.2,695.7,933.8,692.9z"/>
	<polygon class="st115" points="993,779.1 971.2,822.8 998.1,838.3 1019.9,794.7 	"/>
	<polygon class="st70" points="1017.5,794.5 994.3,781.1 974.8,820.3 997.9,833.7 	"/>
	<polygon class="st116" points="1010.9,790.2 1000.6,784.2 999.1,787.4 1009.4,793.4 	"/>
	<path class="st106" d="M980.2,797.2c1.5-0.5,3.1-0.4,4.5,0.4c1.7,0.8,3.5,1.9,4.2,2.2c1.8,1,1.4,1.2,3.2,2.1c-0.5,1-1.5,1.9-4.4,0
		c-0.9,0-1.8-0.3-2.6-0.7C980.3,803.4,978.3,798.1,980.2,797.2z"/>
</g>
</svg>
